STARTFONT 2.1
FONT -FontForge-Roboto-Book-R-Normal--20-200-72-72-P-111-ISO10646-1
SIZE 20 72 72
FONTBOUNDINGBOX 38 26 -15 -6
COMMENT "Generated by fontforge, http://fontforge.sourceforge.net"
COMMENT "Copyright 2011 Google Inc. All Rights Reserved."
STARTPROPERTIES 41
FOUNDRY "FontForge"
FAMILY_NAME "Roboto"
WEIGHT_NAME "Book"
SLANT "R"
SETWIDTH_NAME "Normal"
ADD_STYLE_NAME ""
PIXEL_SIZE 20
POINT_SIZE 200
RESOLUTION_X 72
RESOLUTION_Y 72
SPACING "P"
AVERAGE_WIDTH 111
CHARSET_REGISTRY "ISO10646"
CHARSET_ENCODING "1"
FONTNAME_REGISTRY ""
CHARSET_COLLECTIONS "ISO8859-2 ISO8859-5 ISO8859-7 ISO8859-9 ISO8859-4 ISO10646-1"
FONT_NAME "Roboto-Regular"
FACE_NAME "Roboto"
COPYRIGHT "Copyright 2011 Google Inc. All Rights Reserved."
FONT_VERSION "2.137; 2017"
FONT_ASCENT 15
FONT_DESCENT 5
UNDERLINE_POSITION -2
UNDERLINE_THICKNESS 1
X_HEIGHT 10
CAP_HEIGHT 13
DEFAULT_CHAR 1
RAW_ASCENT 750
RAW_DESCENT 250
NORM_SPACE 5
RELATIVE_WEIGHT 40
RELATIVE_SETWIDTH 50
SUPERSCRIPT_X 0
SUPERSCRIPT_Y 9
SUPERSCRIPT_SIZE 12
SUBSCRIPT_X 0
SUBSCRIPT_Y 2
SUBSCRIPT_SIZE 12
FIGURE_WIDTH 11
AVG_LOWERCASE_WIDTH 109
AVG_UPPERCASE_WIDTH 131
ENDPROPERTIES
CHARS 1296
STARTCHAR glyph1.dup1
ENCODING 0
SWIDTH 0 0
DWIDTH 0 0
BBX 1 1 0 0
BITMAP
00
ENDCHAR
STARTCHAR uni0002
ENCODING 2
SWIDTH 0 0
DWIDTH 0 0
BBX 1 1 0 0
BITMAP
00
ENDCHAR
STARTCHAR uni000D
ENCODING 13
SWIDTH 247 0
DWIDTH 5 0
BBX 1 1 0 0
BITMAP
00
ENDCHAR
STARTCHAR space
ENCODING 32
SWIDTH 247 0
DWIDTH 5 0
BBX 1 1 0 0
BITMAP
00
ENDCHAR
STARTCHAR exclam
ENCODING 33
SWIDTH 257 0
DWIDTH 5 0
BBX 2 14 2 0
BITMAP
C0
C0
80
80
80
80
80
80
80
80
00
00
C0
C0
ENDCHAR
STARTCHAR quotedbl
ENCODING 34
SWIDTH 319 0
DWIDTH 6 0
BBX 4 5 1 10
BITMAP
D0
D0
D0
D0
90
ENDCHAR
STARTCHAR numbersign
ENCODING 35
SWIDTH 615 0
DWIDTH 12 0
BBX 11 14 1 0
BITMAP
0CC0
0880
0880
7FE0
1980
1980
1100
1100
FFC0
3300
3300
3200
2200
2200
ENDCHAR
STARTCHAR dollar
ENCODING 36
SWIDTH 561 0
DWIDTH 11 0
BBX 9 18 1 -2
BITMAP
0C00
0C00
3E00
7F00
6380
4180
6180
7000
3E00
0F00
0380
0180
C180
E180
7F00
3E00
0800
0800
ENDCHAR
STARTCHAR percent
ENCODING 37
SWIDTH 732 0
DWIDTH 15 0
BBX 13 14 1 0
BITMAP
7800
C800
8C40
8CC0
8C80
C900
7B00
02F0
0590
0D18
0918
1118
3190
00F0
ENDCHAR
STARTCHAR ampersand
ENCODING 38
SWIDTH 621 0
DWIDTH 12 0
BBX 11 14 1 0
BITMAP
1E00
3F00
6300
6300
6300
3E00
1800
7C00
C660
C340
C1C0
E180
7FC0
3E60
ENDCHAR
STARTCHAR quotesingle
ENCODING 39
SWIDTH 174 0
DWIDTH 3 0
BBX 1 5 1 10
BITMAP
80
80
80
80
80
ENDCHAR
STARTCHAR parenleft
ENCODING 40
SWIDTH 341 0
DWIDTH 7 0
BBX 5 21 1 -5
BITMAP
08
18
10
30
60
60
60
40
C0
C0
C0
C0
C0
40
60
60
60
30
10
18
08
ENDCHAR
STARTCHAR parenright
ENCODING 41
SWIDTH 347 0
DWIDTH 7 0
BBX 6 21 0 -5
BITMAP
80
60
20
30
10
18
18
18
08
0C
0C
0C
08
18
18
18
10
30
20
60
80
ENDCHAR
STARTCHAR asterisk
ENCODING 42
SWIDTH 430 0
DWIDTH 9 0
BBX 8 8 0 6
BITMAP
08
08
49
FF
18
3C
26
62
ENDCHAR
STARTCHAR plus
ENCODING 43
SWIDTH 566 0
DWIDTH 11 0
BBX 10 11 1 1
BITMAP
0C00
0C00
0C00
0C00
FFC0
FFC0
0C00
0C00
0C00
0C00
0C00
ENDCHAR
STARTCHAR comma
ENCODING 44
SWIDTH 196 0
DWIDTH 4 0
BBX 3 5 0 -3
BITMAP
60
60
60
40
C0
ENDCHAR
STARTCHAR hyphen
ENCODING 45
SWIDTH 275 0
DWIDTH 6 0
BBX 5 2 0 5
BITMAP
F8
F8
ENDCHAR
STARTCHAR period
ENCODING 46
SWIDTH 263 0
DWIDTH 5 0
BBX 3 2 1 0
BITMAP
60
E0
ENDCHAR
STARTCHAR slash
ENCODING 47
SWIDTH 412 0
DWIDTH 8 0
BBX 8 15 0 -1
BITMAP
03
02
06
04
0C
08
08
18
10
30
30
20
60
40
C0
ENDCHAR
STARTCHAR zero
ENCODING 48
SWIDTH 561 0
DWIDTH 11 0
BBX 9 14 1 0
BITMAP
3E00
7F00
6380
C180
C180
C180
C180
C180
C180
C180
C180
6380
7F00
3E00
ENDCHAR
STARTCHAR one
ENCODING 49
SWIDTH 561 0
DWIDTH 11 0
BBX 5 14 2 0
BITMAP
08
78
F8
98
18
18
18
18
18
18
18
18
18
18
ENDCHAR
STARTCHAR two
ENCODING 50
SWIDTH 561 0
DWIDTH 11 0
BBX 10 14 1 0
BITMAP
3E00
7F00
E380
C180
0180
0100
0300
0600
0C00
1800
3000
6000
FFC0
FFC0
ENDCHAR
STARTCHAR three
ENCODING 51
SWIDTH 561 0
DWIDTH 11 0
BBX 9 14 1 0
BITMAP
3E00
7F00
E380
C180
0180
0300
1E00
1F00
0380
0180
C180
E380
7F00
3E00
ENDCHAR
STARTCHAR four
ENCODING 52
SWIDTH 561 0
DWIDTH 11 0
BBX 10 14 1 0
BITMAP
0300
0700
0F00
0B00
1B00
3300
2300
6300
C300
FFC0
FFC0
0300
0300
0300
ENDCHAR
STARTCHAR five
ENCODING 53
SWIDTH 561 0
DWIDTH 11 0
BBX 9 14 1 0
BITMAP
3F80
3F80
6000
6000
6000
7E00
7F80
2180
0180
0080
C180
6180
7F80
1E00
ENDCHAR
STARTCHAR six
ENCODING 54
SWIDTH 561 0
DWIDTH 11 0
BBX 9 14 1 0
BITMAP
0E00
1E00
3800
6000
6000
DE00
FF00
E180
C180
C180
4180
6180
3F00
1E00
ENDCHAR
STARTCHAR seven
ENCODING 55
SWIDTH 561 0
DWIDTH 11 0
BBX 9 14 1 0
BITMAP
FF80
FF80
0180
0100
0300
0200
0600
0600
0C00
0C00
1800
1800
3000
3000
ENDCHAR
STARTCHAR eight
ENCODING 56
SWIDTH 561 0
DWIDTH 11 0
BBX 9 14 1 0
BITMAP
3E00
7F00
6380
C180
C180
6300
3F00
3F00
6380
C180
C180
E180
7F00
3E00
ENDCHAR
STARTCHAR nine
ENCODING 57
SWIDTH 561 0
DWIDTH 11 0
BBX 9 14 1 0
BITMAP
3C00
7F00
E300
C180
C180
C180
E380
7F80
3D80
0180
0300
0700
3E00
3800
ENDCHAR
STARTCHAR colon
ENCODING 58
SWIDTH 242 0
DWIDTH 5 0
BBX 3 11 1 0
BITMAP
C0
E0
00
00
00
00
00
00
00
C0
E0
ENDCHAR
STARTCHAR semicolon
ENCODING 59
SWIDTH 211 0
DWIDTH 4 0
BBX 3 14 0 -3
BITMAP
60
60
00
00
00
00
00
00
00
60
60
60
60
C0
ENDCHAR
STARTCHAR less
ENCODING 60
SWIDTH 508 0
DWIDTH 10 0
BBX 8 9 1 2
BITMAP
01
07
3C
F0
C0
F0
3C
07
01
ENDCHAR
STARTCHAR equal
ENCODING 61
SWIDTH 548 0
DWIDTH 11 0
BBX 9 6 1 3
BITMAP
FF80
FF80
0000
0000
FF80
FF80
ENDCHAR
STARTCHAR greater
ENCODING 62
SWIDTH 522 0
DWIDTH 10 0
BBX 9 9 1 2
BITMAP
8000
F000
3C00
0F00
0180
0F00
3C00
F000
8000
ENDCHAR
STARTCHAR question
ENCODING 63
SWIDTH 472 0
DWIDTH 9 0
BBX 8 14 1 0
BITMAP
3C
FE
C7
C3
03
06
0C
18
18
10
20
00
10
38
ENDCHAR
STARTCHAR at
ENCODING 64
SWIDTH 897 0
DWIDTH 18 0
BBX 16 18 1 -4
BITMAP
03E0
0FF8
1C1C
3006
61E2
43E3
4621
C621
C421
CC21
CC63
CC62
C7FE
67BC
6000
3820
1FE0
07C0
ENDCHAR
STARTCHAR A
ENCODING 65
SWIDTH 652 0
DWIDTH 13 0
BBX 13 14 0 0
BITMAP
0700
0700
0500
0D80
0D80
0880
18C0
18C0
3060
3FE0
3FE0
6030
6030
C018
ENDCHAR
STARTCHAR B
ENCODING 66
SWIDTH 622 0
DWIDTH 12 0
BBX 9 14 2 0
BITMAP
FE00
FF00
C380
C180
C180
C380
FF00
FF00
C180
C180
C180
C180
FF80
FE00
ENDCHAR
STARTCHAR C
ENCODING 67
SWIDTH 650 0
DWIDTH 13 0
BBX 11 14 1 0
BITMAP
1F00
3FC0
70C0
6060
C060
C000
C000
C000
C000
C060
6060
70C0
3FC0
1F00
ENDCHAR
STARTCHAR D
ENCODING 68
SWIDTH 655 0
DWIDTH 13 0
BBX 10 14 2 0
BITMAP
FC00
FF00
C380
C180
C0C0
C0C0
C0C0
C0C0
C0C0
C0C0
C180
C380
FF00
FC00
ENDCHAR
STARTCHAR E
ENCODING 69
SWIDTH 568 0
DWIDTH 11 0
BBX 9 14 2 0
BITMAP
FF80
FF80
C000
C000
C000
C000
FF00
FF00
C000
C000
C000
C000
FF80
FF80
ENDCHAR
STARTCHAR F
ENCODING 70
SWIDTH 552 0
DWIDTH 11 0
BBX 8 14 2 0
BITMAP
FF
FF
C0
C0
C0
C0
FF
FF
C0
C0
C0
C0
C0
C0
ENDCHAR
STARTCHAR G
ENCODING 71
SWIDTH 681 0
DWIDTH 14 0
BBX 11 14 1 0
BITMAP
1F00
3FC0
70E0
6060
C000
C000
C3E0
C3E0
C060
C060
6060
7060
3FE0
0F80
ENDCHAR
STARTCHAR H
ENCODING 72
SWIDTH 712 0
DWIDTH 14 0
BBX 11 14 2 0
BITMAP
C060
C060
C060
C060
C060
C060
FFE0
FFE0
C060
C060
C060
C060
C060
C060
ENDCHAR
STARTCHAR I
ENCODING 73
SWIDTH 271 0
DWIDTH 5 0
BBX 2 14 2 0
BITMAP
C0
C0
C0
C0
C0
C0
C0
C0
C0
C0
C0
C0
C0
C0
ENDCHAR
STARTCHAR J
ENCODING 74
SWIDTH 551 0
DWIDTH 11 0
BBX 9 14 1 0
BITMAP
0180
0180
0180
0180
0180
0180
0180
0180
0180
0180
8300
C300
FF00
3C00
ENDCHAR
STARTCHAR K
ENCODING 75
SWIDTH 626 0
DWIDTH 13 0
BBX 11 14 2 0
BITMAP
C1C0
C180
C300
C600
CC00
D800
F800
EC00
CC00
C600
C300
C380
C180
C0E0
ENDCHAR
STARTCHAR L
ENCODING 76
SWIDTH 538 0
DWIDTH 11 0
BBX 8 14 2 0
BITMAP
C0
C0
C0
C0
C0
C0
C0
C0
C0
C0
C0
C0
FF
FF
ENDCHAR
STARTCHAR M
ENCODING 77
SWIDTH 873 0
DWIDTH 17 0
BBX 14 14 2 0
BITMAP
C01C
E01C
E03C
B03C
B02C
906C
986C
98CC
CCCC
CC8C
C58C
C70C
C70C
C30C
ENDCHAR
STARTCHAR N
ENCODING 78
SWIDTH 712 0
DWIDTH 14 0
BBX 11 14 1 0
BITMAP
E020
E020
F020
D820
D820
CC20
C620
C620
C320
C1A0
C1A0
C0E0
C060
C060
ENDCHAR
STARTCHAR O
ENCODING 79
SWIDTH 687 0
DWIDTH 14 0
BBX 12 14 1 0
BITMAP
1F00
3FC0
70E0
6060
C060
C030
C030
C030
C030
C060
6060
70E0
3FC0
1F00
ENDCHAR
STARTCHAR P
ENCODING 80
SWIDTH 630 0
DWIDTH 13 0
BBX 10 14 2 0
BITMAP
FF00
FF80
C1C0
C0C0
C0C0
C0C0
C1C0
FF80
FF00
C000
C000
C000
C000
C000
ENDCHAR
STARTCHAR Q
ENCODING 81
SWIDTH 687 0
DWIDTH 14 0
BBX 12 16 1 -2
BITMAP
1F00
3FC0
70E0
6060
C060
C030
C030
C030
C030
C060
6060
70E0
3FC0
1FC0
00E0
0030
ENDCHAR
STARTCHAR R
ENCODING 82
SWIDTH 615 0
DWIDTH 12 0
BBX 11 14 1 0
BITMAP
FF00
FF80
C1C0
C0C0
C0C0
C0C0
C1C0
FF80
FF00
C300
C180
C180
C0C0
C0E0
ENDCHAR
STARTCHAR S
ENCODING 83
SWIDTH 593 0
DWIDTH 12 0
BBX 10 14 1 0
BITMAP
1F00
7F80
61C0
C0C0
C000
7000
3E00
0F80
01C0
00C0
C0C0
E1C0
7F80
1F00
ENDCHAR
STARTCHAR T
ENCODING 84
SWIDTH 596 0
DWIDTH 12 0
BBX 11 14 0 0
BITMAP
FFE0
FFE0
0600
0600
0600
0600
0600
0600
0600
0600
0600
0600
0600
0600
ENDCHAR
STARTCHAR U
ENCODING 85
SWIDTH 648 0
DWIDTH 13 0
BBX 11 14 1 0
BITMAP
C060
C060
C060
C060
C060
C060
C060
C060
C060
C060
E0E0
60C0
3F80
1F00
ENDCHAR
STARTCHAR V
ENCODING 86
SWIDTH 636 0
DWIDTH 13 0
BBX 13 14 0 0
BITMAP
E038
6030
6030
3060
3060
3060
18C0
18C0
0880
0D80
0D80
0500
0700
0700
ENDCHAR
STARTCHAR W
ENCODING 87
SWIDTH 887 0
DWIDTH 18 0
BBX 16 14 1 0
BITMAP
C183
C183
C383
C3C2
63C6
6246
6666
6664
242C
3C2C
3C3C
3838
1818
1818
ENDCHAR
STARTCHAR X
ENCODING 88
SWIDTH 626 0
DWIDTH 13 0
BBX 11 14 1 0
BITMAP
C0E0
60C0
6180
3180
1B00
1E00
0E00
0E00
1E00
3B00
3180
6180
60C0
C0E0
ENDCHAR
STARTCHAR Y
ENCODING 89
SWIDTH 600 0
DWIDTH 12 0
BBX 12 14 0 0
BITMAP
E070
6060
30C0
30C0
1980
1980
0F00
0F00
0600
0600
0600
0600
0600
0600
ENDCHAR
STARTCHAR Z
ENCODING 90
SWIDTH 598 0
DWIDTH 12 0
BBX 10 14 1 0
BITMAP
FFC0
FFC0
0180
0380
0300
0600
0C00
1C00
1800
3000
6000
C000
FFC0
FFC0
ENDCHAR
STARTCHAR bracketleft
ENCODING 91
SWIDTH 265 0
DWIDTH 5 0
BBX 4 19 1 -3
BITMAP
F0
F0
C0
C0
C0
C0
C0
C0
C0
C0
C0
C0
C0
C0
C0
C0
C0
F0
F0
ENDCHAR
STARTCHAR backslash
ENCODING 92
SWIDTH 410 0
DWIDTH 8 0
BBX 8 15 0 -1
BITMAP
C0
60
60
20
30
10
18
18
08
0C
04
06
06
02
03
ENDCHAR
STARTCHAR bracketright
ENCODING 93
SWIDTH 265 0
DWIDTH 5 0
BBX 4 19 0 -3
BITMAP
F0
F0
30
30
30
30
30
30
30
30
30
30
30
30
30
30
30
F0
F0
ENDCHAR
STARTCHAR asciicircum
ENCODING 94
SWIDTH 417 0
DWIDTH 8 0
BBX 8 7 0 7
BITMAP
18
18
3C
3C
64
66
C3
ENDCHAR
STARTCHAR underscore
ENCODING 95
SWIDTH 451 0
DWIDTH 9 0
BBX 9 2 0 -2
BITMAP
FF80
FF80
ENDCHAR
STARTCHAR grave
ENCODING 96
SWIDTH 309 0
DWIDTH 6 0
BBX 4 3 1 12
BITMAP
C0
60
30
ENDCHAR
STARTCHAR a
ENCODING 97
SWIDTH 543 0
DWIDTH 11 0
BBX 9 11 1 0
BITMAP
3E00
7F00
C300
0100
3F00
7F00
E100
C100
C300
7F80
3D80
ENDCHAR
STARTCHAR b
ENCODING 98
SWIDTH 561 0
DWIDTH 11 0
BBX 9 15 1 0
BITMAP
C000
C000
C000
C000
DE00
FF00
E380
C180
C180
C180
C180
C180
E380
FF00
DE00
ENDCHAR
STARTCHAR c
ENCODING 99
SWIDTH 523 0
DWIDTH 10 0
BBX 9 11 1 0
BITMAP
3E00
7F00
E300
C180
C000
8000
C000
C180
E300
7F00
3C00
ENDCHAR
STARTCHAR d
ENCODING 100
SWIDTH 563 0
DWIDTH 11 0
BBX 9 15 1 0
BITMAP
0180
0180
0180
0180
3D80
7F80
E380
C180
C180
C180
C180
C180
E380
7F80
3D80
ENDCHAR
STARTCHAR e
ENCODING 101
SWIDTH 529 0
DWIDTH 11 0
BBX 9 11 1 0
BITMAP
1E00
7F00
6180
C180
FF80
FF80
C000
C000
6100
7F80
1E00
ENDCHAR
STARTCHAR f
ENCODING 102
SWIDTH 347 0
DWIDTH 7 0
BBX 6 15 1 0
BITMAP
1C
3C
60
60
F8
F8
60
60
60
60
60
60
60
60
60
ENDCHAR
STARTCHAR g
ENCODING 103
SWIDTH 561 0
DWIDTH 11 0
BBX 9 15 1 -4
BITMAP
3D80
7F80
E380
C180
C180
C180
C180
C180
E380
7F80
3D80
0180
4300
FF00
3E00
ENDCHAR
STARTCHAR h
ENCODING 104
SWIDTH 550 0
DWIDTH 11 0
BBX 9 15 1 0
BITMAP
C000
C000
C000
C000
DE00
FF00
E380
C180
C180
C180
C180
C180
C180
C180
C180
ENDCHAR
STARTCHAR i
ENCODING 105
SWIDTH 242 0
DWIDTH 5 0
BBX 3 15 1 0
BITMAP
40
E0
00
00
40
40
40
40
40
40
40
40
40
40
40
ENDCHAR
STARTCHAR j
ENCODING 106
SWIDTH 238 0
DWIDTH 5 0
BBX 4 19 -1 -4
BITMAP
30
30
00
00
10
10
10
10
10
10
10
10
10
10
10
10
30
F0
E0
ENDCHAR
STARTCHAR k
ENCODING 107
SWIDTH 506 0
DWIDTH 10 0
BBX 9 15 1 0
BITMAP
C000
C000
C000
C000
C380
C600
CC00
DC00
D800
F800
CC00
C600
C600
C300
C180
ENDCHAR
STARTCHAR l
ENCODING 108
SWIDTH 242 0
DWIDTH 5 0
BBX 1 15 2 0
BITMAP
80
80
80
80
80
80
80
80
80
80
80
80
80
80
80
ENDCHAR
STARTCHAR m
ENCODING 109
SWIDTH 876 0
DWIDTH 18 0
BBX 14 11 2 0
BITMAP
BC78
FEFC
C78C
8304
8304
8304
8304
8304
8304
8304
8304
ENDCHAR
STARTCHAR n
ENCODING 110
SWIDTH 551 0
DWIDTH 11 0
BBX 9 11 1 0
BITMAP
DE00
FF00
E380
C180
C180
C180
C180
C180
C180
C180
C180
ENDCHAR
STARTCHAR o
ENCODING 111
SWIDTH 570 0
DWIDTH 11 0
BBX 9 11 1 0
BITMAP
3E00
7F00
E380
C180
C180
C180
C180
C180
E380
7F00
3E00
ENDCHAR
STARTCHAR p
ENCODING 112
SWIDTH 561 0
DWIDTH 11 0
BBX 9 15 1 -4
BITMAP
DE00
FF00
E380
C180
C180
C180
C180
C180
E380
FF00
DE00
C000
C000
C000
C000
ENDCHAR
STARTCHAR q
ENCODING 113
SWIDTH 568 0
DWIDTH 11 0
BBX 9 15 1 -4
BITMAP
3D80
7F80
E380
C180
C180
C180
C180
C180
E380
7F80
3D80
0180
0180
0180
0180
ENDCHAR
STARTCHAR r
ENCODING 114
SWIDTH 338 0
DWIDTH 7 0
BBX 6 11 1 0
BITMAP
DC
FC
E0
C0
C0
C0
C0
C0
C0
C0
C0
ENDCHAR
STARTCHAR s
ENCODING 115
SWIDTH 515 0
DWIDTH 10 0
BBX 8 11 1 0
BITMAP
3C
7E
C3
C0
78
3E
07
03
C3
FF
3C
ENDCHAR
STARTCHAR t
ENCODING 116
SWIDTH 326 0
DWIDTH 7 0
BBX 6 14 0 0
BITMAP
30
30
30
FC
FC
30
30
30
30
30
30
30
3C
1C
ENDCHAR
STARTCHAR u
ENCODING 117
SWIDTH 551 0
DWIDTH 11 0
BBX 9 11 1 0
BITMAP
C180
C180
C180
C180
C180
C180
C180
C180
E380
7F80
3D80
ENDCHAR
STARTCHAR v
ENCODING 118
SWIDTH 484 0
DWIDTH 10 0
BBX 9 11 0 0
BITMAP
C180
6180
6180
2100
3300
3300
1200
1E00
1E00
0C00
0C00
ENDCHAR
STARTCHAR w
ENCODING 119
SWIDTH 751 0
DWIDTH 15 0
BBX 15 11 0 0
BITMAP
C106
638C
638C
628C
26C8
36D8
3458
3450
1C70
1830
1830
ENDCHAR
STARTCHAR x
ENCODING 120
SWIDTH 495 0
DWIDTH 10 0
BBX 9 11 0 0
BITMAP
6180
6300
3300
1E00
1E00
0C00
1E00
1E00
3300
6380
E180
ENDCHAR
STARTCHAR y
ENCODING 121
SWIDTH 473 0
DWIDTH 9 0
BBX 9 15 0 -4
BITMAP
C180
4100
6300
6300
2200
3600
3600
1400
1C00
1C00
0800
1800
1800
7000
6000
ENDCHAR
STARTCHAR z
ENCODING 122
SWIDTH 495 0
DWIDTH 10 0
BBX 8 11 1 0
BITMAP
FF
FF
06
0E
0C
18
30
60
C0
FF
FF
ENDCHAR
STARTCHAR braceleft
ENCODING 123
SWIDTH 338 0
DWIDTH 7 0
BBX 6 20 1 -4
BITMAP
08
1C
30
30
30
30
30
20
60
C0
60
20
30
30
30
30
30
30
18
0C
ENDCHAR
STARTCHAR bar
ENCODING 124
SWIDTH 243 0
DWIDTH 5 0
BBX 1 17 2 -3
BITMAP
80
80
80
80
80
80
80
80
80
80
80
80
80
80
80
80
80
ENDCHAR
STARTCHAR braceright
ENCODING 125
SWIDTH 338 0
DWIDTH 7 0
BBX 6 20 0 -4
BITMAP
40
E0
30
30
30
30
30
30
18
0C
18
10
30
30
30
30
30
30
60
C0
ENDCHAR
STARTCHAR asciitilde
ENCODING 126
SWIDTH 680 0
DWIDTH 14 0
BBX 12 4 1 4
BITMAP
3C30
7E20
47E0
C3C0
ENDCHAR
STARTCHAR uni00A0
ENCODING 160
SWIDTH 247 0
DWIDTH 5 0
BBX 1 1 0 0
BITMAP
00
ENDCHAR
STARTCHAR exclamdown
ENCODING 161
SWIDTH 243 0
DWIDTH 5 0
BBX 3 15 1 -4
BITMAP
40
E0
00
00
40
40
40
40
40
40
40
40
40
40
60
ENDCHAR
STARTCHAR cent
ENCODING 162
SWIDTH 546 0
DWIDTH 11 0
BBX 9 15 1 -2
BITMAP
0C00
0C00
3E00
7F00
6380
C180
C000
C000
C000
C000
6180
7F00
3E00
0C00
0C00
ENDCHAR
STARTCHAR sterling
ENCODING 163
SWIDTH 581 0
DWIDTH 12 0
BBX 10 14 1 0
BITMAP
0F00
3F80
31C0
30C0
2000
3000
FE00
FE00
3000
3000
3000
6000
FFC0
FFC0
ENDCHAR
STARTCHAR currency
ENCODING 164
SWIDTH 712 0
DWIDTH 14 0
BBX 12 12 1 0
BITMAP
CF30
FFF0
70E0
6060
C030
C030
C030
C030
6060
70E0
FFF0
4F30
ENDCHAR
STARTCHAR yen
ENCODING 165
SWIDTH 524 0
DWIDTH 11 0
BBX 11 14 0 0
BITMAP
E0E0
60C0
3180
3180
1B00
1B00
0E00
7FC0
7FC0
0400
7FC0
7FC0
0400
0400
ENDCHAR
STARTCHAR brokenbar
ENCODING 166
SWIDTH 239 0
DWIDTH 5 0
BBX 2 17 1 -3
BITMAP
C0
C0
C0
C0
C0
C0
C0
00
00
C0
C0
C0
C0
C0
C0
C0
C0
ENDCHAR
STARTCHAR section
ENCODING 167
SWIDTH 613 0
DWIDTH 12 0
BBX 10 19 1 -5
BITMAP
3F00
7F80
E1C0
C0C0
C000
7000
3E00
FF80
C1C0
C0C0
E0C0
7DC0
1F00
0380
00C0
C0C0
E180
7F80
3F00
ENDCHAR
STARTCHAR dieresis
ENCODING 168
SWIDTH 417 0
DWIDTH 8 0
BBX 6 2 1 12
BITMAP
CC
CC
ENDCHAR
STARTCHAR copyright
ENCODING 169
SWIDTH 785 0
DWIDTH 16 0
BBX 14 14 1 0
BITMAP
0FC0
1860
2010
4788
CFC8
8844
9804
9804
8844
CFC8
4788
2010
1860
0FC0
ENDCHAR
STARTCHAR ordfeminine
ENCODING 170
SWIDTH 446 0
DWIDTH 9 0
BBX 7 7 1 7
BITMAP
38
44
04
7C
44
C4
7E
ENDCHAR
STARTCHAR guillemotleft
ENCODING 171
SWIDTH 469 0
DWIDTH 9 0
BBX 7 8 1 1
BITMAP
12
26
6C
C8
D8
6C
26
12
ENDCHAR
STARTCHAR logicalnot
ENCODING 172
SWIDTH 553 0
DWIDTH 11 0
BBX 8 4 1 4
BITMAP
FF
FF
01
01
ENDCHAR
STARTCHAR uni00AD
ENCODING 173
SWIDTH 275 0
DWIDTH 6 0
BBX 5 2 0 5
BITMAP
F8
F8
ENDCHAR
STARTCHAR registered
ENCODING 174
SWIDTH 786 0
DWIDTH 16 0
BBX 14 14 1 0
BITMAP
0FC0
1860
2010
4F88
CFC8
8C44
8F84
8F84
8CC4
CC48
4C48
2010
1860
0FC0
ENDCHAR
STARTCHAR macron
ENCODING 175
SWIDTH 458 0
DWIDTH 9 0
BBX 7 2 1 12
BITMAP
FE
FE
ENDCHAR
STARTCHAR degree
ENCODING 176
SWIDTH 373 0
DWIDTH 7 0
BBX 5 6 1 8
BITMAP
70
78
C8
C8
78
70
ENDCHAR
STARTCHAR plusminus
ENCODING 177
SWIDTH 534 0
DWIDTH 11 0
BBX 9 12 1 0
BITMAP
0800
0800
0800
0800
FF80
FF80
0800
0800
0800
0000
FF00
FF00
ENDCHAR
STARTCHAR uni00B2
ENCODING 178
SWIDTH 366 0
DWIDTH 7 0
BBX 7 7 0 7
BITMAP
38
7C
C4
18
20
7E
7E
ENDCHAR
STARTCHAR uni00B3
ENCODING 179
SWIDTH 366 0
DWIDTH 7 0
BBX 6 7 0 7
BITMAP
78
7C
04
38
04
FC
78
ENDCHAR
STARTCHAR acute
ENCODING 180
SWIDTH 313 0
DWIDTH 6 0
BBX 4 3 1 12
BITMAP
30
60
C0
ENDCHAR
STARTCHAR mu
ENCODING 181
SWIDTH 566 0
DWIDTH 11 0
BBX 9 15 1 -4
BITMAP
C180
C180
C180
C180
C180
C180
C180
C180
E380
FF80
FD80
C000
C000
C000
C000
ENDCHAR
STARTCHAR paragraph
ENCODING 182
SWIDTH 488 0
DWIDTH 10 0
BBX 7 14 1 0
BITMAP
3E
7E
FE
FE
FE
FE
FE
7E
3E
06
06
06
06
06
ENDCHAR
STARTCHAR periodcentered
ENCODING 183
SWIDTH 260 0
DWIDTH 5 0
BBX 3 2 1 6
BITMAP
C0
E0
ENDCHAR
STARTCHAR cedilla
ENCODING 184
SWIDTH 247 0
DWIDTH 5 0
BBX 3 4 1 -4
BITMAP
C0
60
20
C0
ENDCHAR
STARTCHAR uni00B9
ENCODING 185
SWIDTH 366 0
DWIDTH 7 0
BBX 4 7 1 7
BITMAP
30
F0
F0
30
30
30
30
ENDCHAR
STARTCHAR ordmasculine
ENCODING 186
SWIDTH 454 0
DWIDTH 9 0
BBX 7 7 1 7
BITMAP
38
44
C6
C6
C6
44
38
ENDCHAR
STARTCHAR guillemotright
ENCODING 187
SWIDTH 468 0
DWIDTH 9 0
BBX 8 8 1 1
BITMAP
D8
4C
26
32
33
26
4C
D8
ENDCHAR
STARTCHAR onequarter
ENCODING 188
SWIDTH 732 0
DWIDTH 15 0
BBX 13 14 1 0
BITMAP
2000
E040
E0C0
2080
2180
2300
2230
2670
0470
08B0
19B0
11F8
31F8
0030
ENDCHAR
STARTCHAR onehalf
ENCODING 189
SWIDTH 775 0
DWIDTH 16 0
BBX 13 14 1 0
BITMAP
2000
E040
E080
2180
2100
2200
26F0
25F8
0D98
0810
1060
30C0
21F8
01F8
ENDCHAR
STARTCHAR threequarters
ENCODING 190
SWIDTH 777 0
DWIDTH 16 0
BBX 14 14 1 0
BITMAP
7800
FC20
0C30
3840
3CC0
0C80
FD98
7938
0278
0658
0498
08FC
08FC
0018
ENDCHAR
STARTCHAR questiondown
ENCODING 191
SWIDTH 473 0
DWIDTH 9 0
BBX 8 15 0 -4
BITMAP
08
1C
00
00
0C
08
18
30
60
60
C0
C1
63
7F
3E
ENDCHAR
STARTCHAR Agrave
ENCODING 192
SWIDTH 652 0
DWIDTH 13 0
BBX 13 18 0 0
BITMAP
0C00
0600
0300
0000
0700
0700
0500
0D80
0D80
0880
18C0
18C0
3060
3FE0
3FE0
6030
6030
C018
ENDCHAR
STARTCHAR Aacute
ENCODING 193
SWIDTH 652 0
DWIDTH 13 0
BBX 13 18 0 0
BITMAP
01C0
0300
0200
0000
0700
0700
0500
0D80
0D80
0880
18C0
18C0
3060
3FE0
3FE0
6030
6030
C018
ENDCHAR
STARTCHAR Acircumflex
ENCODING 194
SWIDTH 652 0
DWIDTH 13 0
BBX 13 18 0 0
BITMAP
0300
0580
0CC0
0000
0700
0700
0500
0D80
0D80
0880
18C0
18C0
3060
3FE0
3FE0
6030
6030
C018
ENDCHAR
STARTCHAR Atilde
ENCODING 195
SWIDTH 652 0
DWIDTH 13 0
BBX 13 17 0 0
BITMAP
0E40
1180
0000
0700
0700
0500
0D80
0D80
0880
18C0
18C0
3060
3FE0
3FE0
6030
6030
C018
ENDCHAR
STARTCHAR Adieresis
ENCODING 196
SWIDTH 652 0
DWIDTH 13 0
BBX 13 17 0 0
BITMAP
08C0
1CC0
0000
0700
0700
0500
0D80
0D80
0880
18C0
18C0
3060
3FE0
3FE0
6030
6030
C018
ENDCHAR
STARTCHAR Aring
ENCODING 197
SWIDTH 652 0
DWIDTH 13 0
BBX 13 19 0 0
BITMAP
0700
0480
0480
0700
0000
0700
0700
0500
0D80
0D80
0880
18C0
18C0
3060
3FE0
3FE0
6030
6030
C018
ENDCHAR
STARTCHAR AE
ENCODING 198
SWIDTH 934 0
DWIDTH 19 0
BBX 18 14 0 0
BITMAP
00FFC0
00FFC0
01E000
036000
036000
066000
0E7F80
0C7F80
186000
1FE000
3FE000
702000
603FC0
C03FC0
ENDCHAR
STARTCHAR Ccedilla
ENCODING 199
SWIDTH 650 0
DWIDTH 13 0
BBX 11 18 1 -4
BITMAP
1F00
3FC0
70C0
6060
C060
C000
C000
C000
C000
C060
6060
70C0
3FC0
1F00
0400
0300
0300
0600
ENDCHAR
STARTCHAR Egrave
ENCODING 200
SWIDTH 568 0
DWIDTH 11 0
BBX 9 18 2 0
BITMAP
7000
3000
1800
0000
FF80
FF80
C000
C000
C000
C000
FF00
FF00
C000
C000
C000
C000
FF80
FF80
ENDCHAR
STARTCHAR Eacute
ENCODING 201
SWIDTH 568 0
DWIDTH 11 0
BBX 9 18 2 0
BITMAP
0600
0C00
1800
0000
FF80
FF80
C000
C000
C000
C000
FF00
FF00
C000
C000
C000
C000
FF80
FF80
ENDCHAR
STARTCHAR Ecircumflex
ENCODING 202
SWIDTH 568 0
DWIDTH 11 0
BBX 9 18 2 0
BITMAP
1800
3C00
6600
0000
FF80
FF80
C000
C000
C000
C000
FF00
FF00
C000
C000
C000
C000
FF80
FF80
ENDCHAR
STARTCHAR Edieresis
ENCODING 203
SWIDTH 568 0
DWIDTH 11 0
BBX 9 17 2 0
BITMAP
6600
6600
0000
FF80
FF80
C000
C000
C000
C000
FF00
FF00
C000
C000
C000
C000
FF80
FF80
ENDCHAR
STARTCHAR Igrave
ENCODING 204
SWIDTH 271 0
DWIDTH 5 0
BBX 4 18 0 0
BITMAP
C0
60
30
00
30
30
30
30
30
30
30
30
30
30
30
30
30
30
ENDCHAR
STARTCHAR Iacute
ENCODING 205
SWIDTH 271 0
DWIDTH 5 0
BBX 4 18 2 0
BITMAP
70
C0
C0
00
C0
C0
C0
C0
C0
C0
C0
C0
C0
C0
C0
C0
C0
C0
ENDCHAR
STARTCHAR Icircumflex
ENCODING 206
SWIDTH 271 0
DWIDTH 5 0
BBX 6 18 0 0
BITMAP
30
58
CC
00
30
30
30
30
30
30
30
30
30
30
30
30
30
30
ENDCHAR
STARTCHAR Idieresis
ENCODING 207
SWIDTH 271 0
DWIDTH 5 0
BBX 6 17 0 0
BITMAP
CC
CC
00
30
30
30
30
30
30
30
30
30
30
30
30
30
30
ENDCHAR
STARTCHAR Eth
ENCODING 208
SWIDTH 670 0
DWIDTH 13 0
BBX 12 14 0 0
BITMAP
3F80
3FC0
30E0
3070
3030
3030
FC30
FC30
3030
3030
3070
30E0
3FC0
3F80
ENDCHAR
STARTCHAR Ntilde
ENCODING 209
SWIDTH 712 0
DWIDTH 14 0
BBX 11 17 1 0
BITMAP
1CC0
1380
0000
E020
E020
F020
D820
D820
CC20
C620
C620
C320
C1A0
C1A0
C0E0
C060
C060
ENDCHAR
STARTCHAR Ograve
ENCODING 210
SWIDTH 687 0
DWIDTH 14 0
BBX 12 18 1 0
BITMAP
1800
0C00
0600
0000
1F00
3FC0
70E0
6060
C060
C030
C030
C030
C030
C060
6060
70E0
3FC0
1F00
ENDCHAR
STARTCHAR Oacute
ENCODING 211
SWIDTH 687 0
DWIDTH 14 0
BBX 12 18 1 0
BITMAP
0380
0300
0600
0000
1F00
3FC0
70E0
6060
C060
C030
C030
C030
C030
C060
6060
70E0
3FC0
1F00
ENDCHAR
STARTCHAR Ocircumflex
ENCODING 212
SWIDTH 687 0
DWIDTH 14 0
BBX 12 18 1 0
BITMAP
0600
0F00
1980
0000
1F00
3FC0
70E0
6060
C060
C030
C030
C030
C030
C060
6060
70E0
3FC0
1F00
ENDCHAR
STARTCHAR Otilde
ENCODING 213
SWIDTH 687 0
DWIDTH 14 0
BBX 12 17 1 0
BITMAP
1C80
3380
0000
1F00
3FC0
70E0
6060
C060
C030
C030
C030
C030
C060
6060
70E0
3FC0
1F00
ENDCHAR
STARTCHAR Odieresis
ENCODING 214
SWIDTH 687 0
DWIDTH 14 0
BBX 12 17 1 0
BITMAP
1980
1980
0000
1F00
3FC0
70E0
6060
C060
C030
C030
C030
C030
C060
6060
70E0
3FC0
1F00
ENDCHAR
STARTCHAR multiply
ENCODING 215
SWIDTH 533 0
DWIDTH 11 0
BBX 9 9 1 2
BITMAP
4100
E380
6600
3C00
1800
3C00
6600
C300
4180
ENDCHAR
STARTCHAR Oslash
ENCODING 216
SWIDTH 687 0
DWIDTH 14 0
BBX 12 15 1 -1
BITMAP
0F30
3FE0
7060
60E0
61A0
C130
C230
C630
C430
4C30
7860
70E0
3FC0
2F00
4000
ENDCHAR
STARTCHAR Ugrave
ENCODING 217
SWIDTH 648 0
DWIDTH 13 0
BBX 11 18 1 0
BITMAP
3800
0C00
0600
0000
C060
C060
C060
C060
C060
C060
C060
C060
C060
C060
E0E0
60C0
3F80
1F00
ENDCHAR
STARTCHAR Uacute
ENCODING 218
SWIDTH 648 0
DWIDTH 13 0
BBX 11 18 1 0
BITMAP
0380
0600
0400
0000
C060
C060
C060
C060
C060
C060
C060
C060
C060
C060
E0E0
60C0
3F80
1F00
ENDCHAR
STARTCHAR Ucircumflex
ENCODING 219
SWIDTH 648 0
DWIDTH 13 0
BBX 11 18 1 0
BITMAP
0E00
1B00
1100
0000
C060
C060
C060
C060
C060
C060
C060
C060
C060
C060
E0E0
60C0
3F80
1F00
ENDCHAR
STARTCHAR Udieresis
ENCODING 220
SWIDTH 648 0
DWIDTH 13 0
BBX 11 17 1 0
BITMAP
3180
3980
0000
C060
C060
C060
C060
C060
C060
C060
C060
C060
C060
E0E0
60C0
3F80
1F00
ENDCHAR
STARTCHAR Yacute
ENCODING 221
SWIDTH 600 0
DWIDTH 12 0
BBX 12 18 0 0
BITMAP
0180
0300
0600
0000
E070
6060
30C0
30C0
1980
1980
0F00
0F00
0600
0600
0600
0600
0600
0600
ENDCHAR
STARTCHAR Thorn
ENCODING 222
SWIDTH 590 0
DWIDTH 12 0
BBX 9 14 2 0
BITMAP
C000
C000
C000
FE00
FF00
C380
C180
C180
C180
C380
FF00
FE00
C000
C000
ENDCHAR
STARTCHAR germandbls
ENCODING 223
SWIDTH 594 0
DWIDTH 12 0
BBX 10 15 1 0
BITMAP
3C00
7E00
6300
C300
C300
C600
C600
C600
C700
C380
C0C0
C0C0
D0C0
CFC0
DF80
ENDCHAR
STARTCHAR agrave
ENCODING 224
SWIDTH 543 0
DWIDTH 11 0
BBX 9 16 1 0
BITMAP
3000
1800
0C00
0000
0000
3E00
7F00
C300
0100
3F00
7F00
E100
C100
C300
7F80
3D80
ENDCHAR
STARTCHAR aacute
ENCODING 225
SWIDTH 543 0
DWIDTH 11 0
BBX 9 16 1 0
BITMAP
0700
0C00
0C00
0000
0000
3E00
7F00
C300
0100
3F00
7F00
E100
C100
C300
7F80
3D80
ENDCHAR
STARTCHAR acircumflex
ENCODING 226
SWIDTH 543 0
DWIDTH 11 0
BBX 9 16 1 0
BITMAP
0C00
1600
3300
0000
0000
3E00
7F00
C300
0100
3F00
7F00
E100
C100
C300
7F80
3D80
ENDCHAR
STARTCHAR atilde
ENCODING 227
SWIDTH 543 0
DWIDTH 11 0
BBX 9 15 1 0
BITMAP
3900
6600
0000
0000
3E00
7F00
C300
0100
3F00
7F00
E100
C100
C300
7F80
3D80
ENDCHAR
STARTCHAR adieresis
ENCODING 228
SWIDTH 543 0
DWIDTH 11 0
BBX 9 15 1 0
BITMAP
3300
3300
0000
0000
3E00
7F00
C300
0100
3F00
7F00
E100
C100
C300
7F80
3D80
ENDCHAR
STARTCHAR aring
ENCODING 229
SWIDTH 543 0
DWIDTH 11 0
BBX 9 16 1 0
BITMAP
1C00
1200
1200
1C00
0000
3E00
7F00
C300
0100
3F00
7F00
E100
C100
C300
7F80
3D80
ENDCHAR
STARTCHAR ae
ENCODING 230
SWIDTH 844 0
DWIDTH 17 0
BBX 15 11 1 0
BITMAP
3C78
FFFC
C386
0306
3FFE
FFFE
C300
C380
C384
FEFE
7C7C
ENDCHAR
STARTCHAR ccedilla
ENCODING 231
SWIDTH 523 0
DWIDTH 10 0
BBX 9 15 1 -4
BITMAP
3E00
7F00
E300
C180
C000
8000
C000
C180
E300
7F00
3C00
0800
1C00
0400
1800
ENDCHAR
STARTCHAR egrave
ENCODING 232
SWIDTH 529 0
DWIDTH 11 0
BBX 9 16 1 0
BITMAP
7000
1800
0C00
0000
0000
1E00
7F00
6180
C180
FF80
FF80
C000
C000
6100
7F80
1E00
ENDCHAR
STARTCHAR eacute
ENCODING 233
SWIDTH 529 0
DWIDTH 11 0
BBX 9 16 1 0
BITMAP
0700
0C00
0800
0000
0000
1E00
7F00
6180
C180
FF80
FF80
C000
C000
6100
7F80
1E00
ENDCHAR
STARTCHAR ecircumflex
ENCODING 234
SWIDTH 529 0
DWIDTH 11 0
BBX 9 16 1 0
BITMAP
1C00
3600
2200
0000
0000
1E00
7F00
6180
C180
FF80
FF80
C000
C000
6100
7F80
1E00
ENDCHAR
STARTCHAR edieresis
ENCODING 235
SWIDTH 529 0
DWIDTH 11 0
BBX 9 15 1 0
BITMAP
6300
7300
0000
0000
1E00
7F00
6180
C180
FF80
FF80
C000
C000
6100
7F80
1E00
ENDCHAR
STARTCHAR igrave
ENCODING 236
SWIDTH 247 0
DWIDTH 5 0
BBX 5 16 -1 0
BITMAP
E0
30
18
00
00
10
10
10
10
10
10
10
10
10
10
10
ENDCHAR
STARTCHAR iacute
ENCODING 237
SWIDTH 247 0
DWIDTH 5 0
BBX 5 16 1 0
BITMAP
38
60
C0
00
00
40
40
40
40
40
40
40
40
40
40
40
ENDCHAR
STARTCHAR icircumflex
ENCODING 238
SWIDTH 247 0
DWIDTH 5 0
BBX 5 16 0 0
BITMAP
70
D8
88
00
00
20
20
20
20
20
20
20
20
20
20
20
ENDCHAR
STARTCHAR idieresis
ENCODING 239
SWIDTH 247 0
DWIDTH 5 0
BBX 7 15 -1 0
BITMAP
C6
C6
00
00
10
10
10
10
10
10
10
10
10
10
10
ENDCHAR
STARTCHAR eth
ENCODING 240
SWIDTH 585 0
DWIDTH 12 0
BBX 10 15 1 0
BITMAP
3000
3D80
0E00
0F00
1380
0180
1F80
7F80
61C0
C0C0
C0C0
C180
6180
7F00
1E00
ENDCHAR
STARTCHAR ntilde
ENCODING 241
SWIDTH 551 0
DWIDTH 11 0
BBX 9 15 1 0
BITMAP
3900
4600
0000
0000
DE00
FF00
E380
C180
C180
C180
C180
C180
C180
C180
C180
ENDCHAR
STARTCHAR ograve
ENCODING 242
SWIDTH 570 0
DWIDTH 11 0
BBX 9 16 1 0
BITMAP
3000
1800
0C00
0000
0000
3E00
7F00
E380
C180
C180
C180
C180
C180
E380
7F00
3E00
ENDCHAR
STARTCHAR oacute
ENCODING 243
SWIDTH 570 0
DWIDTH 11 0
BBX 9 16 1 0
BITMAP
0700
0C00
0C00
0000
0000
3E00
7F00
E380
C180
C180
C180
C180
C180
E380
7F00
3E00
ENDCHAR
STARTCHAR ocircumflex
ENCODING 244
SWIDTH 570 0
DWIDTH 11 0
BBX 9 16 1 0
BITMAP
0C00
1600
3300
0000
0000
3E00
7F00
E380
C180
C180
C180
C180
C180
E380
7F00
3E00
ENDCHAR
STARTCHAR otilde
ENCODING 245
SWIDTH 570 0
DWIDTH 11 0
BBX 9 15 1 0
BITMAP
3900
6600
0000
0000
3E00
7F00
E380
C180
C180
C180
C180
C180
E380
7F00
3E00
ENDCHAR
STARTCHAR odieresis
ENCODING 246
SWIDTH 570 0
DWIDTH 11 0
BBX 9 15 1 0
BITMAP
2300
7300
0000
0000
3E00
7F00
E380
C180
C180
C180
C180
C180
E380
7F00
3E00
ENDCHAR
STARTCHAR divide
ENCODING 247
SWIDTH 570 0
DWIDTH 11 0
BBX 10 10 0 2
BITMAP
0C00
0E00
0000
0000
FFC0
FFC0
0000
0000
0C00
0E00
ENDCHAR
STARTCHAR oslash
ENCODING 248
SWIDTH 566 0
DWIDTH 11 0
BBX 9 13 1 -1
BITMAP
0100
3F00
7F00
E380
C580
C580
C880
D980
D180
E380
7F00
3E00
4000
ENDCHAR
STARTCHAR ugrave
ENCODING 249
SWIDTH 551 0
DWIDTH 11 0
BBX 9 16 1 0
BITMAP
7000
1800
0C00
0000
0000
C180
C180
C180
C180
C180
C180
C180
C180
E380
7F80
3D80
ENDCHAR
STARTCHAR uacute
ENCODING 250
SWIDTH 551 0
DWIDTH 11 0
BBX 9 16 1 0
BITMAP
0700
0C00
0800
0000
0000
C180
C180
C180
C180
C180
C180
C180
C180
E380
7F80
3D80
ENDCHAR
STARTCHAR ucircumflex
ENCODING 251
SWIDTH 551 0
DWIDTH 11 0
BBX 9 16 1 0
BITMAP
1C00
3600
2300
0000
0000
C180
C180
C180
C180
C180
C180
C180
C180
E380
7F80
3D80
ENDCHAR
STARTCHAR udieresis
ENCODING 252
SWIDTH 551 0
DWIDTH 11 0
BBX 9 15 1 0
BITMAP
2300
7300
0000
0000
C180
C180
C180
C180
C180
C180
C180
C180
E380
7F80
3D80
ENDCHAR
STARTCHAR yacute
ENCODING 253
SWIDTH 473 0
DWIDTH 9 0
BBX 9 20 0 -4
BITMAP
0700
0600
0C00
0000
0000
C180
4100
6300
6300
2200
3600
3600
1400
1C00
1C00
0800
1800
1800
7000
6000
ENDCHAR
STARTCHAR thorn
ENCODING 254
SWIDTH 576 0
DWIDTH 12 0
BBX 9 19 2 -4
BITMAP
C000
C000
C000
C000
FC00
FF00
C300
C300
C180
C180
C180
C300
C300
FF00
FC00
C000
C000
C000
C000
ENDCHAR
STARTCHAR ydieresis
ENCODING 255
SWIDTH 473 0
DWIDTH 9 0
BBX 9 19 0 -4
BITMAP
3300
3300
0000
0000
C180
4100
6300
6300
2200
3600
3600
1400
1C00
1C00
0800
1800
1800
7000
6000
ENDCHAR
STARTCHAR Amacron
ENCODING 256
SWIDTH 652 0
DWIDTH 13 0
BBX 13 17 0 0
BITMAP
1FC0
1FC0
0000
0700
0700
0500
0D80
0D80
0880
18C0
18C0
3060
3FE0
3FE0
6030
6030
C018
ENDCHAR
STARTCHAR amacron
ENCODING 257
SWIDTH 543 0
DWIDTH 11 0
BBX 9 14 1 0
BITMAP
7F00
7F00
0000
3E00
7F00
C300
0100
3F00
7F00
E100
C100
C300
7F80
3D80
ENDCHAR
STARTCHAR Abreve
ENCODING 258
SWIDTH 652 0
DWIDTH 13 0
BBX 13 17 0 0
BITMAP
0CC0
0780
0000
0700
0700
0500
0D80
0D80
0880
18C0
18C0
3060
3FE0
3FE0
6030
6030
C018
ENDCHAR
STARTCHAR abreve
ENCODING 259
SWIDTH 543 0
DWIDTH 11 0
BBX 9 14 1 0
BITMAP
3300
1E00
0000
3E00
7F00
C300
0100
3F00
7F00
E100
C100
C300
7F80
3D80
ENDCHAR
STARTCHAR Aogonek
ENCODING 260
SWIDTH 652 0
DWIDTH 13 0
BBX 13 18 0 -4
BITMAP
0300
0700
0500
0D80
0D80
0880
18C0
18C0
3060
3FE0
3FE0
6030
6030
C018
0030
0060
0060
0038
ENDCHAR
STARTCHAR aogonek
ENCODING 261
SWIDTH 543 0
DWIDTH 11 0
BBX 9 15 1 -4
BITMAP
3E00
7F00
C300
0100
3F00
7F00
C100
C100
C300
7F00
3D80
0300
0600
0600
0380
ENDCHAR
STARTCHAR Cacute
ENCODING 262
SWIDTH 650 0
DWIDTH 13 0
BBX 11 18 1 0
BITMAP
0380
0600
0600
0000
1F00
3FC0
70C0
6060
C060
C000
C000
C000
C000
C060
6060
70C0
3FC0
1F00
ENDCHAR
STARTCHAR cacute
ENCODING 263
SWIDTH 523 0
DWIDTH 10 0
BBX 9 16 1 0
BITMAP
0600
0C00
1800
0000
0000
3E00
7F00
E300
C180
C000
8000
C000
C180
E300
7F00
3C00
ENDCHAR
STARTCHAR Ccircumflex
ENCODING 264
SWIDTH 650 0
DWIDTH 13 0
BBX 11 18 1 0
BITMAP
0600
0B00
1980
0000
1F00
3FC0
70C0
6060
C060
C000
C000
C000
C000
C060
6060
70C0
3FC0
1F00
ENDCHAR
STARTCHAR ccircumflex
ENCODING 265
SWIDTH 523 0
DWIDTH 10 0
BBX 9 16 1 0
BITMAP
1800
3C00
6600
0000
0000
3E00
7F00
E300
C180
C000
8000
C000
C180
E300
7F00
3C00
ENDCHAR
STARTCHAR Cdotaccent
ENCODING 266
SWIDTH 650 0
DWIDTH 13 0
BBX 11 17 1 0
BITMAP
0600
0600
0000
1F00
3FC0
70C0
6060
C060
C000
C000
C000
C000
C060
6060
70C0
3FC0
1F00
ENDCHAR
STARTCHAR cdotaccent
ENCODING 267
SWIDTH 523 0
DWIDTH 10 0
BBX 9 15 1 0
BITMAP
1800
1800
0000
0000
3E00
7F00
E300
C180
C000
8000
C000
C180
E300
7F00
3C00
ENDCHAR
STARTCHAR Ccaron
ENCODING 268
SWIDTH 650 0
DWIDTH 13 0
BBX 11 18 1 0
BITMAP
1980
0A00
0600
0000
1F00
3FC0
70C0
6060
C060
C000
C000
C000
C000
C060
6060
70C0
3FC0
1F00
ENDCHAR
STARTCHAR ccaron
ENCODING 269
SWIDTH 523 0
DWIDTH 10 0
BBX 9 16 1 0
BITMAP
6600
3C00
1800
0000
0000
3E00
7F00
E300
C180
C000
8000
C000
C180
E300
7F00
3C00
ENDCHAR
STARTCHAR Dcaron
ENCODING 270
SWIDTH 655 0
DWIDTH 13 0
BBX 10 18 2 0
BITMAP
6600
3C00
1800
0000
FC00
FF00
C380
C180
C0C0
C0C0
C0C0
C0C0
C0C0
C0C0
C180
C380
FF00
FC00
ENDCHAR
STARTCHAR dcaron
ENCODING 271
SWIDTH 637 0
DWIDTH 13 0
BBX 12 15 1 0
BITMAP
01B0
01B0
01B0
01E0
3D80
7F80
E380
C180
C180
C180
C180
C180
E380
7F80
3D80
ENDCHAR
STARTCHAR Dcroat
ENCODING 272
SWIDTH 670 0
DWIDTH 13 0
BBX 12 14 0 0
BITMAP
3F80
3FC0
30E0
3070
3030
3030
FC30
FC30
3030
3030
3070
30E0
3FC0
3F80
ENDCHAR
STARTCHAR dcroat
ENCODING 273
SWIDTH 597 0
DWIDTH 12 0
BBX 11 15 1 0
BITMAP
0180
0FE0
0FE0
0180
3D80
7F80
E380
C180
C180
C180
C180
C180
E380
7F80
3D80
ENDCHAR
STARTCHAR Emacron
ENCODING 274
SWIDTH 568 0
DWIDTH 11 0
BBX 9 17 2 0
BITMAP
7E00
7E00
0000
FF80
FF80
C000
C000
C000
C000
FF00
FF00
C000
C000
C000
C000
FF80
FF80
ENDCHAR
STARTCHAR emacron
ENCODING 275
SWIDTH 529 0
DWIDTH 11 0
BBX 9 14 1 0
BITMAP
7F00
7F00
0000
1E00
7F00
6180
C180
FF80
FF80
C000
C000
6100
7F80
1E00
ENDCHAR
STARTCHAR Ebreve
ENCODING 276
SWIDTH 568 0
DWIDTH 11 0
BBX 9 17 2 0
BITMAP
6200
3C00
0000
FF80
FF80
C000
C000
C000
C000
FF00
FF00
C000
C000
C000
C000
FF80
FF80
ENDCHAR
STARTCHAR ebreve
ENCODING 277
SWIDTH 529 0
DWIDTH 11 0
BBX 9 14 1 0
BITMAP
2300
1E00
0000
1E00
7F00
6180
C180
FF80
FF80
C000
C000
6100
7F80
1E00
ENDCHAR
STARTCHAR Edotaccent
ENCODING 278
SWIDTH 568 0
DWIDTH 11 0
BBX 9 17 2 0
BITMAP
1800
1800
0000
FF80
FF80
C000
C000
C000
C000
FF00
FF00
C000
C000
C000
C000
FF80
FF80
ENDCHAR
STARTCHAR edotaccent
ENCODING 279
SWIDTH 529 0
DWIDTH 11 0
BBX 9 15 1 0
BITMAP
0C00
1C00
0000
0000
1E00
7F00
6180
C180
FF80
FF80
C000
C000
6100
7F80
1E00
ENDCHAR
STARTCHAR Eogonek
ENCODING 280
SWIDTH 568 0
DWIDTH 11 0
BBX 9 18 2 -4
BITMAP
FF80
FF80
C000
C000
C000
C000
FF00
FF00
C000
C000
C000
C000
FF80
FF80
0200
0600
0400
0700
ENDCHAR
STARTCHAR eogonek
ENCODING 281
SWIDTH 529 0
DWIDTH 11 0
BBX 9 15 1 -4
BITMAP
1E00
7F00
6300
C180
FF80
FF80
C000
C000
E100
7F80
3E00
0C00
0800
0800
0E00
ENDCHAR
STARTCHAR Ecaron
ENCODING 282
SWIDTH 568 0
DWIDTH 11 0
BBX 9 18 2 0
BITMAP
6600
3C00
1800
0000
FF80
FF80
C000
C000
C000
C000
FF00
FF00
C000
C000
C000
C000
FF80
FF80
ENDCHAR
STARTCHAR ecaron
ENCODING 283
SWIDTH 529 0
DWIDTH 11 0
BBX 9 16 1 0
BITMAP
6300
1400
0800
0000
0000
1E00
7F00
6180
C180
FF80
FF80
C000
C000
6100
7F80
1E00
ENDCHAR
STARTCHAR Gcircumflex
ENCODING 284
SWIDTH 681 0
DWIDTH 14 0
BBX 11 18 1 0
BITMAP
0E00
1B00
1180
0000
1F00
3FC0
70E0
6060
C000
C000
C3E0
C3E0
C060
C060
6060
7060
3FE0
0F80
ENDCHAR
STARTCHAR gcircumflex
ENCODING 285
SWIDTH 561 0
DWIDTH 11 0
BBX 9 20 1 -4
BITMAP
1800
3400
6600
0000
0000
3D80
7F80
E380
C180
C180
C180
C180
C180
E380
7F80
3D80
0180
4300
FF00
3E00
ENDCHAR
STARTCHAR Gbreve
ENCODING 286
SWIDTH 681 0
DWIDTH 14 0
BBX 11 17 1 0
BITMAP
1180
0F00
0000
1F00
3FC0
70E0
6060
C000
C000
C3E0
C3E0
C060
C060
6060
7060
3FE0
0F80
ENDCHAR
STARTCHAR gbreve
ENCODING 287
SWIDTH 561 0
DWIDTH 11 0
BBX 9 18 1 -4
BITMAP
2300
1E00
0000
3D80
7F80
E380
C180
C180
C180
C180
C180
E380
7F80
3D80
0180
4300
FF00
3E00
ENDCHAR
STARTCHAR Gdotaccent
ENCODING 288
SWIDTH 681 0
DWIDTH 14 0
BBX 11 17 1 0
BITMAP
0600
0600
0000
1F00
3FC0
70E0
6060
C000
C000
C3E0
C3E0
C060
C060
6060
7060
3FE0
0F80
ENDCHAR
STARTCHAR gdotaccent
ENCODING 289
SWIDTH 561 0
DWIDTH 11 0
BBX 9 19 1 -4
BITMAP
0800
1C00
0000
0000
3D80
7F80
E380
C180
C180
C180
C180
C180
E380
7F80
3D80
0180
4300
FF00
3E00
ENDCHAR
STARTCHAR uni0122
ENCODING 290
SWIDTH 681 0
DWIDTH 14 0
BBX 11 20 1 -6
BITMAP
1F00
3FC0
70E0
6060
C000
C000
C3E0
C3E0
C060
C060
6060
7060
3FE0
0F80
0000
0000
0600
0600
0600
0400
ENDCHAR
STARTCHAR uni0123
ENCODING 291
SWIDTH 561 0
DWIDTH 11 0
BBX 9 21 1 -4
BITMAP
0C00
0C00
1800
1800
0000
0000
3D80
7F80
E380
C180
C180
C180
C180
C180
E380
7F80
3D80
0180
4300
FF00
3E00
ENDCHAR
STARTCHAR Hcircumflex
ENCODING 292
SWIDTH 712 0
DWIDTH 14 0
BBX 11 18 2 0
BITMAP
0C00
1E00
3300
0000
C060
C060
C060
C060
C060
C060
FFE0
FFE0
C060
C060
C060
C060
C060
C060
ENDCHAR
STARTCHAR hcircumflex
ENCODING 293
SWIDTH 550 0
DWIDTH 11 0
BBX 9 19 1 0
BITMAP
1800
3C00
6600
0000
C000
C000
C000
C000
DE00
FF00
E380
C180
C180
C180
C180
C180
C180
C180
C180
ENDCHAR
STARTCHAR Hbar
ENCODING 294
SWIDTH 700 0
DWIDTH 14 0
BBX 14 14 0 0
BITMAP
2018
2018
2018
FFFC
FFFC
2018
3FF8
3FF8
2018
2018
2018
2018
2018
2018
ENDCHAR
STARTCHAR hbar
ENCODING 295
SWIDTH 565 0
DWIDTH 11 0
BBX 10 15 0 0
BITMAP
2000
FC00
FC00
2000
2780
3F80
30C0
30C0
20C0
20C0
20C0
20C0
20C0
20C0
20C0
ENDCHAR
STARTCHAR Itilde
ENCODING 296
SWIDTH 271 0
DWIDTH 5 0
BBX 7 17 -1 0
BITMAP
72
CE
00
18
18
18
18
18
18
18
18
18
18
18
18
18
18
ENDCHAR
STARTCHAR itilde
ENCODING 297
SWIDTH 247 0
DWIDTH 5 0
BBX 7 15 -1 0
BITMAP
62
9C
00
00
10
10
10
10
10
10
10
10
10
10
10
ENDCHAR
STARTCHAR Imacron
ENCODING 298
SWIDTH 271 0
DWIDTH 5 0
BBX 7 17 -1 0
BITMAP
FE
FE
00
18
18
18
18
18
18
18
18
18
18
18
18
18
18
ENDCHAR
STARTCHAR imacron
ENCODING 299
SWIDTH 247 0
DWIDTH 5 0
BBX 7 14 -1 0
BITMAP
FE
FE
00
10
10
10
10
10
10
10
10
10
10
10
ENDCHAR
STARTCHAR Ibreve
ENCODING 300
SWIDTH 271 0
DWIDTH 5 0
BBX 6 17 0 0
BITMAP
CC
78
00
30
30
30
30
30
30
30
30
30
30
30
30
30
30
ENDCHAR
STARTCHAR ibreve
ENCODING 301
SWIDTH 247 0
DWIDTH 5 0
BBX 6 14 0 0
BITMAP
8C
78
00
20
20
20
20
20
20
20
20
20
20
20
ENDCHAR
STARTCHAR Iogonek
ENCODING 302
SWIDTH 271 0
DWIDTH 5 0
BBX 4 18 0 -4
BITMAP
30
30
30
30
30
30
30
30
30
30
30
30
30
30
40
C0
C0
60
ENDCHAR
STARTCHAR iogonek
ENCODING 303
SWIDTH 242 0
DWIDTH 5 0
BBX 4 19 0 -4
BITMAP
20
70
00
00
20
20
20
20
20
20
20
20
20
20
60
C0
80
80
E0
ENDCHAR
STARTCHAR Idotaccent
ENCODING 304
SWIDTH 271 0
DWIDTH 5 0
BBX 2 17 2 0
BITMAP
C0
C0
00
C0
C0
C0
C0
C0
C0
C0
C0
C0
C0
C0
C0
C0
C0
ENDCHAR
STARTCHAR dotlessi
ENCODING 305
SWIDTH 247 0
DWIDTH 5 0
BBX 1 11 2 0
BITMAP
80
80
80
80
80
80
80
80
80
80
80
ENDCHAR
STARTCHAR IJ
ENCODING 306
SWIDTH 823 0
DWIDTH 16 0
BBX 13 14 2 0
BITMAP
C018
C018
C018
C018
C018
C018
C018
C018
C018
C018
CC18
CE38
C7F0
C3E0
ENDCHAR
STARTCHAR ij
ENCODING 307
SWIDTH 481 0
DWIDTH 10 0
BBX 7 19 1 -4
BITMAP
46
E6
00
00
46
46
46
46
46
46
46
46
46
46
46
06
06
1E
1C
ENDCHAR
STARTCHAR Jcircumflex
ENCODING 308
SWIDTH 551 0
DWIDTH 11 0
BBX 10 18 1 0
BITMAP
0300
0680
0CC0
0000
0180
0180
0180
0180
0180
0180
0180
0180
0180
0180
8300
C300
FF00
3C00
ENDCHAR
STARTCHAR jcircumflex
ENCODING 309
SWIDTH 251 0
DWIDTH 5 0
BBX 7 19 -1 -4
BITMAP
18
2C
66
00
10
10
10
10
10
10
10
10
10
10
10
10
30
F0
E0
ENDCHAR
STARTCHAR uni0136
ENCODING 310
SWIDTH 626 0
DWIDTH 13 0
BBX 11 19 2 -5
BITMAP
C1C0
C180
C300
C600
CC00
D800
F800
EC00
CC00
C600
C300
C380
C180
C0C0
0020
0800
0800
1800
1000
ENDCHAR
STARTCHAR uni0137
ENCODING 311
SWIDTH 506 0
DWIDTH 10 0
BBX 9 20 1 -5
BITMAP
C000
C000
C000
C000
C380
C600
CC00
DC00
D800
F800
CC00
C600
C600
C300
C180
0000
1800
1800
1800
1000
ENDCHAR
STARTCHAR kgreenlandic
ENCODING 312
SWIDTH 556 0
DWIDTH 11 0
BBX 10 11 1 0
BITMAP
C180
C300
C600
CC00
F800
F800
CC00
C600
C700
C300
C1C0
ENDCHAR
STARTCHAR Lacute
ENCODING 313
SWIDTH 538 0
DWIDTH 11 0
BBX 8 18 2 0
BITMAP
70
C0
80
00
C0
C0
C0
C0
C0
C0
C0
C0
C0
C0
C0
C0
FF
FF
ENDCHAR
STARTCHAR lacute
ENCODING 314
SWIDTH 242 0
DWIDTH 5 0
BBX 5 20 1 0
BITMAP
38
60
C0
00
00
40
40
40
40
40
40
40
40
40
40
40
40
40
40
40
ENDCHAR
STARTCHAR uni013B
ENCODING 315
SWIDTH 538 0
DWIDTH 11 0
BBX 8 19 2 -5
BITMAP
C0
C0
C0
C0
C0
C0
C0
C0
C0
C0
C0
C0
FF
FF
00
18
18
18
30
ENDCHAR
STARTCHAR uni013C
ENCODING 316
SWIDTH 242 0
DWIDTH 5 0
BBX 2 20 1 -5
BITMAP
40
40
40
40
40
40
40
40
40
40
40
40
40
40
40
00
40
40
C0
80
ENDCHAR
STARTCHAR Lcaron
ENCODING 317
SWIDTH 538 0
DWIDTH 11 0
BBX 8 14 2 0
BITMAP
CC
CC
CC
D8
C0
C0
C0
C0
C0
C0
C0
C0
FF
FF
ENDCHAR
STARTCHAR lcaron
ENCODING 318
SWIDTH 315 0
DWIDTH 6 0
BBX 5 15 2 0
BITMAP
98
98
90
B0
80
80
80
80
80
80
80
80
80
80
80
ENDCHAR
STARTCHAR Ldot
ENCODING 319
SWIDTH 538 0
DWIDTH 11 0
BBX 8 14 2 0
BITMAP
C0
C0
C0
C0
C0
C0
CC
CC
C0
C0
C0
C0
FF
FF
ENDCHAR
STARTCHAR ldot
ENCODING 320
SWIDTH 350 0
DWIDTH 7 0
BBX 5 15 2 0
BITMAP
80
80
80
80
80
80
80
90
B8
80
80
80
80
80
80
ENDCHAR
STARTCHAR Lslash
ENCODING 321
SWIDTH 538 0
DWIDTH 11 0
BBX 10 14 0 0
BITMAP
3000
3000
3000
3000
3000
3400
7C00
F800
B000
3000
3000
3000
3FC0
3FC0
ENDCHAR
STARTCHAR lslash
ENCODING 322
SWIDTH 270 0
DWIDTH 5 0
BBX 5 15 0 0
BITMAP
30
30
30
30
30
30
38
78
F0
B0
30
30
30
30
30
ENDCHAR
STARTCHAR Nacute
ENCODING 323
SWIDTH 712 0
DWIDTH 14 0
BBX 11 18 1 0
BITMAP
0180
0300
0600
0000
E020
E020
F020
D820
D820
CC20
C620
C620
C320
C1A0
C1A0
C0E0
C060
C060
ENDCHAR
STARTCHAR nacute
ENCODING 324
SWIDTH 551 0
DWIDTH 11 0
BBX 9 16 1 0
BITMAP
0700
0C00
0800
0000
0000
DE00
FF00
E380
C180
C180
C180
C180
C180
C180
C180
C180
ENDCHAR
STARTCHAR uni0145
ENCODING 325
SWIDTH 712 0
DWIDTH 14 0
BBX 11 19 1 -5
BITMAP
E020
E020
F020
D820
D820
CC20
C620
C620
C320
C1A0
C1A0
C0E0
C060
C060
0000
0600
0600
0600
0C00
ENDCHAR
STARTCHAR uni0146
ENCODING 326
SWIDTH 551 0
DWIDTH 11 0
BBX 9 16 1 -5
BITMAP
DE00
FF00
E380
C180
C180
C180
C180
C180
C180
C180
C180
0000
0800
0800
1800
1000
ENDCHAR
STARTCHAR Ncaron
ENCODING 327
SWIDTH 712 0
DWIDTH 14 0
BBX 11 18 1 0
BITMAP
1980
0F00
0600
0000
E020
E020
F020
D820
D820
CC20
C620
C620
C320
C1A0
C1A0
C0E0
C060
C060
ENDCHAR
STARTCHAR ncaron
ENCODING 328
SWIDTH 551 0
DWIDTH 11 0
BBX 9 16 1 0
BITMAP
3300
1400
0C00
0000
0000
DE00
FF00
E380
C180
C180
C180
C180
C180
C180
C180
C180
ENDCHAR
STARTCHAR napostrophe
ENCODING 329
SWIDTH 551 0
DWIDTH 11 0
BBX 11 15 -1 0
BITMAP
6000
6000
4000
C000
3780
3FC0
38E0
3060
3060
3060
3060
3060
3060
3060
3060
ENDCHAR
STARTCHAR Eng
ENCODING 330
SWIDTH 692 0
DWIDTH 14 0
BBX 10 18 2 -4
BITMAP
C040
E040
E040
F040
F040
D840
CC40
C440
C640
C340
C140
C1C0
C0C0
C040
0040
00C0
03C0
0380
ENDCHAR
STARTCHAR eng
ENCODING 331
SWIDTH 566 0
DWIDTH 11 0
BBX 9 15 1 -4
BITMAP
DE00
FF00
E300
C180
C180
C180
C180
C180
C180
C180
C180
0180
0180
0700
0E00
ENDCHAR
STARTCHAR Omacron
ENCODING 332
SWIDTH 687 0
DWIDTH 14 0
BBX 12 17 1 0
BITMAP
1F80
1F80
0000
1F00
3FC0
70E0
6060
C060
C030
C030
C030
C030
C060
6060
70E0
3FC0
1F00
ENDCHAR
STARTCHAR omacron
ENCODING 333
SWIDTH 570 0
DWIDTH 11 0
BBX 9 14 1 0
BITMAP
7F00
7F00
0000
3E00
7F00
E380
C180
C180
C180
C180
C180
E380
7F00
3E00
ENDCHAR
STARTCHAR Obreve
ENCODING 334
SWIDTH 687 0
DWIDTH 14 0
BBX 12 17 1 0
BITMAP
1980
0F00
0000
1F00
3FC0
70E0
6060
C060
C030
C030
C030
C030
C060
6060
70E0
3FC0
1F00
ENDCHAR
STARTCHAR obreve
ENCODING 335
SWIDTH 570 0
DWIDTH 11 0
BBX 9 14 1 0
BITMAP
3300
1E00
0000
3E00
7F00
E380
C180
C180
C180
C180
C180
E380
7F00
3E00
ENDCHAR
STARTCHAR Ohungarumlaut
ENCODING 336
SWIDTH 687 0
DWIDTH 14 0
BBX 12 18 1 0
BITMAP
06C0
0D80
1B00
0000
1F00
3FC0
70E0
6060
C060
C030
C030
C030
C030
C060
6060
70E0
3FC0
1F00
ENDCHAR
STARTCHAR ohungarumlaut
ENCODING 337
SWIDTH 570 0
DWIDTH 11 0
BBX 9 16 1 0
BITMAP
0D80
1B00
3600
0000
0000
3E00
7F00
E380
C180
C180
C180
C180
C180
E380
7F00
3E00
ENDCHAR
STARTCHAR OE
ENCODING 338
SWIDTH 953 0
DWIDTH 19 0
BBX 17 14 1 0
BITMAP
1FFF00
3FFF00
608000
C08000
C08000
C08000
C0FF00
C0FF00
C08000
C08000
C08000
608000
3FFF80
1FFF80
ENDCHAR
STARTCHAR oe
ENCODING 339
SWIDTH 908 0
DWIDTH 18 0
BBX 16 11 1 0
BITMAP
3E3C
7F7E
63C3
C1C1
C1FF
C1FF
C180
C1C0
E3E2
7F7F
3E3E
ENDCHAR
STARTCHAR Racute
ENCODING 340
SWIDTH 615 0
DWIDTH 12 0
BBX 11 18 1 0
BITMAP
0700
0600
0C00
0000
FF00
FF80
C1C0
C0C0
C0C0
C0C0
C1C0
FF80
FF00
C300
C180
C180
C0C0
C0E0
ENDCHAR
STARTCHAR racute
ENCODING 341
SWIDTH 338 0
DWIDTH 7 0
BBX 6 16 1 0
BITMAP
1C
18
30
00
00
DC
FC
E0
C0
C0
C0
C0
C0
C0
C0
C0
ENDCHAR
STARTCHAR uni0156
ENCODING 342
SWIDTH 615 0
DWIDTH 12 0
BBX 11 19 1 -5
BITMAP
FF00
FF80
C1C0
C0C0
C0C0
C0C0
C1C0
FF80
FF00
C300
C180
C180
C0C0
C0E0
0000
0C00
0C00
0800
1800
ENDCHAR
STARTCHAR uni0157
ENCODING 343
SWIDTH 338 0
DWIDTH 7 0
BBX 6 16 1 -5
BITMAP
DC
FC
E0
C0
C0
C0
C0
C0
C0
C0
C0
00
40
C0
C0
80
ENDCHAR
STARTCHAR Rcaron
ENCODING 344
SWIDTH 615 0
DWIDTH 12 0
BBX 11 18 1 0
BITMAP
3300
1E00
0C00
0000
FF00
FF80
C1C0
C0C0
C0C0
C0C0
C1C0
FF80
FF00
C300
C180
C180
C0C0
C0E0
ENDCHAR
STARTCHAR rcaron
ENCODING 345
SWIDTH 338 0
DWIDTH 7 0
BBX 6 16 1 0
BITMAP
CC
78
30
00
00
DC
FC
E0
C0
C0
C0
C0
C0
C0
C0
C0
ENDCHAR
STARTCHAR Sacute
ENCODING 346
SWIDTH 593 0
DWIDTH 12 0
BBX 10 18 1 0
BITMAP
0300
0600
0C00
0000
1F00
7F80
61C0
C0C0
C000
7000
3E00
0F80
01C0
00C0
C0C0
E1C0
7F80
1F00
ENDCHAR
STARTCHAR sacute
ENCODING 347
SWIDTH 515 0
DWIDTH 10 0
BBX 8 16 1 0
BITMAP
07
0C
18
00
00
3C
7E
C3
C0
78
3E
07
03
C3
FF
3C
ENDCHAR
STARTCHAR Scircumflex
ENCODING 348
SWIDTH 593 0
DWIDTH 12 0
BBX 10 18 1 0
BITMAP
0C00
1E00
3300
0000
1F00
7F80
61C0
C0C0
C000
7000
3E00
0F80
01C0
00C0
C0C0
E1C0
7F80
1F00
ENDCHAR
STARTCHAR scircumflex
ENCODING 349
SWIDTH 515 0
DWIDTH 10 0
BBX 8 16 1 0
BITMAP
1C
36
22
00
00
3C
7E
C3
C0
78
3E
07
03
C3
FF
3C
ENDCHAR
STARTCHAR Scedilla
ENCODING 350
SWIDTH 593 0
DWIDTH 12 0
BBX 10 18 1 -4
BITMAP
1F00
7F80
61C0
C0C0
C000
7000
3E00
0F80
01C0
00C0
C0C0
E1C0
7F80
1F00
0C00
0600
0200
0C00
ENDCHAR
STARTCHAR scedilla
ENCODING 351
SWIDTH 515 0
DWIDTH 10 0
BBX 8 15 1 -4
BITMAP
3C
7E
C3
C0
78
3E
07
03
C3
FF
3C
08
06
06
0C
ENDCHAR
STARTCHAR Scaron
ENCODING 352
SWIDTH 593 0
DWIDTH 12 0
BBX 10 18 1 0
BITMAP
3300
1E00
0C00
0000
1F00
7F80
61C0
C0C0
C000
7000
3E00
0F80
01C0
00C0
C0C0
E1C0
7F80
1F00
ENDCHAR
STARTCHAR scaron
ENCODING 353
SWIDTH 515 0
DWIDTH 10 0
BBX 8 16 1 0
BITMAP
63
14
18
00
00
3C
7E
C3
C0
78
3E
07
03
C3
FF
3C
ENDCHAR
STARTCHAR uni0162
ENCODING 354
SWIDTH 596 0
DWIDTH 12 0
BBX 11 18 0 -4
BITMAP
FFE0
FFE0
0600
0600
0600
0600
0600
0600
0600
0600
0600
0600
0600
0600
0600
0300
0100
0600
ENDCHAR
STARTCHAR uni0163
ENCODING 355
SWIDTH 326 0
DWIDTH 7 0
BBX 7 18 0 -4
BITMAP
30
30
30
FC
FC
30
30
30
30
30
30
30
3C
1C
08
04
06
1C
ENDCHAR
STARTCHAR Tcaron
ENCODING 356
SWIDTH 596 0
DWIDTH 12 0
BBX 11 18 0 0
BITMAP
1980
0F00
0600
0000
FFE0
FFE0
0600
0600
0600
0600
0600
0600
0600
0600
0600
0600
0600
0600
ENDCHAR
STARTCHAR tcaron
ENCODING 357
SWIDTH 346 0
DWIDTH 7 0
BBX 7 16 0 0
BITMAP
02
02
36
34
30
FC
FC
30
30
30
30
30
30
30
3C
1C
ENDCHAR
STARTCHAR Tbar
ENCODING 358
SWIDTH 596 0
DWIDTH 12 0
BBX 11 14 0 0
BITMAP
FFE0
FFE0
0600
0600
0600
1F80
1F80
0600
0600
0600
0600
0600
0600
0600
ENDCHAR
STARTCHAR tbar
ENCODING 359
SWIDTH 326 0
DWIDTH 7 0
BBX 6 14 0 0
BITMAP
30
30
30
FC
FC
30
FC
FC
30
30
30
30
3C
1C
ENDCHAR
STARTCHAR Utilde
ENCODING 360
SWIDTH 648 0
DWIDTH 13 0
BBX 11 17 1 0
BITMAP
1C80
2700
0000
C060
C060
C060
C060
C060
C060
C060
C060
C060
C060
E0E0
60C0
3F80
1F00
ENDCHAR
STARTCHAR utilde
ENCODING 361
SWIDTH 551 0
DWIDTH 11 0
BBX 9 15 1 0
BITMAP
3900
4E00
0000
0000
C180
C180
C180
C180
C180
C180
C180
C180
E380
7F80
3D80
ENDCHAR
STARTCHAR Umacron
ENCODING 362
SWIDTH 648 0
DWIDTH 13 0
BBX 11 17 1 0
BITMAP
3F80
3F80
0000
C060
C060
C060
C060
C060
C060
C060
C060
C060
C060
E0E0
60C0
3F80
1F00
ENDCHAR
STARTCHAR umacron
ENCODING 363
SWIDTH 551 0
DWIDTH 11 0
BBX 9 14 1 0
BITMAP
7F00
7F00
0000
C180
C180
C180
C180
C180
C180
C180
C180
E380
7F80
3D80
ENDCHAR
STARTCHAR Ubreve
ENCODING 364
SWIDTH 648 0
DWIDTH 13 0
BBX 11 17 1 0
BITMAP
1180
0F00
0000
C060
C060
C060
C060
C060
C060
C060
C060
C060
C060
E0E0
60C0
3F80
1F00
ENDCHAR
STARTCHAR ubreve
ENCODING 365
SWIDTH 551 0
DWIDTH 11 0
BBX 9 14 1 0
BITMAP
2300
1E00
0000
C180
C180
C180
C180
C180
C180
C180
C180
E380
7F80
3D80
ENDCHAR
STARTCHAR Uring
ENCODING 366
SWIDTH 648 0
DWIDTH 13 0
BBX 11 19 1 0
BITMAP
0E00
0900
0900
0E00
0000
C060
C060
C060
C060
C060
C060
C060
C060
C060
C060
E0E0
60C0
3F80
1F00
ENDCHAR
STARTCHAR uring
ENCODING 367
SWIDTH 551 0
DWIDTH 11 0
BBX 9 16 1 0
BITMAP
1C00
1200
1200
1C00
0000
C180
C180
C180
C180
C180
C180
C180
C180
E380
7F80
3D80
ENDCHAR
STARTCHAR Uhungarumlaut
ENCODING 368
SWIDTH 648 0
DWIDTH 13 0
BBX 11 18 1 0
BITMAP
0EC0
0D80
1B00
0000
C060
C060
C060
C060
C060
C060
C060
C060
C060
C060
E0E0
60C0
3F80
1F00
ENDCHAR
STARTCHAR uhungarumlaut
ENCODING 369
SWIDTH 551 0
DWIDTH 11 0
BBX 9 16 1 0
BITMAP
1D80
1B00
3600
0000
0000
C180
C180
C180
C180
C180
C180
C180
C180
E380
7F80
3D80
ENDCHAR
STARTCHAR Uogonek
ENCODING 370
SWIDTH 648 0
DWIDTH 13 0
BBX 11 18 1 -4
BITMAP
C060
C060
C060
C060
C060
C060
C060
C060
C060
C060
E0E0
60C0
7F80
1F00
0600
0600
0600
0700
ENDCHAR
STARTCHAR uogonek
ENCODING 371
SWIDTH 551 0
DWIDTH 11 0
BBX 9 15 1 -4
BITMAP
C180
C180
C180
C180
C180
C180
C180
C180
E380
7F80
3D80
0300
0600
0600
0380
ENDCHAR
STARTCHAR Wcircumflex
ENCODING 372
SWIDTH 887 0
DWIDTH 18 0
BBX 16 18 1 0
BITMAP
0180
03C0
0660
0000
C183
C183
C383
C3C2
63C6
6246
6666
6664
242C
3C2C
3C3C
3838
1818
1818
ENDCHAR
STARTCHAR wcircumflex
ENCODING 373
SWIDTH 751 0
DWIDTH 15 0
BBX 15 16 0 0
BITMAP
0380
06C0
0440
0000
0000
C106
638C
638C
628C
26C8
36D8
3458
3450
1C70
1830
1830
ENDCHAR
STARTCHAR Ycircumflex
ENCODING 374
SWIDTH 600 0
DWIDTH 12 0
BBX 12 18 0 0
BITMAP
0600
0F00
1980
0000
E070
6060
30C0
30C0
1980
1980
0F00
0F00
0600
0600
0600
0600
0600
0600
ENDCHAR
STARTCHAR ycircumflex
ENCODING 375
SWIDTH 473 0
DWIDTH 9 0
BBX 9 20 0 -4
BITMAP
0C00
1E00
3300
0000
0000
C180
4100
6300
6300
2200
3600
3600
1400
1C00
1C00
0800
1800
1800
7000
6000
ENDCHAR
STARTCHAR Ydieresis
ENCODING 376
SWIDTH 600 0
DWIDTH 12 0
BBX 12 17 0 0
BITMAP
1980
1980
0000
E070
6060
30C0
30C0
1980
1980
0F00
0F00
0600
0600
0600
0600
0600
0600
ENDCHAR
STARTCHAR Zacute
ENCODING 377
SWIDTH 598 0
DWIDTH 12 0
BBX 10 18 1 0
BITMAP
0300
0600
0C00
0000
FFC0
FFC0
0180
0380
0300
0600
0C00
1C00
1800
3000
6000
C000
FFC0
FFC0
ENDCHAR
STARTCHAR zacute
ENCODING 378
SWIDTH 495 0
DWIDTH 10 0
BBX 8 16 1 0
BITMAP
06
0C
18
00
00
FF
FF
06
0E
0C
18
30
60
C0
FF
FF
ENDCHAR
STARTCHAR Zdotaccent
ENCODING 379
SWIDTH 598 0
DWIDTH 12 0
BBX 10 17 1 0
BITMAP
0C00
0C00
0000
FFC0
FFC0
0180
0380
0300
0600
0C00
1C00
1800
3000
6000
C000
FFC0
FFC0
ENDCHAR
STARTCHAR zdotaccent
ENCODING 380
SWIDTH 495 0
DWIDTH 10 0
BBX 8 15 1 0
BITMAP
18
18
00
00
FF
FF
06
0E
0C
18
30
60
C0
FF
FF
ENDCHAR
STARTCHAR Zcaron
ENCODING 381
SWIDTH 598 0
DWIDTH 12 0
BBX 10 18 1 0
BITMAP
3300
1E00
0C00
0000
FFC0
FFC0
0180
0380
0300
0600
0C00
1C00
1800
3000
6000
C000
FFC0
FFC0
ENDCHAR
STARTCHAR zcaron
ENCODING 382
SWIDTH 495 0
DWIDTH 10 0
BBX 8 16 1 0
BITMAP
66
3C
18
00
00
FF
FF
06
0E
0C
18
30
60
C0
FF
FF
ENDCHAR
STARTCHAR longs
ENCODING 383
SWIDTH 248 0
DWIDTH 5 0
BBX 4 15 2 0
BITMAP
70
F0
C0
80
80
80
80
80
80
80
80
80
80
80
80
ENDCHAR
STARTCHAR uni018F
ENCODING 399
SWIDTH 690 0
DWIDTH 14 0
BBX 12 14 1 0
BITMAP
1F00
7FC0
20E0
0060
0070
0030
0030
FFF0
FFF0
C020
C060
60E0
3FC0
1F00
ENDCHAR
STARTCHAR florin
ENCODING 402
SWIDTH 340 0
DWIDTH 7 0
BBX 7 19 0 -4
BITMAP
0E
1E
30
30
7C
7C
30
30
30
30
30
30
30
30
30
30
30
F0
E0
ENDCHAR
STARTCHAR Ohorn
ENCODING 416
SWIDTH 686 0
DWIDTH 14 0
BBX 13 15 1 0
BITMAP
0018
1F18
3FF0
70E0
6060
C060
C020
C030
C030
C020
C060
6060
70E0
3FC0
1F00
ENDCHAR
STARTCHAR ohorn
ENCODING 417
SWIDTH 571 0
DWIDTH 11 0
BBX 11 12 1 0
BITMAP
0060
3E40
7FC0
E380
C180
C180
8180
C180
C180
E380
7F00
3E00
ENDCHAR
STARTCHAR Uhorn
ENCODING 431
SWIDTH 695 0
DWIDTH 14 0
BBX 14 15 1 0
BITMAP
0004
C064
C06C
C078
C060
C060
C060
C060
C060
C060
C060
6060
70C0
3FC0
1F00
ENDCHAR
STARTCHAR uhorn
ENCODING 432
SWIDTH 618 0
DWIDTH 12 0
BBX 11 12 1 0
BITMAP
0020
C120
C1E0
C100
C100
C100
C100
C100
C100
C300
7F00
3D00
ENDCHAR
STARTCHAR uni01F0
ENCODING 496
SWIDTH 251 0
DWIDTH 5 0
BBX 7 20 -1 -4
BITMAP
66
28
18
00
00
10
10
10
10
10
10
10
10
10
10
10
10
30
F0
E0
ENDCHAR
STARTCHAR Aringacute
ENCODING 506
SWIDTH 652 0
DWIDTH 13 0
BBX 13 19 0 0
BITMAP
0180
0300
0700
0500
0700
0700
0700
0500
0D80
0D80
0880
18C0
18C0
3060
3FE0
3FE0
6030
6030
C018
ENDCHAR
STARTCHAR aringacute
ENCODING 507
SWIDTH 543 0
DWIDTH 11 0
BBX 9 16 1 0
BITMAP
0700
0C00
1C00
1400
1C00
3E00
7F00
C300
0100
3F00
7F00
E100
C100
C300
7F80
3D80
ENDCHAR
STARTCHAR AEacute
ENCODING 508
SWIDTH 934 0
DWIDTH 19 0
BBX 18 18 0 0
BITMAP
003000
006000
00C000
000000
00FFC0
00FFC0
01E000
036000
036000
066000
0E7F80
0C7F80
186000
1FE000
3FE000
702000
603FC0
C03FC0
ENDCHAR
STARTCHAR aeacute
ENCODING 509
SWIDTH 844 0
DWIDTH 17 0
BBX 15 16 1 0
BITMAP
00C0
0180
0300
0000
0000
3C78
FFFC
C386
0306
3FFE
FFFE
C300
C380
C384
FEFE
7C7C
ENDCHAR
STARTCHAR Oslashacute
ENCODING 510
SWIDTH 687 0
DWIDTH 14 0
BBX 12 19 1 -1
BITMAP
0380
0300
0600
0000
0F30
3FE0
7060
60E0
61A0
C130
C230
C630
C430
4C30
7860
70E0
3FC0
2F00
4000
ENDCHAR
STARTCHAR oslashacute
ENCODING 511
SWIDTH 566 0
DWIDTH 11 0
BBX 9 17 1 -1
BITMAP
0600
0C00
1800
0000
0100
3F00
7F00
E380
C580
C580
C880
D980
D180
E380
7F00
3E00
4000
ENDCHAR
STARTCHAR uni0218
ENCODING 536
SWIDTH 593 0
DWIDTH 12 0
BBX 10 19 1 -5
BITMAP
1F00
7F80
61C0
C0C0
C000
7000
3E00
0F80
01C0
00C0
C0C0
E1C0
7F80
1F00
0000
0C00
0C00
0C00
0800
ENDCHAR
STARTCHAR uni0219
ENCODING 537
SWIDTH 515 0
DWIDTH 10 0
BBX 8 17 1 -6
BITMAP
3C
7E
C3
C0
78
3E
07
03
C3
FF
3C
00
00
08
08
18
10
ENDCHAR
STARTCHAR uni021A
ENCODING 538
SWIDTH 596 0
DWIDTH 12 0
BBX 11 19 0 -5
BITMAP
FFE0
FFE0
0600
0600
0600
0600
0600
0600
0600
0600
0600
0600
0600
0600
0000
0600
0600
0400
0C00
ENDCHAR
STARTCHAR uni021B
ENCODING 539
SWIDTH 326 0
DWIDTH 7 0
BBX 6 19 0 -5
BITMAP
30
30
30
FC
FC
30
30
30
30
30
30
30
3C
1C
00
08
18
18
10
ENDCHAR
STARTCHAR uni0237
ENCODING 567
SWIDTH 251 0
DWIDTH 5 0
BBX 4 15 -1 -4
BITMAP
10
10
10
10
10
10
10
10
10
10
10
10
30
F0
E0
ENDCHAR
STARTCHAR uni0259
ENCODING 601
SWIDTH 526 0
DWIDTH 11 0
BBX 9 11 1 0
BITMAP
3C00
FF00
8300
0180
0180
FF80
FF80
C180
6300
7F00
3C00
ENDCHAR
STARTCHAR uni02BC
ENCODING 700
SWIDTH 199 0
DWIDTH 4 0
BBX 3 5 0 10
BITMAP
60
60
60
60
C0
ENDCHAR
STARTCHAR circumflex
ENCODING 710
SWIDTH 470 0
DWIDTH 9 0
BBX 6 3 2 12
BITMAP
30
58
CC
ENDCHAR
STARTCHAR caron
ENCODING 711
SWIDTH 443 0
DWIDTH 9 0
BBX 6 3 1 12
BITMAP
CC
28
30
ENDCHAR
STARTCHAR uni02C9
ENCODING 713
SWIDTH 458 0
DWIDTH 9 0
BBX 7 1 1 12
BITMAP
FE
ENDCHAR
STARTCHAR breve
ENCODING 728
SWIDTH 426 0
DWIDTH 9 0
BBX 6 2 1 12
BITMAP
C4
78
ENDCHAR
STARTCHAR dotaccent
ENCODING 729
SWIDTH 242 0
DWIDTH 5 0
BBX 3 2 1 12
BITMAP
40
E0
ENDCHAR
STARTCHAR ring
ENCODING 730
SWIDTH 334 0
DWIDTH 7 0
BBX 5 4 1 12
BITMAP
70
90
98
70
ENDCHAR
STARTCHAR ogonek
ENCODING 731
SWIDTH 270 0
DWIDTH 5 0
BBX 4 5 0 -4
BITMAP
20
70
C0
C0
70
ENDCHAR
STARTCHAR tilde
ENCODING 732
SWIDTH 471 0
DWIDTH 9 0
BBX 7 2 1 12
BITMAP
72
CC
ENDCHAR
STARTCHAR hungarumlaut
ENCODING 733
SWIDTH 373 0
DWIDTH 7 0
BBX 7 3 1 12
BITMAP
7E
4C
D8
ENDCHAR
STARTCHAR uni02F3
ENCODING 755
SWIDTH 293 0
DWIDTH 6 0
BBX 4 3 1 -4
BITMAP
60
90
60
ENDCHAR
STARTCHAR gravecomb
ENCODING 768
SWIDTH 0 0
DWIDTH 0 0
BBX 4 3 -8 12
BITMAP
C0
60
30
ENDCHAR
STARTCHAR acutecomb
ENCODING 769
SWIDTH 0 0
DWIDTH 0 0
BBX 4 3 -6 12
BITMAP
70
C0
80
ENDCHAR
STARTCHAR tildecomb
ENCODING 771
SWIDTH 0 0
DWIDTH 0 0
BBX 7 2 -9 12
BITMAP
72
CE
ENDCHAR
STARTCHAR hookabovecomb
ENCODING 777
SWIDTH 0 0
DWIDTH 0 0
BBX 3 4 -7 12
BITMAP
E0
20
60
40
ENDCHAR
STARTCHAR uni030F
ENCODING 783
SWIDTH 0 0
DWIDTH 0 0
BBX 8 3 -10 12
BITMAP
EC
36
1B
ENDCHAR
STARTCHAR dotbelowcomb
ENCODING 803
SWIDTH 0 0
DWIDTH 0 0
BBX 2 2 -7 -3
BITMAP
C0
C0
ENDCHAR
STARTCHAR tonos
ENCODING 900
SWIDTH 256 0
DWIDTH 5 0
BBX 2 3 2 12
BITMAP
C0
80
80
ENDCHAR
STARTCHAR dieresistonos
ENCODING 901
SWIDTH 505 0
DWIDTH 10 0
BBX 8 4 1 12
BITMAP
0C
18
DB
C3
ENDCHAR
STARTCHAR Alphatonos
ENCODING 902
SWIDTH 652 0
DWIDTH 13 0
BBX 13 15 0 0
BITMAP
3000
2700
2700
0500
0D80
0D80
0880
18C0
18C0
3060
3FE0
3FE0
6030
6030
C018
ENDCHAR
STARTCHAR anoteleia
ENCODING 903
SWIDTH 261 0
DWIDTH 5 0
BBX 3 2 1 6
BITMAP
C0
E0
ENDCHAR
STARTCHAR Epsilontonos
ENCODING 904
SWIDTH 568 0
DWIDTH 11 0
BBX 13 15 -2 0
BITMAP
C000
CFF8
8FF8
0C00
0C00
0C00
0C00
0FF0
0FF0
0C00
0C00
0C00
0C00
0FF8
0FF8
ENDCHAR
STARTCHAR Etatonos
ENCODING 905
SWIDTH 712 0
DWIDTH 14 0
BBX 15 15 -2 0
BITMAP
C000
CC06
8C06
0C06
0C06
0C06
0C06
0FFE
0FFE
0C06
0C06
0C06
0C06
0C06
0C06
ENDCHAR
STARTCHAR Iotatonos
ENCODING 906
SWIDTH 271 0
DWIDTH 5 0
BBX 6 15 -2 0
BITMAP
40
CC
8C
0C
0C
0C
0C
0C
0C
0C
0C
0C
0C
0C
0C
ENDCHAR
STARTCHAR Omicrontonos
ENCODING 908
SWIDTH 697 0
DWIDTH 14 0
BBX 13 15 0 0
BITMAP
C000
87C0
9FE0
3870
3030
3018
6018
6018
6018
6018
3018
3030
3870
1FE0
07C0
ENDCHAR
STARTCHAR Upsilontonos
ENCODING 910
SWIDTH 649 0
DWIDTH 13 0
BBX 15 15 -2 0
BITMAP
C000
9C0E
8C0C
0618
0618
0330
0330
01E0
01E0
00C0
00C0
00C0
00C0
00C0
00C0
ENDCHAR
STARTCHAR Omegatonos
ENCODING 911
SWIDTH 674 0
DWIDTH 14 0
BBX 12 15 0 0
BITMAP
C000
8F80
9FC0
3860
3030
6030
6030
6030
6030
6030
2030
3060
18C0
7DF0
7DF0
ENDCHAR
STARTCHAR iotadieresistonos
ENCODING 912
SWIDTH 323 0
DWIDTH 6 0
BBX 8 17 -1 0
BITMAP
08
18
DB
C3
00
00
18
18
18
18
18
18
18
18
18
1E
0E
ENDCHAR
STARTCHAR Alpha
ENCODING 913
SWIDTH 652 0
DWIDTH 13 0
BBX 13 14 0 0
BITMAP
0700
0700
0500
0D80
0D80
0880
18C0
18C0
3060
3FE0
3FE0
6030
6030
C018
ENDCHAR
STARTCHAR Beta
ENCODING 914
SWIDTH 622 0
DWIDTH 12 0
BBX 9 14 2 0
BITMAP
FE00
FF00
C380
C180
C180
C380
FF00
FF00
C180
C180
C180
C180
FF80
FE00
ENDCHAR
STARTCHAR Gamma
ENCODING 915
SWIDTH 556 0
DWIDTH 11 0
BBX 8 14 2 0
BITMAP
FF
FF
C0
C0
C0
C0
C0
C0
C0
C0
C0
C0
C0
C0
ENDCHAR
STARTCHAR uni0394
ENCODING 916
SWIDTH 705 0
DWIDTH 14 0
BBX 14 14 0 0
BITMAP
0300
0380
0780
0680
0CC0
0CC0
0860
1860
1020
3030
3030
6018
7FF8
FFFC
ENDCHAR
STARTCHAR Epsilon
ENCODING 917
SWIDTH 568 0
DWIDTH 11 0
BBX 9 14 2 0
BITMAP
FF80
FF80
C000
C000
C000
C000
FF00
FF00
C000
C000
C000
C000
FF80
FF80
ENDCHAR
STARTCHAR Zeta
ENCODING 918
SWIDTH 598 0
DWIDTH 12 0
BBX 10 14 1 0
BITMAP
FFC0
FFC0
0180
0380
0300
0600
0C00
1C00
1800
3000
6000
C000
FFC0
FFC0
ENDCHAR
STARTCHAR Eta
ENCODING 919
SWIDTH 712 0
DWIDTH 14 0
BBX 11 14 2 0
BITMAP
C060
C060
C060
C060
C060
C060
FFE0
FFE0
C060
C060
C060
C060
C060
C060
ENDCHAR
STARTCHAR Theta
ENCODING 920
SWIDTH 680 0
DWIDTH 14 0
BBX 12 14 1 0
BITMAP
0F00
3FC0
70E0
6060
C060
C030
CFB0
CFB0
C030
C060
6060
70E0
3FC0
0F00
ENDCHAR
STARTCHAR Iota
ENCODING 921
SWIDTH 271 0
DWIDTH 5 0
BBX 2 14 2 0
BITMAP
C0
C0
C0
C0
C0
C0
C0
C0
C0
C0
C0
C0
C0
C0
ENDCHAR
STARTCHAR Kappa
ENCODING 922
SWIDTH 626 0
DWIDTH 13 0
BBX 11 14 2 0
BITMAP
C1C0
C180
C300
C600
CC00
D800
F800
EC00
CC00
C600
C300
C380
C180
C0E0
ENDCHAR
STARTCHAR Lambda
ENCODING 923
SWIDTH 655 0
DWIDTH 13 0
BBX 13 14 0 0
BITMAP
0700
0700
0700
0D80
0D80
0D80
18C0
18C0
1040
3060
3060
6030
6030
E038
ENDCHAR
STARTCHAR Mu
ENCODING 924
SWIDTH 873 0
DWIDTH 17 0
BBX 14 14 2 0
BITMAP
C01C
E01C
E03C
B03C
B02C
906C
986C
98CC
CCCC
CC8C
C58C
C70C
C70C
C30C
ENDCHAR
STARTCHAR Nu
ENCODING 925
SWIDTH 712 0
DWIDTH 14 0
BBX 11 14 1 0
BITMAP
E020
E020
F020
D820
D820
CC20
C620
C620
C320
C1A0
C1A0
C0E0
C060
C060
ENDCHAR
STARTCHAR Xi
ENCODING 926
SWIDTH 570 0
DWIDTH 11 0
BBX 9 14 1 0
BITMAP
FF80
FF80
0000
0000
0000
0000
7F00
7F00
0000
0000
0000
0000
FF80
FF80
ENDCHAR
STARTCHAR Omicron
ENCODING 927
SWIDTH 687 0
DWIDTH 14 0
BBX 12 14 1 0
BITMAP
1F00
3FC0
70E0
6060
C060
C030
C030
C030
C030
C060
6060
70E0
3FC0
1F00
ENDCHAR
STARTCHAR Pi
ENCODING 928
SWIDTH 713 0
DWIDTH 14 0
BBX 11 14 2 0
BITMAP
FFE0
FFE0
C060
C060
C060
C060
C060
C060
C060
C060
C060
C060
C060
C060
ENDCHAR
STARTCHAR Rho
ENCODING 929
SWIDTH 630 0
DWIDTH 13 0
BBX 10 14 2 0
BITMAP
FF00
FF80
C1C0
C0C0
C0C0
C0C0
C1C0
FF80
FF00
C000
C000
C000
C000
C000
ENDCHAR
STARTCHAR Sigma
ENCODING 931
SWIDTH 570 0
DWIDTH 11 0
BBX 10 14 1 0
BITMAP
FF80
FF80
C000
6000
3000
1800
0C00
0C00
1800
3000
6000
C000
FFC0
FFC0
ENDCHAR
STARTCHAR Tau
ENCODING 932
SWIDTH 596 0
DWIDTH 12 0
BBX 11 14 0 0
BITMAP
FFE0
FFE0
0600
0600
0600
0600
0600
0600
0600
0600
0600
0600
0600
0600
ENDCHAR
STARTCHAR Upsilon
ENCODING 933
SWIDTH 600 0
DWIDTH 12 0
BBX 12 14 0 0
BITMAP
E070
6060
30C0
30C0
1980
1980
0F00
0F00
0600
0600
0600
0600
0600
0600
ENDCHAR
STARTCHAR Phi
ENCODING 934
SWIDTH 716 0
DWIDTH 14 0
BBX 13 14 1 0
BITMAP
0600
0600
1F80
7FE0
E670
C630
C610
C618
C630
E670
7FE0
1FC0
0600
0600
ENDCHAR
STARTCHAR Chi
ENCODING 935
SWIDTH 626 0
DWIDTH 13 0
BBX 11 14 1 0
BITMAP
C0E0
60C0
6180
3180
1B00
1E00
0E00
0E00
1E00
3B00
3180
6180
60C0
C0E0
ENDCHAR
STARTCHAR Psi
ENCODING 936
SWIDTH 691 0
DWIDTH 14 0
BBX 12 14 1 0
BITMAP
C630
C630
C630
C630
C630
C630
C630
E670
76E0
3FC0
1F80
0600
0600
0600
ENDCHAR
STARTCHAR uni03A9
ENCODING 937
SWIDTH 665 0
DWIDTH 13 0
BBX 11 14 1 0
BITMAP
1F00
3F80
61C0
E0C0
C060
C060
C060
C060
C060
C040
60C0
3180
FBE0
FBE0
ENDCHAR
STARTCHAR Iotadieresis
ENCODING 938
SWIDTH 271 0
DWIDTH 5 0
BBX 6 17 0 0
BITMAP
CC
CC
00
30
30
30
30
30
30
30
30
30
30
30
30
30
30
ENDCHAR
STARTCHAR Upsilondieresis
ENCODING 939
SWIDTH 600 0
DWIDTH 12 0
BBX 12 17 0 0
BITMAP
1980
1980
0000
E070
6060
30C0
30C0
1980
1980
0F00
0F00
0600
0600
0600
0600
0600
0600
ENDCHAR
STARTCHAR alphatonos
ENCODING 940
SWIDTH 564 0
DWIDTH 11 0
BBX 10 16 1 0
BITMAP
0600
0400
0C00
0000
0000
3D80
7F80
E380
C180
C180
C180
C180
C180
E380
7FC0
3CC0
ENDCHAR
STARTCHAR epsilontonos
ENCODING 941
SWIDTH 539 0
DWIDTH 11 0
BBX 9 16 1 0
BITMAP
0C00
0800
0800
0000
0000
3E00
7F00
C180
C000
7C00
7C00
C000
C000
E180
7F00
3E00
ENDCHAR
STARTCHAR etatonos
ENCODING 942
SWIDTH 566 0
DWIDTH 11 0
BBX 9 20 1 -4
BITMAP
0C00
0C00
0800
0000
0000
DE00
FF00
E380
C180
C180
C180
C180
C180
C180
C180
C180
0180
0180
0180
0180
ENDCHAR
STARTCHAR iotatonos
ENCODING 943
SWIDTH 323 0
DWIDTH 6 0
BBX 4 16 2 0
BITMAP
40
C0
80
00
00
C0
C0
C0
C0
C0
C0
C0
C0
C0
F0
70
ENDCHAR
STARTCHAR upsilondieresistonos
ENCODING 944
SWIDTH 545 0
DWIDTH 11 0
BBX 9 17 1 0
BITMAP
0C00
0800
4B00
E300
0000
0000
C300
C100
C180
C180
C180
C180
C180
C180
6300
7F00
3C00
ENDCHAR
STARTCHAR alpha
ENCODING 945
SWIDTH 564 0
DWIDTH 11 0
BBX 10 11 1 0
BITMAP
3D80
7F80
E380
C180
C180
C180
C180
C180
E380
7FC0
3CC0
ENDCHAR
STARTCHAR beta
ENCODING 946
SWIDTH 592 0
DWIDTH 12 0
BBX 9 18 2 -4
BITMAP
3C00
7E00
C300
C300
8300
8300
9E00
9F00
8300
8180
8180
C380
FF00
BE00
8000
8000
8000
8000
ENDCHAR
STARTCHAR gamma
ENCODING 947
SWIDTH 500 0
DWIDTH 10 0
BBX 10 15 0 -4
BITMAP
C0C0
6180
6180
3100
3300
3300
1A00
1E00
0E00
0C00
0C00
0C00
0C00
0C00
0C00
ENDCHAR
STARTCHAR delta
ENCODING 948
SWIDTH 566 0
DWIDTH 11 0
BBX 9 15 1 0
BITMAP
3E00
7E00
6200
6000
3C00
3E00
6300
C180
C180
C180
C180
C180
E380
7F00
3E00
ENDCHAR
STARTCHAR epsilon
ENCODING 949
SWIDTH 539 0
DWIDTH 11 0
BBX 9 11 1 0
BITMAP
3E00
7F00
C180
C000
7C00
7C00
C000
C000
E180
7F00
3E00
ENDCHAR
STARTCHAR zeta
ENCODING 950
SWIDTH 518 0
DWIDTH 10 0
BBX 8 18 1 -4
BITMAP
FF
FF
02
0E
1C
18
30
60
60
40
60
60
7C
1E
03
03
02
06
ENDCHAR
STARTCHAR eta
ENCODING 951
SWIDTH 566 0
DWIDTH 11 0
BBX 9 15 1 -4
BITMAP
DE00
FF00
E380
C180
C180
C180
C180
C180
C180
C180
C180
0180
0180
0180
0180
ENDCHAR
STARTCHAR theta
ENCODING 952
SWIDTH 569 0
DWIDTH 11 0
BBX 9 14 1 0
BITMAP
3E00
7F00
6300
C180
C180
C180
FF80
FF80
C180
C180
C180
6300
7F00
3E00
ENDCHAR
STARTCHAR iota
ENCODING 953
SWIDTH 323 0
DWIDTH 6 0
BBX 4 11 2 0
BITMAP
C0
C0
C0
C0
C0
C0
C0
C0
C0
F0
70
ENDCHAR
STARTCHAR kappa
ENCODING 954
SWIDTH 556 0
DWIDTH 11 0
BBX 10 11 1 0
BITMAP
C180
C300
C600
CC00
F800
F800
CC00
C600
C700
C300
C1C0
ENDCHAR
STARTCHAR lambda
ENCODING 955
SWIDTH 553 0
DWIDTH 11 0
BBX 11 15 0 0
BITMAP
3000
3800
1800
0C00
0C00
0C00
0E00
1E00
1B00
3300
3300
3180
6180
60C0
E0E0
ENDCHAR
STARTCHAR uni03BC
ENCODING 956
SWIDTH 566 0
DWIDTH 11 0
BBX 9 15 1 -4
BITMAP
C180
C180
C180
C180
C180
C180
C180
C180
E380
FF80
FD80
C000
C000
C000
C000
ENDCHAR
STARTCHAR nu
ENCODING 957
SWIDTH 484 0
DWIDTH 10 0
BBX 9 11 0 0
BITMAP
C180
6180
6180
2100
3300
3300
1200
1E00
1E00
0C00
0C00
ENDCHAR
STARTCHAR xi
ENCODING 958
SWIDTH 490 0
DWIDTH 10 0
BBX 8 18 1 -4
BITMAP
1F
7F
60
60
60
3E
3E
60
C0
C0
C0
E0
7C
1F
03
03
03
06
ENDCHAR
STARTCHAR omicron
ENCODING 959
SWIDTH 570 0
DWIDTH 11 0
BBX 9 11 1 0
BITMAP
3E00
7F00
E380
C180
C180
C180
C180
C180
E380
7F00
3E00
ENDCHAR
STARTCHAR pi
ENCODING 960
SWIDTH 595 0
DWIDTH 12 0
BBX 12 11 0 0
BITMAP
FFE0
FFE0
30C0
30C0
30C0
30C0
30C0
30C0
30C0
30F0
3070
ENDCHAR
STARTCHAR rho
ENCODING 961
SWIDTH 566 0
DWIDTH 11 0
BBX 9 15 1 -4
BITMAP
1E00
7F00
6380
C180
C180
C180
C180
C180
E380
FF00
DE00
C000
C000
C000
C000
ENDCHAR
STARTCHAR sigma1
ENCODING 962
SWIDTH 537 0
DWIDTH 11 0
BBX 9 15 1 -4
BITMAP
1E00
7F00
6380
C180
C000
C000
C000
C000
7000
3E00
1F00
0300
0300
0300
0600
ENDCHAR
STARTCHAR sigma
ENCODING 963
SWIDTH 566 0
DWIDTH 11 0
BBX 10 11 1 0
BITMAP
3FC0
7FC0
E300
C180
C180
C180
C180
C180
E380
7F00
3E00
ENDCHAR
STARTCHAR tau
ENCODING 964
SWIDTH 521 0
DWIDTH 10 0
BBX 8 11 1 0
BITMAP
FF
FF
18
18
18
18
18
18
18
1E
0E
ENDCHAR
STARTCHAR upsilon
ENCODING 965
SWIDTH 545 0
DWIDTH 11 0
BBX 9 11 1 0
BITMAP
C300
C100
C180
C180
C180
C180
C180
C180
6300
7F00
3C00
ENDCHAR
STARTCHAR phi
ENCODING 966
SWIDTH 704 0
DWIDTH 14 0
BBX 12 16 1 -5
BITMAP
2380
67E0
C660
C630
C630
C630
C630
C630
7660
7FE0
1F80
0600
0600
0600
0600
0600
ENDCHAR
STARTCHAR chi
ENCODING 967
SWIDTH 495 0
DWIDTH 10 0
BBX 11 15 0 -4
BITMAP
E0C0
F180
3180
1B00
1B00
0E00
0E00
0C00
0E00
1E00
1B00
3300
3180
61E0
60C0
ENDCHAR
STARTCHAR psi
ENCODING 968
SWIDTH 700 0
DWIDTH 14 0
BBX 12 16 1 -5
BITMAP
C660
C630
C630
C630
C630
C630
C630
C630
76E0
7FE0
1F80
0600
0600
0600
0600
0600
ENDCHAR
STARTCHAR omega
ENCODING 969
SWIDTH 823 0
DWIDTH 16 0
BBX 14 11 1 0
BITMAP
6018
4018
C00C
C30C
C30C
C30C
C30C
C30C
E798
7FF8
3CF0
ENDCHAR
STARTCHAR iotadieresis
ENCODING 970
SWIDTH 323 0
DWIDTH 6 0
BBX 6 15 0 0
BITMAP
CC
CC
00
00
30
30
30
30
30
30
30
30
30
3C
1C
ENDCHAR
STARTCHAR upsilondieresis
ENCODING 971
SWIDTH 545 0
DWIDTH 11 0
BBX 9 15 1 0
BITMAP
6600
6600
0000
0000
C300
C100
C180
C180
C180
C180
C180
C180
6300
7F00
3C00
ENDCHAR
STARTCHAR omicrontonos
ENCODING 972
SWIDTH 570 0
DWIDTH 11 0
BBX 9 16 1 0
BITMAP
0C00
0C00
0800
0000
0000
3E00
7F00
E380
C180
C180
C180
C180
C180
E380
7F00
3E00
ENDCHAR
STARTCHAR upsilontonos
ENCODING 973
SWIDTH 545 0
DWIDTH 11 0
BBX 9 16 1 0
BITMAP
0C00
0800
0800
0000
0000
C300
C100
C180
C180
C180
C180
C180
C180
6300
7F00
3C00
ENDCHAR
STARTCHAR omegatonos
ENCODING 974
SWIDTH 823 0
DWIDTH 16 0
BBX 14 16 1 0
BITMAP
0180
0100
0100
0000
0000
6018
4018
C00C
C30C
C30C
C30C
C30C
C30C
E798
7FF8
3CF0
ENDCHAR
STARTCHAR theta1
ENCODING 977
SWIDTH 578 0
DWIDTH 12 0
BBX 10 14 1 0
BITMAP
0F00
1F80
1980
3180
1180
1980
1D80
CFC0
C3C0
C180
C180
6180
7F00
1E00
ENDCHAR
STARTCHAR Upsilon1
ENCODING 978
SWIDTH 532 0
DWIDTH 11 0
BBX 11 14 0 0
BITMAP
E060
E0E0
3180
3180
1B80
1B00
0B00
0E00
0E00
0400
0400
0400
0400
0400
ENDCHAR
STARTCHAR omega1
ENCODING 982
SWIDTH 785 0
DWIDTH 16 0
BBX 14 11 1 0
BITMAP
FFFC
FFFC
6018
400C
C30C
C30C
C30C
430C
6798
7FF8
3CF0
ENDCHAR
STARTCHAR uni0400
ENCODING 1024
SWIDTH 568 0
DWIDTH 11 0
BBX 9 18 2 0
BITMAP
7000
3000
1800
0000
FF80
FF80
C000
C000
C000
C000
FF00
FF00
C000
C000
C000
C000
FF80
FF80
ENDCHAR
STARTCHAR uni0401
ENCODING 1025
SWIDTH 568 0
DWIDTH 11 0
BBX 9 17 2 0
BITMAP
6600
6600
0000
FF80
FF80
C000
C000
C000
C000
FF00
FF00
C000
C000
C000
C000
FF80
FF80
ENDCHAR
STARTCHAR uni0402
ENCODING 1026
SWIDTH 749 0
DWIDTH 15 0
BBX 14 14 0 0
BITMAP
FFE0
FFE0
0C00
0C00
0C00
0FF0
0FF8
0C1C
0C0C
0C0C
0C0C
0C1C
0C78
0C70
ENDCHAR
STARTCHAR uni0403
ENCODING 1027
SWIDTH 556 0
DWIDTH 11 0
BBX 8 18 2 0
BITMAP
06
0C
18
00
FF
FF
C0
C0
C0
C0
C0
C0
C0
C0
C0
C0
C0
C0
ENDCHAR
STARTCHAR uni0404
ENCODING 1028
SWIDTH 673 0
DWIDTH 13 0
BBX 11 14 1 0
BITMAP
1F00
3FC0
70C0
E060
C060
C000
FE00
FE00
C000
C060
C060
60C0
3FC0
1F00
ENDCHAR
STARTCHAR uni0405
ENCODING 1029
SWIDTH 593 0
DWIDTH 12 0
BBX 10 14 1 0
BITMAP
1F00
7F80
61C0
C0C0
C000
7000
3E00
0F80
01C0
00C0
C0C0
E1C0
7F80
1F00
ENDCHAR
STARTCHAR uni0406
ENCODING 1030
SWIDTH 271 0
DWIDTH 5 0
BBX 2 14 2 0
BITMAP
C0
C0
C0
C0
C0
C0
C0
C0
C0
C0
C0
C0
C0
C0
ENDCHAR
STARTCHAR uni0407
ENCODING 1031
SWIDTH 271 0
DWIDTH 5 0
BBX 6 17 0 0
BITMAP
CC
CC
00
30
30
30
30
30
30
30
30
30
30
30
30
30
30
ENDCHAR
STARTCHAR uni0408
ENCODING 1032
SWIDTH 551 0
DWIDTH 11 0
BBX 9 14 1 0
BITMAP
0180
0180
0180
0180
0180
0180
0180
0180
0180
0180
8300
C300
FF00
3C00
ENDCHAR
STARTCHAR uni0409
ENCODING 1033
SWIDTH 1070 0
DWIDTH 21 0
BBX 20 14 0 0
BITMAP
1FF000
1FF000
183000
183000
183000
183FC0
183FE0
183070
183030
183030
183030
303070
F03FE0
E03FC0
ENDCHAR
STARTCHAR uni040A
ENCODING 1034
SWIDTH 1080 0
DWIDTH 22 0
BBX 19 14 2 0
BITMAP
C06000
C06000
C06000
C06000
C06000
C06000
FFFF80
FFFFC0
C060E0
C06060
C06060
C060E0
C07FC0
C07F80
ENDCHAR
STARTCHAR uni040B
ENCODING 1035
SWIDTH 813 0
DWIDTH 16 0
BBX 14 14 0 0
BITMAP
FFE0
FFE0
0C00
0C00
0C00
0FF0
0FFC
0C0C
0C0C
0C04
0C04
0C04
0C04
0C04
ENDCHAR
STARTCHAR uni040C
ENCODING 1036
SWIDTH 626 0
DWIDTH 13 0
BBX 11 18 2 0
BITMAP
0E00
0C00
1800
0000
C1C0
C180
C300
C600
CC00
D800
F800
EC00
CC00
C600
C300
C380
C180
C0E0
ENDCHAR
STARTCHAR uni040D
ENCODING 1037
SWIDTH 712 0
DWIDTH 14 0
BBX 10 18 2 0
BITMAP
3800
1800
0C00
0000
C0C0
C0C0
C1C0
C340
C340
C640
C440
CC40
D840
D040
F040
E040
E040
C040
ENDCHAR
STARTCHAR uni040E
ENCODING 1038
SWIDTH 628 0
DWIDTH 13 0
BBX 11 17 1 0
BITMAP
1100
0F00
0000
C060
60E0
60C0
30C0
3180
1980
1B00
0F00
0E00
0E00
0600
0C00
3C00
3800
ENDCHAR
STARTCHAR uni040F
ENCODING 1039
SWIDTH 712 0
DWIDTH 14 0
BBX 10 18 2 -4
BITMAP
C040
C040
C040
C040
C040
C040
C040
C040
C040
C040
C040
C040
FFC0
FFC0
0C00
0C00
0C00
0C00
ENDCHAR
STARTCHAR uni0410
ENCODING 1040
SWIDTH 652 0
DWIDTH 13 0
BBX 13 14 0 0
BITMAP
0700
0700
0500
0D80
0D80
0880
18C0
18C0
3060
3FE0
3FE0
6030
6030
C018
ENDCHAR
STARTCHAR uni0411
ENCODING 1041
SWIDTH 630 0
DWIDTH 13 0
BBX 10 14 2 0
BITMAP
FF80
FF80
C000
C000
C000
C000
FF00
FF80
C1C0
C0C0
C0C0
C1C0
FF80
FF00
ENDCHAR
STARTCHAR uni0412
ENCODING 1042
SWIDTH 622 0
DWIDTH 12 0
BBX 9 14 2 0
BITMAP
FE00
FF00
C380
C180
C180
C380
FF00
FF00
C180
C180
C180
C180
FF80
FE00
ENDCHAR
STARTCHAR uni0413
ENCODING 1043
SWIDTH 556 0
DWIDTH 11 0
BBX 8 14 2 0
BITMAP
FF
FF
C0
C0
C0
C0
C0
C0
C0
C0
C0
C0
C0
C0
ENDCHAR
STARTCHAR uni0414
ENCODING 1044
SWIDTH 751 0
DWIDTH 15 0
BBX 14 18 0 -4
BITMAP
0FF8
0FF8
0C18
0C18
0C18
0C18
0C18
0C18
1818
1818
1818
3018
FFFC
FFFC
C004
C004
C004
C004
ENDCHAR
STARTCHAR uni0415
ENCODING 1045
SWIDTH 568 0
DWIDTH 11 0
BBX 9 14 2 0
BITMAP
FF80
FF80
C000
C000
C000
C000
FF00
FF00
C000
C000
C000
C000
FF80
FF80
ENDCHAR
STARTCHAR uni0416
ENCODING 1046
SWIDTH 907 0
DWIDTH 18 0
BBX 18 14 0 0
BITMAP
60C1C0
30C380
30C300
18C600
0CC600
0CCC00
07F800
07FC00
0CCC00
1CC600
18C700
30C300
70C180
E0C1C0
ENDCHAR
STARTCHAR uni0417
ENCODING 1047
SWIDTH 593 0
DWIDTH 12 0
BBX 10 14 1 0
BITMAP
3F00
7F80
E1C0
C0C0
00C0
0180
1F00
1F80
01C0
00C0
C0C0
E1C0
7F80
3F00
ENDCHAR
STARTCHAR uni0418
ENCODING 1048
SWIDTH 712 0
DWIDTH 14 0
BBX 10 14 2 0
BITMAP
C0C0
C0C0
C1C0
C340
C340
C640
C440
CC40
D840
D040
F040
E040
E040
C040
ENDCHAR
STARTCHAR uni0419
ENCODING 1049
SWIDTH 712 0
DWIDTH 14 0
BBX 10 17 2 0
BITMAP
3100
1E00
0000
C0C0
C0C0
C1C0
C340
C340
C640
C440
CC40
D840
D040
F040
E040
E040
C040
ENDCHAR
STARTCHAR uni041A
ENCODING 1050
SWIDTH 642 0
DWIDTH 13 0
BBX 11 14 2 0
BITMAP
C0C0
C180
C300
C700
CE00
DC00
F800
FC00
CC00
C600
C700
C380
C1C0
C0E0
ENDCHAR
STARTCHAR uni041B
ENCODING 1051
SWIDTH 707 0
DWIDTH 14 0
BBX 12 14 0 0
BITMAP
0FF0
0FF0
1830
1830
1830
1830
1830
1830
1830
1830
1830
3030
F030
E030
ENDCHAR
STARTCHAR uni041C
ENCODING 1052
SWIDTH 873 0
DWIDTH 17 0
BBX 14 14 2 0
BITMAP
C01C
E01C
E03C
B03C
B02C
906C
986C
98CC
CCCC
CC8C
C58C
C70C
C70C
C30C
ENDCHAR
STARTCHAR uni041D
ENCODING 1053
SWIDTH 712 0
DWIDTH 14 0
BBX 11 14 2 0
BITMAP
C060
C060
C060
C060
C060
C060
FFE0
FFE0
C060
C060
C060
C060
C060
C060
ENDCHAR
STARTCHAR uni041E
ENCODING 1054
SWIDTH 687 0
DWIDTH 14 0
BBX 12 14 1 0
BITMAP
1F00
3FC0
70E0
6060
C060
C030
C030
C030
C030
C060
6060
70E0
3FC0
1F00
ENDCHAR
STARTCHAR uni041F
ENCODING 1055
SWIDTH 713 0
DWIDTH 14 0
BBX 11 14 2 0
BITMAP
FFE0
FFE0
C060
C060
C060
C060
C060
C060
C060
C060
C060
C060
C060
C060
ENDCHAR
STARTCHAR uni0420
ENCODING 1056
SWIDTH 630 0
DWIDTH 13 0
BBX 10 14 2 0
BITMAP
FF00
FF80
C1C0
C0C0
C0C0
C0C0
C1C0
FF80
FF00
C000
C000
C000
C000
C000
ENDCHAR
STARTCHAR uni0421
ENCODING 1057
SWIDTH 650 0
DWIDTH 13 0
BBX 11 14 1 0
BITMAP
1F00
3FC0
70C0
6060
C060
C000
C000
C000
C000
C060
6060
70C0
3FC0
1F00
ENDCHAR
STARTCHAR uni0422
ENCODING 1058
SWIDTH 596 0
DWIDTH 12 0
BBX 11 14 0 0
BITMAP
FFE0
FFE0
0600
0600
0600
0600
0600
0600
0600
0600
0600
0600
0600
0600
ENDCHAR
STARTCHAR uni0423
ENCODING 1059
SWIDTH 628 0
DWIDTH 13 0
BBX 11 14 1 0
BITMAP
C060
60E0
60C0
30C0
3180
1980
1B00
0F00
0E00
0E00
0600
0C00
3C00
3800
ENDCHAR
STARTCHAR uni0424
ENCODING 1060
SWIDTH 771 0
DWIDTH 15 0
BBX 14 16 1 -1
BITMAP
0200
0200
1FC0
7FF0
6238
C218
C208
820C
820C
C208
C218
6238
7FF0
1FC0
0200
0200
ENDCHAR
STARTCHAR uni0425
ENCODING 1061
SWIDTH 626 0
DWIDTH 13 0
BBX 11 14 1 0
BITMAP
C0E0
60C0
6180
3180
1B00
1E00
0E00
0E00
1E00
3B00
3180
6180
60C0
C0E0
ENDCHAR
STARTCHAR uni0426
ENCODING 1062
SWIDTH 730 0
DWIDTH 15 0
BBX 12 17 2 -3
BITMAP
C040
C040
C040
C040
C040
C040
C040
C040
C040
C040
C040
C040
FFF0
FFF0
0030
0030
0030
ENDCHAR
STARTCHAR uni0427
ENCODING 1063
SWIDTH 684 0
DWIDTH 14 0
BBX 10 14 2 0
BITMAP
C0C0
C0C0
C0C0
C0C0
C0C0
C0C0
C0C0
FFC0
3FC0
00C0
00C0
00C0
00C0
00C0
ENDCHAR
STARTCHAR uni0428
ENCODING 1064
SWIDTH 940 0
DWIDTH 19 0
BBX 15 14 2 0
BITMAP
C306
C306
C306
C306
C306
C306
C306
C306
C306
C306
C306
C306
FFFE
FFFE
ENDCHAR
STARTCHAR uni0429
ENCODING 1065
SWIDTH 968 0
DWIDTH 19 0
BBX 17 17 2 -3
BITMAP
C30600
C30600
C30600
C30600
C30600
C30600
C30600
C30600
C30600
C30600
C30600
C30600
FFFF80
FFFF00
000100
000100
000100
ENDCHAR
STARTCHAR uni042A
ENCODING 1066
SWIDTH 758 0
DWIDTH 15 0
BBX 14 14 0 0
BITMAP
FC00
FC00
0C00
0C00
0C00
0C00
0FF0
0FF8
0C0C
0C0C
0C0C
0C1C
0FF8
0FF0
ENDCHAR
STARTCHAR uni042B
ENCODING 1067
SWIDTH 864 0
DWIDTH 17 0
BBX 13 14 2 0
BITMAP
8018
8018
8018
8018
8018
8018
FF18
FF98
8198
80D8
80D8
8198
FF98
FE18
ENDCHAR
STARTCHAR uni042C
ENCODING 1068
SWIDTH 627 0
DWIDTH 13 0
BBX 10 14 2 0
BITMAP
C000
C000
C000
C000
C000
C000
FF00
FF80
C1C0
C0C0
C0C0
C1C0
FF80
FF00
ENDCHAR
STARTCHAR uni042D
ENCODING 1069
SWIDTH 673 0
DWIDTH 13 0
BBX 11 14 1 0
BITMAP
1F00
3F80
60C0
C060
C060
0060
0FE0
0FE0
0060
C060
C060
60C0
3F80
1F00
ENDCHAR
STARTCHAR uni042E
ENCODING 1070
SWIDTH 894 0
DWIDTH 18 0
BBX 15 14 2 0
BITMAP
C1F0
C7F8
C61C
CC06
CC06
CC06
FC06
FC06
CC06
CC06
CC06
C70C
C3F8
C1F0
ENDCHAR
STARTCHAR uni042F
ENCODING 1071
SWIDTH 636 0
DWIDTH 13 0
BBX 10 14 1 0
BITMAP
1FC0
3FC0
60C0
60C0
40C0
60C0
60C0
3FC0
1FC0
18C0
30C0
20C0
60C0
C0C0
ENDCHAR
STARTCHAR uni0430
ENCODING 1072
SWIDTH 543 0
DWIDTH 11 0
BBX 9 11 1 0
BITMAP
3E00
7F00
C300
0100
3F00
7F00
E100
C100
C300
7F80
3D80
ENDCHAR
STARTCHAR uni0431
ENCODING 1073
SWIDTH 552 0
DWIDTH 11 0
BBX 9 15 1 0
BITMAP
0180
0700
3E00
7000
4000
DE00
FF00
E380
C180
C080
C180
C180
E380
7F00
3E00
ENDCHAR
STARTCHAR uni0432
ENCODING 1074
SWIDTH 571 0
DWIDTH 11 0
BBX 9 11 1 0
BITMAP
FE00
FF00
C180
C180
FF00
FF00
C180
C180
C180
FF80
FF00
ENDCHAR
STARTCHAR uni0433
ENCODING 1075
SWIDTH 419 0
DWIDTH 8 0
BBX 7 11 1 0
BITMAP
FE
FE
C0
C0
C0
C0
C0
C0
C0
C0
C0
ENDCHAR
STARTCHAR uni0434
ENCODING 1076
SWIDTH 603 0
DWIDTH 12 0
BBX 11 14 0 -3
BITMAP
1FC0
1FC0
18C0
18C0
18C0
18C0
18C0
30C0
30C0
FFE0
FFE0
C020
C020
C020
ENDCHAR
STARTCHAR uni0435
ENCODING 1077
SWIDTH 529 0
DWIDTH 11 0
BBX 9 11 1 0
BITMAP
1E00
7F00
6180
C180
FF80
FF80
C000
C000
6100
7F80
1E00
ENDCHAR
STARTCHAR uni0436
ENCODING 1078
SWIDTH 765 0
DWIDTH 15 0
BBX 15 11 0 0
BITMAP
618E
319C
3198
19B0
0FF0
0FF0
19B0
3998
3198
618C
E18E
ENDCHAR
STARTCHAR uni0437
ENCODING 1079
SWIDTH 507 0
DWIDTH 10 0
BBX 8 11 1 0
BITMAP
3C
FF
C3
03
3E
3E
03
03
C3
FF
3C
ENDCHAR
STARTCHAR uni0438
ENCODING 1080
SWIDTH 577 0
DWIDTH 12 0
BBX 8 11 2 0
BITMAP
83
87
87
8F
9B
9B
B3
A3
E3
C3
C3
ENDCHAR
STARTCHAR uni0439
ENCODING 1081
SWIDTH 577 0
DWIDTH 12 0
BBX 8 14 2 0
BITMAP
66
3C
00
83
87
87
8F
9B
9B
B3
A3
E3
C3
C3
ENDCHAR
STARTCHAR uni043A
ENCODING 1082
SWIDTH 540 0
DWIDTH 11 0
BBX 9 11 2 0
BITMAP
8300
8600
8C00
9800
F000
F800
9800
8C00
8E00
8700
8380
ENDCHAR
STARTCHAR uni043B
ENCODING 1083
SWIDTH 578 0
DWIDTH 12 0
BBX 9 11 1 0
BITMAP
3F80
3F80
3180
3180
3180
3180
3180
2180
6180
E180
C180
ENDCHAR
STARTCHAR uni043C
ENCODING 1084
SWIDTH 741 0
DWIDTH 15 0
BBX 11 11 2 0
BITMAP
C060
E0E0
E0E0
A0E0
B1E0
B160
9B60
9B60
8E60
8E60
8460
ENDCHAR
STARTCHAR uni043D
ENCODING 1085
SWIDTH 576 0
DWIDTH 12 0
BBX 8 11 2 0
BITMAP
83
83
83
83
FF
FF
83
83
83
83
83
ENDCHAR
STARTCHAR uni043E
ENCODING 1086
SWIDTH 570 0
DWIDTH 11 0
BBX 9 11 1 0
BITMAP
3E00
7F00
E380
C180
C180
C180
C180
C180
E380
7F00
3E00
ENDCHAR
STARTCHAR uni043F
ENCODING 1087
SWIDTH 577 0
DWIDTH 12 0
BBX 8 11 2 0
BITMAP
FF
FF
83
83
83
83
83
83
83
83
83
ENDCHAR
STARTCHAR uni0440
ENCODING 1088
SWIDTH 561 0
DWIDTH 11 0
BBX 9 15 1 -4
BITMAP
DE00
FF00
E380
C180
C180
C180
C180
C180
E380
FF00
DE00
C000
C000
C000
C000
ENDCHAR
STARTCHAR uni0441
ENCODING 1089
SWIDTH 523 0
DWIDTH 10 0
BBX 9 11 1 0
BITMAP
3E00
7F00
E300
C180
C000
8000
C000
C180
E300
7F00
3C00
ENDCHAR
STARTCHAR uni0442
ENCODING 1090
SWIDTH 480 0
DWIDTH 10 0
BBX 9 11 0 0
BITMAP
FF80
FF80
0C00
0C00
0C00
0C00
0C00
0C00
0C00
0C00
0C00
ENDCHAR
STARTCHAR uni0443
ENCODING 1091
SWIDTH 473 0
DWIDTH 9 0
BBX 9 15 0 -4
BITMAP
C180
4100
6300
6300
2200
3600
3600
1400
1C00
1C00
0800
1800
1800
7000
6000
ENDCHAR
STARTCHAR uni0444
ENCODING 1092
SWIDTH 725 0
DWIDTH 15 0
BBX 13 19 1 -4
BITMAP
0200
0200
0200
0200
3FE0
7FF0
6230
C218
C218
C218
C218
C218
6230
7FF0
3FE0
0200
0200
0200
0200
ENDCHAR
STARTCHAR uni0445
ENCODING 1093
SWIDTH 495 0
DWIDTH 10 0
BBX 9 11 0 0
BITMAP
6180
6300
3300
1E00
1E00
0C00
1E00
1E00
3300
6380
E180
ENDCHAR
STARTCHAR uni0446
ENCODING 1094
SWIDTH 592 0
DWIDTH 12 0
BBX 9 14 2 -3
BITMAP
8300
8300
8300
8300
8300
8300
8300
8300
8300
FF80
FF80
0180
0180
0180
ENDCHAR
STARTCHAR uni0447
ENCODING 1095
SWIDTH 543 0
DWIDTH 11 0
BBX 8 11 1 0
BITMAP
C1
C1
C1
C1
C1
E1
7F
3F
01
01
01
ENDCHAR
STARTCHAR uni0448
ENCODING 1096
SWIDTH 808 0
DWIDTH 16 0
BBX 13 11 2 0
BITMAP
8618
8618
8618
8618
8618
8618
8618
8618
8618
FFF8
FFF8
ENDCHAR
STARTCHAR uni0449
ENCODING 1097
SWIDTH 827 0
DWIDTH 17 0
BBX 15 14 1 -3
BITMAP
C30C
C30C
C30C
C30C
C30C
C30C
C30C
C30C
C30C
FFFE
FFFE
0006
0006
0006
ENDCHAR
STARTCHAR uni044A
ENCODING 1098
SWIDTH 620 0
DWIDTH 12 0
BBX 12 11 0 0
BITMAP
F800
F800
1800
1800
1FC0
1FE0
1870
1830
1870
1FE0
1FC0
ENDCHAR
STARTCHAR uni044B
ENCODING 1099
SWIDTH 776 0
DWIDTH 16 0
BBX 12 11 2 0
BITMAP
C030
C030
C030
C030
FE30
FF30
C330
C330
C330
FF30
FC30
ENDCHAR
STARTCHAR uni044C
ENCODING 1100
SWIDTH 542 0
DWIDTH 11 0
BBX 8 11 2 0
BITMAP
80
80
80
80
FC
FE
83
83
83
FE
FC
ENDCHAR
STARTCHAR uni044D
ENCODING 1101
SWIDTH 537 0
DWIDTH 11 0
BBX 9 11 1 0
BITMAP
3C00
7F00
C300
0180
1F80
1F80
0180
C180
E300
7F00
3C00
ENDCHAR
STARTCHAR uni044E
ENCODING 1102
SWIDTH 815 0
DWIDTH 16 0
BBX 14 11 1 0
BITMAP
C1F0
C3F8
C71C
C60C
FE0C
FC0C
C60C
C60C
C71C
C3F8
C1F0
ENDCHAR
STARTCHAR uni044F
ENCODING 1103
SWIDTH 548 0
DWIDTH 11 0
BBX 9 11 0 0
BITMAP
1F80
3F80
6080
6080
6080
3F80
1F80
1880
3080
6080
E080
ENDCHAR
STARTCHAR uni0450
ENCODING 1104
SWIDTH 529 0
DWIDTH 11 0
BBX 9 16 1 0
BITMAP
7000
1800
0C00
0000
0000
1E00
7F00
6180
C180
FF80
FF80
C000
C000
6100
7F80
1E00
ENDCHAR
STARTCHAR uni0451
ENCODING 1105
SWIDTH 529 0
DWIDTH 11 0
BBX 9 15 1 0
BITMAP
6300
7300
0000
0000
1E00
7F00
6180
C180
FF80
FF80
C000
C000
6100
7F80
1E00
ENDCHAR
STARTCHAR uni0452
ENCODING 1106
SWIDTH 550 0
DWIDTH 11 0
BBX 10 20 0 -4
BITMAP
6000
6000
FC00
FC00
6000
6F00
7F80
71C0
60C0
60C0
60C0
60C0
60C0
60C0
60C0
60C0
00C0
00C0
0780
0700
ENDCHAR
STARTCHAR uni0453
ENCODING 1107
SWIDTH 419 0
DWIDTH 8 0
BBX 7 16 1 0
BITMAP
0C
18
30
00
00
FE
FE
C0
C0
C0
C0
C0
C0
C0
C0
C0
ENDCHAR
STARTCHAR uni0454
ENCODING 1108
SWIDTH 537 0
DWIDTH 11 0
BBX 9 11 1 0
BITMAP
1E00
7F00
6180
C000
FC00
FC00
C000
C180
6180
7F00
1E00
ENDCHAR
STARTCHAR uni0455
ENCODING 1109
SWIDTH 515 0
DWIDTH 10 0
BBX 8 11 1 0
BITMAP
3C
7E
C3
C0
78
3E
07
03
C3
FF
3C
ENDCHAR
STARTCHAR uni0456
ENCODING 1110
SWIDTH 242 0
DWIDTH 5 0
BBX 3 15 1 0
BITMAP
40
E0
00
00
40
40
40
40
40
40
40
40
40
40
40
ENDCHAR
STARTCHAR uni0457
ENCODING 1111
SWIDTH 247 0
DWIDTH 5 0
BBX 7 15 -1 0
BITMAP
C6
C6
00
00
10
10
10
10
10
10
10
10
10
10
10
ENDCHAR
STARTCHAR uni0458
ENCODING 1112
SWIDTH 238 0
DWIDTH 5 0
BBX 4 19 -1 -4
BITMAP
30
30
00
00
10
10
10
10
10
10
10
10
10
10
10
10
30
F0
E0
ENDCHAR
STARTCHAR uni0459
ENCODING 1113
SWIDTH 848 0
DWIDTH 17 0
BBX 16 11 0 0
BITMAP
1FC0
1FC0
18C0
18C0
10FE
10FF
10C3
30C1
30C3
F0FF
E0FE
ENDCHAR
STARTCHAR uni045A
ENCODING 1114
SWIDTH 861 0
DWIDTH 17 0
BBX 16 11 1 0
BITMAP
C180
C180
C180
C180
FFFC
FFFE
C186
C183
C186
C1FE
C1FC
ENDCHAR
STARTCHAR uni045B
ENCODING 1115
SWIDTH 566 0
DWIDTH 11 0
BBX 10 16 0 0
BITMAP
6000
6000
FC00
FC00
6000
6F00
7F80
7180
6080
60C0
60C0
60C0
60C0
60C0
60C0
60C0
ENDCHAR
STARTCHAR uni045C
ENCODING 1116
SWIDTH 540 0
DWIDTH 11 0
BBX 9 16 2 0
BITMAP
0C00
1800
3000
0000
0000
8300
8600
8C00
9800
F000
F800
9800
8C00
8E00
8700
8380
ENDCHAR
STARTCHAR uni045D
ENCODING 1117
SWIDTH 577 0
DWIDTH 12 0
BBX 8 16 2 0
BITMAP
60
30
18
00
00
83
87
87
8F
9B
9B
B3
A3
E3
C3
C3
ENDCHAR
STARTCHAR uni045E
ENCODING 1118
SWIDTH 473 0
DWIDTH 9 0
BBX 9 18 0 -4
BITMAP
3100
1E00
0000
C180
4100
6300
6300
2200
3600
3600
1400
1C00
1C00
0800
1800
1800
7000
6000
ENDCHAR
STARTCHAR uni045F
ENCODING 1119
SWIDTH 577 0
DWIDTH 12 0
BBX 8 14 2 -3
BITMAP
83
83
83
83
83
83
83
83
83
FF
FF
18
18
18
ENDCHAR
STARTCHAR uni0460
ENCODING 1120
SWIDTH 878 0
DWIDTH 18 0
BBX 14 14 2 0
BITMAP
C30C
C30C
C30C
C30C
C30C
C30C
C30C
C30C
C30C
C30C
C30C
C78C
FFFC
3CF8
ENDCHAR
STARTCHAR uni0461
ENCODING 1121
SWIDTH 770 0
DWIDTH 15 0
BBX 13 11 1 0
BITMAP
C218
C218
C218
C218
C218
C218
C218
C218
C718
7FF0
3DE0
ENDCHAR
STARTCHAR uni0462
ENCODING 1122
SWIDTH 627 0
DWIDTH 13 0
BBX 12 14 0 0
BITMAP
2000
2000
FC00
FC00
2000
2000
3FC0
3FE0
2060
2030
2030
2060
3FE0
3FC0
ENDCHAR
STARTCHAR uni0463
ENCODING 1123
SWIDTH 541 0
DWIDTH 11 0
BBX 10 15 0 0
BITMAP
2000
2000
2000
FE00
FE00
2000
2000
2000
3F00
3F80
20C0
20C0
20C0
3F80
3F00
ENDCHAR
STARTCHAR uni0464
ENCODING 1124
SWIDTH 895 0
DWIDTH 18 0
BBX 15 14 2 0
BITMAP
C1F0
C7F8
C61C
CC0C
CC06
CC00
FFE0
FFE0
CC00
CC06
CC0C
CE1C
C7F8
C1F0
ENDCHAR
STARTCHAR uni0465
ENCODING 1125
SWIDTH 746 0
DWIDTH 15 0
BBX 12 11 2 0
BITMAP
87C0
8FE0
8C30
9800
FF80
FF80
9800
9830
8C30
8FE0
83C0
ENDCHAR
STARTCHAR uni0466
ENCODING 1126
SWIDTH 602 0
DWIDTH 12 0
BBX 12 14 0 0
BITMAP
0600
0700
0700
0D00
0D80
0980
18C0
18C0
3FC0
3FE0
3660
6660
6630
C630
ENDCHAR
STARTCHAR uni0467
ENCODING 1127
SWIDTH 534 0
DWIDTH 11 0
BBX 10 11 0 0
BITMAP
0C00
0E00
1E00
1A00
1300
3300
3F80
3F80
6C80
6CC0
CCC0
ENDCHAR
STARTCHAR uni0468
ENCODING 1128
SWIDTH 880 0
DWIDTH 18 0
BBX 15 14 2 0
BITMAP
C0E0
C0E0
C0E0
C1B0
C1B0
C110
C318
C318
FFF8
FFFC
C64C
C444
CC46
CC46
ENDCHAR
STARTCHAR uni0469
ENCODING 1129
SWIDTH 755 0
DWIDTH 15 0
BBX 13 11 2 0
BITMAP
C180
C380
C380
C6C0
C6C0
C460
FFE0
FFE0
D9B0
D9B0
D998
ENDCHAR
STARTCHAR uni046A
ENCODING 1130
SWIDTH 852 0
DWIDTH 17 0
BBX 15 14 1 0
BITMAP
3FF8
1FF0
1830
0C60
0460
06C0
3FF8
7FFC
610C
C106
C106
C106
C106
C106
ENDCHAR
STARTCHAR uni046B
ENCODING 1131
SWIDTH 734 0
DWIDTH 15 0
BBX 11 11 2 0
BITMAP
7FC0
3F80
3180
1B00
1B00
7FC0
FFE0
C460
C460
8420
8420
ENDCHAR
STARTCHAR uni046C
ENCODING 1132
SWIDTH 1126 0
DWIDTH 23 0
BBX 19 14 2 0
BITMAP
C3FFC0
C1FF80
C0C180
C06300
C06600
C03600
FFFF80
FFFFE0
C31860
C61860
C61860
C61860
C61860
C61860
ENDCHAR
STARTCHAR uni046D
ENCODING 1133
SWIDTH 977 0
DWIDTH 20 0
BBX 16 11 2 0
BITMAP
C3FE
C1FC
C18C
C0D8
C0D8
FFFC
FFFF
C623
C423
C423
C423
ENDCHAR
STARTCHAR uni046E
ENCODING 1134
SWIDTH 517 0
DWIDTH 10 0
BBX 8 23 1 -4
BITMAP
66
3C
18
00
00
FC
FE
07
03
03
06
3C
3E
07
03
03
07
7E
FC
80
80
C0
60
ENDCHAR
STARTCHAR uni046F
ENCODING 1135
SWIDTH 481 0
DWIDTH 10 0
BBX 8 20 1 -4
BITMAP
66
2C
18
00
00
FC
FE
03
02
3E
3E
03
03
07
7E
FC
C0
C0
60
20
ENDCHAR
STARTCHAR uni0470
ENCODING 1136
SWIDTH 691 0
DWIDTH 14 0
BBX 12 14 1 0
BITMAP
C630
C630
C630
C630
C630
C630
C630
E670
76E0
3FC0
1F80
0600
0600
0600
ENDCHAR
STARTCHAR uni0471
ENCODING 1137
SWIDTH 700 0
DWIDTH 14 0
BBX 12 16 1 -5
BITMAP
C660
C630
C630
C630
C630
C630
C630
C630
76E0
7FE0
1F80
0600
0600
0600
0600
0600
ENDCHAR
STARTCHAR uni0472
ENCODING 1138
SWIDTH 680 0
DWIDTH 14 0
BBX 12 14 1 0
BITMAP
0F00
3FC0
70E0
6060
C020
C030
FFF0
FFF0
C030
C020
6060
70E0
3FC0
0F00
ENDCHAR
STARTCHAR uni0473
ENCODING 1139
SWIDTH 567 0
DWIDTH 11 0
BBX 9 11 1 0
BITMAP
3E00
7F00
E380
C180
FF80
FF80
C180
C180
E380
7F00
3E00
ENDCHAR
STARTCHAR uni0474
ENCODING 1140
SWIDTH 629 0
DWIDTH 13 0
BBX 12 14 0 0
BITMAP
E030
6030
6060
3060
30C0
30C0
18C0
1980
1980
0D80
0D00
0F00
0700
0600
ENDCHAR
STARTCHAR uni0475
ENCODING 1141
SWIDTH 501 0
DWIDTH 10 0
BBX 10 11 0 0
BITMAP
C0C0
61C0
6180
2300
3300
3300
1600
1E00
1C00
0C00
0C00
ENDCHAR
STARTCHAR uni0476
ENCODING 1142
SWIDTH 629 0
DWIDTH 13 0
BBX 12 18 0 0
BITMAP
7E00
3E00
1F00
0000
E030
6030
6060
3060
30C0
30C0
18C0
1980
1980
0D80
0D00
0F00
0700
0600
ENDCHAR
STARTCHAR uni0477
ENCODING 1143
SWIDTH 501 0
DWIDTH 10 0
BBX 10 16 0 0
BITMAP
FC00
7C00
3E00
0000
0000
C0C0
61C0
6180
2300
3300
3300
1600
1E00
1C00
0C00
0C00
ENDCHAR
STARTCHAR uni0478
ENCODING 1144
SWIDTH 1160 0
DWIDTH 23 0
BBX 22 18 1 -4
BITMAP
1F0000
3FC000
70E000
60660C
C06618
C03318
C03318
C03330
C031B0
C061A0
6061A0
70E0E0
3FC0C0
1F00C0
0000C0
000180
000780
000700
ENDCHAR
STARTCHAR uni0479
ENCODING 1145
SWIDTH 1043 0
DWIDTH 21 0
BBX 19 15 1 -4
BITMAP
3E3860
7F1860
E39860
C18CC0
C18CC0
C18C80
C18780
C18780
E38700
7F0300
3E0300
000200
000600
001E00
001C00
ENDCHAR
STARTCHAR uni047A
ENCODING 1146
SWIDTH 680 0
DWIDTH 14 0
BBX 12 16 1 -1
BITMAP
0600
1F00
3FC0
76E0
6060
C060
C030
C030
C030
C030
C060
6060
76E0
3FC0
1F80
0600
ENDCHAR
STARTCHAR uni047B
ENCODING 1147
SWIDTH 566 0
DWIDTH 11 0
BBX 9 13 1 -1
BITMAP
0800
3E00
7F00
EB80
C180
C180
C080
C180
C180
EB80
7F00
3E00
0800
ENDCHAR
STARTCHAR uni047C
ENCODING 1148
SWIDTH 875 0
DWIDTH 18 0
BBX 14 19 2 0
BITMAP
0780
0FE0
08E0
0100
0100
3230
703C
C00C
C00C
C00C
C00C
C30C
C30C
C30C
C30C
C30C
C78C
7FFC
3CF0
ENDCHAR
STARTCHAR uni047D
ENCODING 1149
SWIDTH 767 0
DWIDTH 15 0
BBX 13 16 1 0
BITMAP
0700
0FE0
08E0
0300
0300
3260
7070
C018
C018
C018
C218
C218
C218
C718
7FF0
3DE0
ENDCHAR
STARTCHAR uni047E
ENCODING 1150
SWIDTH 878 0
DWIDTH 18 0
BBX 14 17 2 0
BITMAP
1FE0
0300
0000
C30C
C30C
C30C
C30C
C30C
C30C
C30C
C30C
C30C
C30C
C30C
C78C
FFFC
3CF8
ENDCHAR
STARTCHAR uni047F
ENCODING 1151
SWIDTH 770 0
DWIDTH 15 0
BBX 13 14 1 0
BITMAP
1FE0
0200
0000
C218
C218
C218
C218
C218
C218
C218
C218
C718
7FF0
3DE0
ENDCHAR
STARTCHAR uni0480
ENCODING 1152
SWIDTH 649 0
DWIDTH 13 0
BBX 11 18 1 -4
BITMAP
1F00
3FC0
70C0
6060
C060
C000
C000
C000
C000
C000
6000
7000
3E00
1E00
0600
0600
0600
0600
ENDCHAR
STARTCHAR uni0481
ENCODING 1153
SWIDTH 534 0
DWIDTH 11 0
BBX 9 15 1 -4
BITMAP
1E00
7F00
6380
C180
C000
C000
C000
C000
6000
7C00
1C00
0C00
0C00
0C00
0C00
ENDCHAR
STARTCHAR uni0482
ENCODING 1154
SWIDTH 623 0
DWIDTH 12 0
BBX 10 13 1 0
BITMAP
00C0
0180
1900
0F00
0300
06C0
8C40
EC00
3800
1C00
3700
2200
6000
ENDCHAR
STARTCHAR uni0483
ENCODING 1155
SWIDTH 0 0
DWIDTH 0 0
BBX 7 3 -9 12
BITMAP
06
FE
C0
ENDCHAR
STARTCHAR uni0484
ENCODING 1156
SWIDTH 0 0
DWIDTH 0 0
BBX 7 3 -9 13
BITMAP
1E
FE
E2
ENDCHAR
STARTCHAR uni0485
ENCODING 1157
SWIDTH 0 0
DWIDTH 0 0
BBX 3 3 -7 13
BITMAP
C0
40
20
ENDCHAR
STARTCHAR uni0486
ENCODING 1158
SWIDTH 0 0
DWIDTH 0 0
BBX 2 3 -6 13
BITMAP
40
40
80
ENDCHAR
STARTCHAR uni0488
ENCODING 1160
SWIDTH 0 0
DWIDTH 0 0
BBX 19 17 -15 -3
BITMAP
00E000
00B000
180380
240680
000000
000000
000000
7000E0
900120
000000
000000
000000
180380
240480
000000
00E000
009000
ENDCHAR
STARTCHAR uni0489
ENCODING 1161
SWIDTH 0 0
DWIDTH 0 0
BBX 19 18 -15 -4
BITMAP
006000
004000
104000
088100
080680
0C0400
000000
000000
E00180
3001E0
000000
000000
080200
0C0600
300200
006100
004000
00C000
ENDCHAR
STARTCHAR uni048A
ENCODING 1162
SWIDTH 754 0
DWIDTH 15 0
BBX 12 21 2 -4
BITMAP
3100
1E00
0000
C0C0
C0C0
C1C0
C340
C340
C640
C440
CC40
D840
D040
F040
E040
E040
C070
0030
0030
0030
0020
ENDCHAR
STARTCHAR uni048B
ENCODING 1163
SWIDTH 615 0
DWIDTH 12 0
BBX 10 18 2 -4
BITMAP
6600
3C00
0000
8300
8700
8700
8F00
9B00
9B00
B300
A300
E300
C300
C3C0
00C0
00C0
0080
0180
ENDCHAR
STARTCHAR uni048C
ENCODING 1164
SWIDTH 627 0
DWIDTH 13 0
BBX 12 14 0 0
BITMAP
2000
2000
FC00
FC00
2000
2000
3FC0
3FE0
2060
2030
2030
2060
3FE0
3FC0
ENDCHAR
STARTCHAR uni048D
ENCODING 1165
SWIDTH 541 0
DWIDTH 11 0
BBX 10 16 0 0
BITMAP
2000
2000
FE00
FE00
2000
2000
2000
2000
2000
3F00
3F80
20C0
20C0
20C0
3F80
3F00
ENDCHAR
STARTCHAR uni048E
ENCODING 1166
SWIDTH 638 0
DWIDTH 13 0
BBX 10 14 2 0
BITMAP
FF00
FF80
C1C0
C0C0
C0C0
C2C0
C3C0
FF80
FFC0
C040
C000
C000
C000
C000
ENDCHAR
STARTCHAR uni048F
ENCODING 1167
SWIDTH 566 0
DWIDTH 11 0
BBX 9 15 1 -4
BITMAP
DE00
FF00
E380
C180
C180
C180
C180
C780
E380
FF00
DF80
C100
C000
C000
C000
ENDCHAR
STARTCHAR uni0490
ENCODING 1168
SWIDTH 548 0
DWIDTH 11 0
BBX 8 18 2 0
BITMAP
01
01
01
01
FF
FF
80
80
80
80
80
80
80
80
80
80
80
80
ENDCHAR
STARTCHAR uni0491
ENCODING 1169
SWIDTH 445 0
DWIDTH 9 0
BBX 7 14 1 0
BITMAP
06
06
06
FE
FE
C0
C0
C0
C0
C0
C0
C0
C0
C0
ENDCHAR
STARTCHAR uni0492
ENCODING 1170
SWIDTH 556 0
DWIDTH 11 0
BBX 10 14 0 0
BITMAP
3FC0
3FC0
3000
3000
3000
3000
FC00
FC00
3000
3000
3000
3000
3000
3000
ENDCHAR
STARTCHAR uni0493
ENCODING 1171
SWIDTH 419 0
DWIDTH 8 0
BBX 8 11 0 0
BITMAP
7F
7F
60
60
60
FC
FC
60
60
60
60
ENDCHAR
STARTCHAR uni0494
ENCODING 1172
SWIDTH 606 0
DWIDTH 12 0
BBX 9 17 2 -3
BITMAP
FF00
FF00
C000
C000
C000
C000
FC00
FF00
C300
C180
C180
C180
C180
C180
0380
0F00
0600
ENDCHAR
STARTCHAR uni0495
ENCODING 1173
SWIDTH 502 0
DWIDTH 10 0
BBX 8 14 1 -3
BITMAP
FE
FE
C0
C0
FC
FE
C7
C3
C3
C1
C3
07
0E
0C
ENDCHAR
STARTCHAR uni0496
ENCODING 1174
SWIDTH 954 0
DWIDTH 19 0
BBX 19 17 0 -3
BITMAP
60C1C0
30C380
30C300
18C600
0CC600
0CCC00
07F800
07FC00
0CCC00
1CC600
18C700
30C300
70C1E0
60C1E0
800060
000060
000060
ENDCHAR
STARTCHAR uni0497
ENCODING 1175
SWIDTH 797 0
DWIDTH 16 0
BBX 16 14 0 -3
BITMAP
618E
319C
3198
19B0
0FF0
0FF0
19B0
3998
3198
618F
618F
8003
0003
0003
ENDCHAR
STARTCHAR uni0498
ENCODING 1176
SWIDTH 593 0
DWIDTH 12 0
BBX 10 18 1 -4
BITMAP
3F00
7F80
E1C0
C0C0
00C0
0180
1F00
1F80
01C0
00C0
C0C0
E1C0
7F80
3F00
0C00
0C00
0C00
0C00
ENDCHAR
STARTCHAR uni0499
ENCODING 1177
SWIDTH 507 0
DWIDTH 10 0
BBX 8 15 1 -4
BITMAP
3C
FF
C3
03
3E
3E
03
03
C3
FF
3C
18
18
18
18
ENDCHAR
STARTCHAR uni049A
ENCODING 1178
SWIDTH 700 0
DWIDTH 14 0
BBX 11 17 2 -3
BITMAP
C0C0
C180
C300
C700
CE00
DC00
F800
FC00
CC00
C600
C700
C380
C1E0
C0E0
0060
0060
0060
ENDCHAR
STARTCHAR uni049B
ENCODING 1179
SWIDTH 589 0
DWIDTH 12 0
BBX 9 14 2 -3
BITMAP
8300
8600
8C00
9800
F000
F800
9800
8C00
8E00
8780
8380
0180
0180
0180
ENDCHAR
STARTCHAR uni049C
ENCODING 1180
SWIDTH 629 0
DWIDTH 13 0
BBX 10 14 2 0
BITMAP
80C0
8180
8180
B300
B600
B600
FC00
FE00
B600
B300
8300
8180
81C0
80C0
ENDCHAR
STARTCHAR uni049D
ENCODING 1181
SWIDTH 561 0
DWIDTH 11 0
BBX 10 11 1 0
BITMAP
C1C0
C180
DB00
DE00
FE00
FE00
DB00
DB00
C180
C180
C0C0
ENDCHAR
STARTCHAR uni049E
ENCODING 1182
SWIDTH 652 0
DWIDTH 13 0
BBX 13 14 0 0
BITMAP
3038
3060
FCE0
FDC0
3180
3300
3E00
3F00
3380
3180
30C0
3060
3070
3038
ENDCHAR
STARTCHAR uni049F
ENCODING 1183
SWIDTH 519 0
DWIDTH 10 0
BBX 11 15 -1 0
BITMAP
1000
FE00
FE00
1000
10E0
10C0
1180
1300
1E00
1F00
1300
1180
11C0
10C0
1060
ENDCHAR
STARTCHAR uni04A0
ENCODING 1184
SWIDTH 818 0
DWIDTH 16 0
BBX 15 14 1 0
BITMAP
FC0E
FC1C
0C18
0C30
0C60
0CE0
0FC0
0FC0
0CE0
0C70
0C38
0C18
0C0C
0C06
ENDCHAR
STARTCHAR uni04A1
ENCODING 1185
SWIDTH 688 0
DWIDTH 14 0
BBX 13 11 1 0
BITMAP
F830
F860
08C0
0980
0F00
0F80
0980
08C0
0860
0870
0838
ENDCHAR
STARTCHAR uni04A2
ENCODING 1186
SWIDTH 749 0
DWIDTH 15 0
BBX 12 17 2 -3
BITMAP
C060
C060
C060
C060
C060
C060
FFE0
FFE0
C060
C060
C060
C060
C070
C070
0030
0030
0030
ENDCHAR
STARTCHAR uni04A3
ENCODING 1187
SWIDTH 605 0
DWIDTH 12 0
BBX 10 14 2 -3
BITMAP
8300
8300
8300
8300
FF00
FF00
8300
8300
8300
83C0
83C0
00C0
00C0
00C0
ENDCHAR
STARTCHAR uni04A4
ENCODING 1188
SWIDTH 976 0
DWIDTH 20 0
BBX 17 14 2 0
BITMAP
C07F80
C07F80
C06000
C06000
C06000
C06000
FFE000
FFE000
C06000
C06000
C06000
C06000
C06000
C06000
ENDCHAR
STARTCHAR uni04A5
ENCODING 1189
SWIDTH 712 0
DWIDTH 14 0
BBX 13 11 1 0
BITMAP
C1F8
C1F8
C180
C180
FF80
FF80
C180
C180
C180
C180
C180
ENDCHAR
STARTCHAR uni04A6
ENCODING 1190
SWIDTH 1023 0
DWIDTH 20 0
BBX 18 17 1 -3
BITMAP
FFE000
FFE000
C06000
C06000
C06000
C06000
C07E00
C07F80
C06180
C060C0
C060C0
C060C0
C060C0
C060C0
0001C0
000380
000300
ENDCHAR
STARTCHAR uni04A7
ENCODING 1191
SWIDTH 869 0
DWIDTH 17 0
BBX 16 14 1 -3
BITMAP
FF80
FF80
C180
C180
C1F8
C1FC
C18E
C186
C183
C183
C186
0006
001C
0008
ENDCHAR
STARTCHAR uni04A8
ENCODING 1192
SWIDTH 741 0
DWIDTH 15 0
BBX 13 14 1 0
BITMAP
19E0
3BF0
6738
6618
C618
C618
C618
C618
C618
C318
6330
71E0
3FF8
0F38
ENDCHAR
STARTCHAR uni04A9
ENCODING 1193
SWIDTH 603 0
DWIDTH 12 0
BBX 11 11 1 0
BITMAP
2700
6F80
CCC0
CCC0
CCC0
CCC0
CCC0
CEC0
6780
7FE0
1EE0
ENDCHAR
STARTCHAR uni04AA
ENCODING 1194
SWIDTH 650 0
DWIDTH 13 0
BBX 11 18 1 -4
BITMAP
1F00
3FC0
70C0
6060
C060
C000
C000
C000
C000
C060
6060
70C0
3FC0
1F00
0600
0600
0600
0600
ENDCHAR
STARTCHAR uni04AB
ENCODING 1195
SWIDTH 523 0
DWIDTH 10 0
BBX 9 15 1 -4
BITMAP
3E00
7F00
E300
C180
C000
8000
C000
C180
E300
7F00
3C00
1800
1800
1800
1800
ENDCHAR
STARTCHAR uni04AC
ENCODING 1196
SWIDTH 596 0
DWIDTH 12 0
BBX 11 17 0 -3
BITMAP
FFE0
FFE0
0600
0600
0600
0600
0600
0600
0600
0600
0600
0600
0700
0700
0100
0100
0100
ENDCHAR
STARTCHAR uni04AD
ENCODING 1197
SWIDTH 480 0
DWIDTH 10 0
BBX 9 14 0 -3
BITMAP
FF80
FF80
0C00
0C00
0C00
0C00
0C00
0C00
0C00
0E00
0E00
0600
0600
0600
ENDCHAR
STARTCHAR uni04AE
ENCODING 1198
SWIDTH 600 0
DWIDTH 12 0
BBX 12 14 0 0
BITMAP
E070
6060
30C0
30C0
1980
1980
0F00
0F00
0600
0600
0600
0600
0600
0600
ENDCHAR
STARTCHAR uni04AF
ENCODING 1199
SWIDTH 500 0
DWIDTH 10 0
BBX 10 15 0 -4
BITMAP
C0C0
6180
6180
3100
3300
3300
1A00
1E00
0E00
0C00
0C00
0C00
0C00
0C00
0C00
ENDCHAR
STARTCHAR uni04B0
ENCODING 1200
SWIDTH 600 0
DWIDTH 12 0
BBX 12 14 0 0
BITMAP
E070
6060
70E0
30C0
1980
1980
0F00
0F00
1F80
1F80
0600
0600
0600
0600
ENDCHAR
STARTCHAR uni04B1
ENCODING 1201
SWIDTH 500 0
DWIDTH 10 0
BBX 10 15 0 -4
BITMAP
C0C0
6180
6180
3100
3300
1300
1A00
1E00
0C00
3F00
3F00
0C00
0C00
0C00
0C00
ENDCHAR
STARTCHAR uni04B2
ENCODING 1202
SWIDTH 636 0
DWIDTH 13 0
BBX 11 17 1 -3
BITMAP
C0E0
60C0
6180
3180
1B00
1E00
0E00
0E00
1E00
3B00
3180
6180
60E0
C0E0
0020
0020
0020
ENDCHAR
STARTCHAR uni04B3
ENCODING 1203
SWIDTH 520 0
DWIDTH 10 0
BBX 10 14 0 -3
BITMAP
6180
6300
3300
1E00
1E00
0C00
1E00
1E00
3300
63C0
61C0
80C0
00C0
00C0
ENDCHAR
STARTCHAR uni04B4
ENCODING 1204
SWIDTH 896 0
DWIDTH 18 0
BBX 15 17 1 -3
BITMAP
FF8C
FF8C
180C
180C
180C
180C
180C
180C
180C
180C
180C
180C
1FFE
1FFE
0002
0002
0002
ENDCHAR
STARTCHAR uni04B5
ENCODING 1205
SWIDTH 669 0
DWIDTH 13 0
BBX 13 14 0 -3
BITMAP
FE20
FE20
1820
1820
1820
1820
1820
1820
1820
1FF8
1FF8
0018
0018
0018
ENDCHAR
STARTCHAR uni04B6
ENCODING 1206
SWIDTH 716 0
DWIDTH 14 0
BBX 12 17 2 -3
BITMAP
C0C0
C0C0
C0C0
C0C0
C0C0
C0C0
C0C0
FFC0
3FC0
00C0
00C0
00C0
00F0
00F0
0030
0030
0030
ENDCHAR
STARTCHAR uni04B7
ENCODING 1207
SWIDTH 573 0
DWIDTH 11 0
BBX 10 14 1 -3
BITMAP
C100
C100
C100
C100
C100
E100
7F00
3F00
0100
01C0
01C0
00C0
00C0
00C0
ENDCHAR
STARTCHAR uni04B8
ENCODING 1208
SWIDTH 679 0
DWIDTH 14 0
BBX 10 14 2 0
BITMAP
C0C0
C0C0
C0C0
C0C0
CCC0
CCC0
CCC0
FFC0
3FC0
0CC0
0CC0
00C0
00C0
00C0
ENDCHAR
STARTCHAR uni04B9
ENCODING 1209
SWIDTH 551 0
DWIDTH 11 0
BBX 9 11 1 0
BITMAP
C180
C180
C180
C980
C980
6980
7F80
3F80
0980
0180
0180
ENDCHAR
STARTCHAR uni04BA
ENCODING 1210
SWIDTH 679 0
DWIDTH 14 0
BBX 10 14 2 0
BITMAP
8000
8000
8000
8000
8000
FF00
FF80
81C0
80C0
80C0
80C0
80C0
80C0
80C0
ENDCHAR
STARTCHAR uni04BB
ENCODING 1211
SWIDTH 550 0
DWIDTH 11 0
BBX 9 15 1 0
BITMAP
C000
C000
C000
C000
DE00
FF00
E380
C180
C180
C180
C180
C180
C180
C180
C180
ENDCHAR
STARTCHAR uni04BC
ENCODING 1212
SWIDTH 772 0
DWIDTH 15 0
BBX 14 14 0 0
BITMAP
01E0
07F0
0E18
0C0C
CC0C
680C
7FFC
3FFC
1800
0800
0C00
0E08
07F8
01F0
ENDCHAR
STARTCHAR uni04BD
ENCODING 1213
SWIDTH 592 0
DWIDTH 12 0
BBX 11 11 0 0
BITMAP
0780
1FC0
98E0
F060
FFE0
3FE0
3000
3000
1840
1FE0
0780
ENDCHAR
STARTCHAR uni04BE
ENCODING 1214
SWIDTH 772 0
DWIDTH 15 0
BBX 14 18 0 -4
BITMAP
01E0
07F0
0E18
0C0C
CC0C
680C
7FFC
3FFC
1800
0800
0C00
0E08
07F8
01F0
0040
0040
0040
0040
ENDCHAR
STARTCHAR uni04BF
ENCODING 1215
SWIDTH 592 0
DWIDTH 12 0
BBX 11 15 0 -4
BITMAP
0780
1FC0
98E0
F060
FFE0
3FE0
3000
3000
1840
1FE0
0780
0300
0300
0300
0300
ENDCHAR
STARTCHAR uni04C0
ENCODING 1216
SWIDTH 271 0
DWIDTH 5 0
BBX 2 14 2 0
BITMAP
C0
C0
C0
C0
C0
C0
C0
C0
C0
C0
C0
C0
C0
C0
ENDCHAR
STARTCHAR uni04C1
ENCODING 1217
SWIDTH 907 0
DWIDTH 18 0
BBX 18 17 0 0
BITMAP
031000
01E000
000000
60C1C0
30C380
30C300
18C600
0CC600
0CCC00
07F800
07FC00
0CCC00
1CC600
18C700
30C300
70C180
E0C1C0
ENDCHAR
STARTCHAR uni04C2
ENCODING 1218
SWIDTH 765 0
DWIDTH 15 0
BBX 15 14 0 0
BITMAP
0660
03C0
0000
618E
319C
3198
19B0
0FF0
0FF0
19B0
3998
3198
618C
E18E
ENDCHAR
STARTCHAR uni04C3
ENCODING 1219
SWIDTH 629 0
DWIDTH 13 0
BBX 10 17 2 -3
BITMAP
C0C0
C180
C300
C600
CC00
DC00
FE00
FF80
C180
C0C0
C0C0
C0C0
C0C0
C0C0
01C0
0780
0700
ENDCHAR
STARTCHAR uni04C4
ENCODING 1220
SWIDTH 543 0
DWIDTH 11 0
BBX 8 14 2 -3
BITMAP
83
86
8C
98
FC
FE
87
83
83
83
83
07
0E
0C
ENDCHAR
STARTCHAR uni04C5
ENCODING 1221
SWIDTH 749 0
DWIDTH 15 0
BBX 14 18 0 -4
BITMAP
0FF0
0FF0
1830
1830
1830
1830
1830
1830
1830
1830
1830
3030
F030
E03C
000C
000C
000C
0018
ENDCHAR
STARTCHAR uni04C6
ENCODING 1222
SWIDTH 616 0
DWIDTH 12 0
BBX 11 15 1 -4
BITMAP
3F80
3F80
3180
3180
3180
3180
3180
2180
6180
E180
C1E0
0060
0060
0040
00C0
ENDCHAR
STARTCHAR uni04C7
ENCODING 1223
SWIDTH 711 0
DWIDTH 14 0
BBX 10 18 2 -4
BITMAP
80C0
80C0
80C0
80C0
80C0
80C0
FFC0
FFC0
80C0
80C0
80C0
80C0
80C0
80C0
00C0
00C0
03C0
0380
ENDCHAR
STARTCHAR uni04C8
ENCODING 1224
SWIDTH 566 0
DWIDTH 11 0
BBX 9 15 1 -4
BITMAP
C180
C180
C180
C180
FF80
FF80
C180
C180
C180
C180
C180
0180
0180
0700
0E00
ENDCHAR
STARTCHAR uni04C9
ENCODING 1225
SWIDTH 758 0
DWIDTH 15 0
BBX 12 18 2 -4
BITMAP
C060
C060
C060
C060
C060
C060
FFE0
FFE0
C060
C060
C060
C060
C060
C070
0010
0030
0030
0020
ENDCHAR
STARTCHAR uni04CA
ENCODING 1226
SWIDTH 615 0
DWIDTH 12 0
BBX 10 15 2 -4
BITMAP
8300
8300
8300
8300
FF00
FF00
8300
8300
8300
8300
83C0
00C0
00C0
0080
0180
ENDCHAR
STARTCHAR uni04CB
ENCODING 1227
SWIDTH 684 0
DWIDTH 14 0
BBX 10 17 2 -3
BITMAP
C0C0
C0C0
C0C0
C0C0
C0C0
C0C0
C0C0
FFC0
3FC0
00C0
00C0
00C0
03C0
03C0
0300
0300
0300
ENDCHAR
STARTCHAR uni04CC
ENCODING 1228
SWIDTH 543 0
DWIDTH 11 0
BBX 8 14 1 -3
BITMAP
C1
C1
C1
C1
C1
E1
7F
3F
01
07
07
06
06
06
ENDCHAR
STARTCHAR uni04CD
ENCODING 1229
SWIDTH 913 0
DWIDTH 18 0
BBX 15 18 2 -4
BITMAP
C01C
E01C
E03C
B03C
B02C
906C
986C
98CC
CCCC
CC8C
C58C
C70C
C70C
C30E
0002
0002
0006
0004
ENDCHAR
STARTCHAR uni04CE
ENCODING 1230
SWIDTH 780 0
DWIDTH 16 0
BBX 13 15 2 -4
BITMAP
C060
E0E0
E0E0
A0E0
B1E0
B160
9B60
9B60
8E60
8E60
8478
0018
0018
0018
0030
ENDCHAR
STARTCHAR uni04CF
ENCODING 1231
SWIDTH 271 0
DWIDTH 5 0
BBX 2 14 2 0
BITMAP
C0
C0
C0
C0
C0
C0
C0
C0
C0
C0
C0
C0
C0
C0
ENDCHAR
STARTCHAR uni04D0
ENCODING 1232
SWIDTH 652 0
DWIDTH 13 0
BBX 13 17 0 0
BITMAP
0CC0
0780
0000
0700
0700
0500
0D80
0D80
0880
18C0
18C0
3060
3FE0
3FE0
6030
6030
C018
ENDCHAR
STARTCHAR uni04D1
ENCODING 1233
SWIDTH 543 0
DWIDTH 11 0
BBX 9 14 1 0
BITMAP
3300
1E00
0000
3E00
7F00
C300
0100
3F00
7F00
E100
C100
C300
7F80
3D80
ENDCHAR
STARTCHAR uni04D2
ENCODING 1234
SWIDTH 652 0
DWIDTH 13 0
BBX 13 17 0 0
BITMAP
08C0
1CC0
0000
0700
0700
0500
0D80
0D80
0880
18C0
18C0
3060
3FE0
3FE0
6030
6030
C018
ENDCHAR
STARTCHAR uni04D3
ENCODING 1235
SWIDTH 543 0
DWIDTH 11 0
BBX 9 15 1 0
BITMAP
3300
3300
0000
0000
3E00
7F00
C300
0100
3F00
7F00
E100
C100
C300
7F80
3D80
ENDCHAR
STARTCHAR uni04D4
ENCODING 1236
SWIDTH 934 0
DWIDTH 19 0
BBX 18 14 0 0
BITMAP
00FFC0
00FFC0
01E000
036000
036000
066000
0E7F80
0C7F80
186000
1FE000
3FE000
702000
603FC0
C03FC0
ENDCHAR
STARTCHAR uni04D5
ENCODING 1237
SWIDTH 844 0
DWIDTH 17 0
BBX 15 11 1 0
BITMAP
3C78
FFFC
C386
0306
3FFE
FFFE
C300
C380
C384
FEFE
7C7C
ENDCHAR
STARTCHAR uni04D6
ENCODING 1238
SWIDTH 568 0
DWIDTH 11 0
BBX 9 17 2 0
BITMAP
6200
3C00
0000
FF80
FF80
C000
C000
C000
C000
FF00
FF00
C000
C000
C000
C000
FF80
FF80
ENDCHAR
STARTCHAR uni04D7
ENCODING 1239
SWIDTH 529 0
DWIDTH 11 0
BBX 9 14 1 0
BITMAP
2300
1E00
0000
1E00
7F00
6180
C180
FF80
FF80
C000
C000
6100
7F80
1E00
ENDCHAR
STARTCHAR uni04D8
ENCODING 1240
SWIDTH 690 0
DWIDTH 14 0
BBX 12 14 1 0
BITMAP
1F00
7FC0
20E0
0060
0070
0030
0030
FFF0
FFF0
C020
C060
60E0
3FC0
1F00
ENDCHAR
STARTCHAR uni04D9
ENCODING 1241
SWIDTH 526 0
DWIDTH 11 0
BBX 9 11 1 0
BITMAP
3C00
FF00
8300
0180
0180
FF80
FF80
C180
6300
7F00
3C00
ENDCHAR
STARTCHAR uni04DA
ENCODING 1242
SWIDTH 690 0
DWIDTH 14 0
BBX 12 17 1 0
BITMAP
3300
3300
0000
1F00
7FC0
20E0
0060
0070
0030
0030
FFF0
FFF0
C020
C060
60E0
3FC0
1F00
ENDCHAR
STARTCHAR uni04DB
ENCODING 1243
SWIDTH 526 0
DWIDTH 11 0
BBX 9 15 1 0
BITMAP
6300
6700
0000
0000
3C00
FF00
8300
0180
0180
FF80
FF80
C180
6300
7F00
3C00
ENDCHAR
STARTCHAR uni04DC
ENCODING 1244
SWIDTH 907 0
DWIDTH 18 0
BBX 18 17 0 0
BITMAP
033000
033000
000000
60C1C0
30C380
30C300
18C600
0CC600
0CCC00
07F800
07FC00
0CCC00
1CC600
18C700
30C300
70C180
E0C1C0
ENDCHAR
STARTCHAR uni04DD
ENCODING 1245
SWIDTH 765 0
DWIDTH 15 0
BBX 15 15 0 0
BITMAP
0460
0E60
0000
0000
618E
319C
3198
19B0
0FF0
0FF0
19B0
3998
3198
618C
E18E
ENDCHAR
STARTCHAR uni04DE
ENCODING 1246
SWIDTH 593 0
DWIDTH 12 0
BBX 10 17 1 0
BITMAP
3300
3300
0000
3F00
7F80
E1C0
C0C0
00C0
0180
1F00
1F80
01C0
00C0
C0C0
E1C0
7F80
3F00
ENDCHAR
STARTCHAR uni04DF
ENCODING 1247
SWIDTH 507 0
DWIDTH 10 0
BBX 8 15 1 0
BITMAP
66
66
00
00
3C
FF
C3
03
3E
3E
03
03
C3
FF
3C
ENDCHAR
STARTCHAR uni04E0
ENCODING 1248
SWIDTH 582 0
DWIDTH 12 0
BBX 10 14 1 0
BITMAP
7F80
7F80
0300
0200
0600
0C00
1E00
1F80
0180
00C0
C0C0
E180
7F80
3E00
ENDCHAR
STARTCHAR uni04E1
ENCODING 1249
SWIDTH 582 0
DWIDTH 12 0
BBX 10 15 1 -4
BITMAP
7F80
7F80
0300
0600
0E00
0C00
1E00
0180
0180
0080
00C0
C180
6180
7F80
3E00
ENDCHAR
STARTCHAR uni04E2
ENCODING 1250
SWIDTH 712 0
DWIDTH 14 0
BBX 10 17 2 0
BITMAP
3F00
3F00
0000
C0C0
C0C0
C1C0
C340
C340
C640
C440
CC40
D840
D040
F040
E040
E040
C040
ENDCHAR
STARTCHAR uni04E3
ENCODING 1251
SWIDTH 577 0
DWIDTH 12 0
BBX 8 14 2 0
BITMAP
FE
FE
00
83
87
87
8F
9B
9B
B3
A3
E3
C3
C3
ENDCHAR
STARTCHAR uni04E4
ENCODING 1252
SWIDTH 712 0
DWIDTH 14 0
BBX 10 17 2 0
BITMAP
3300
3300
0000
C0C0
C0C0
C1C0
C340
C340
C640
C440
CC40
D840
D040
F040
E040
E040
C040
ENDCHAR
STARTCHAR uni04E5
ENCODING 1253
SWIDTH 577 0
DWIDTH 12 0
BBX 8 15 2 0
BITMAP
66
66
00
00
83
87
87
8F
9B
9B
B3
A3
E3
C3
C3
ENDCHAR
STARTCHAR uni04E6
ENCODING 1254
SWIDTH 687 0
DWIDTH 14 0
BBX 12 17 1 0
BITMAP
1980
1980
0000
1F00
3FC0
70E0
6060
C060
C030
C030
C030
C030
C060
6060
70E0
3FC0
1F00
ENDCHAR
STARTCHAR uni04E7
ENCODING 1255
SWIDTH 570 0
DWIDTH 11 0
BBX 9 15 1 0
BITMAP
2300
7300
0000
0000
3E00
7F00
E380
C180
C180
C180
C180
C180
E380
7F00
3E00
ENDCHAR
STARTCHAR uni04E8
ENCODING 1256
SWIDTH 680 0
DWIDTH 14 0
BBX 12 14 1 0
BITMAP
0F00
3FC0
70E0
6060
C020
C030
FFF0
FFF0
C030
C020
6060
70E0
3FC0
0F00
ENDCHAR
STARTCHAR uni04E9
ENCODING 1257
SWIDTH 567 0
DWIDTH 11 0
BBX 9 11 1 0
BITMAP
3E00
7F00
E380
C180
FF80
FF80
C180
C180
E380
7F00
3E00
ENDCHAR
STARTCHAR uni04EA
ENCODING 1258
SWIDTH 680 0
DWIDTH 14 0
BBX 12 17 1 0
BITMAP
1980
1980
0000
0F00
3FC0
70E0
6060
C020
C030
FFF0
FFF0
C030
C020
6060
70E0
3FC0
0F00
ENDCHAR
STARTCHAR uni04EB
ENCODING 1259
SWIDTH 567 0
DWIDTH 11 0
BBX 9 15 1 0
BITMAP
6300
6300
0000
0000
3E00
7F00
E380
C180
FF80
FF80
C180
C180
E380
7F00
3E00
ENDCHAR
STARTCHAR uni04EC
ENCODING 1260
SWIDTH 673 0
DWIDTH 13 0
BBX 11 17 1 0
BITMAP
1980
1980
0000
1F00
3F80
60C0
C060
C060
0060
0FE0
0FE0
0060
C060
C060
60C0
3F80
1F00
ENDCHAR
STARTCHAR uni04ED
ENCODING 1261
SWIDTH 537 0
DWIDTH 11 0
BBX 9 15 1 0
BITMAP
6200
6700
0000
0000
3C00
7F00
C300
0180
1F80
1F80
0180
C180
E300
7F00
3C00
ENDCHAR
STARTCHAR uni04EE
ENCODING 1262
SWIDTH 628 0
DWIDTH 13 0
BBX 11 17 1 0
BITMAP
3F80
3F80
0000
C060
60E0
60C0
30C0
3180
1980
1B00
0F00
0E00
0E00
0600
0C00
3C00
3800
ENDCHAR
STARTCHAR uni04EF
ENCODING 1263
SWIDTH 473 0
DWIDTH 9 0
BBX 9 18 0 -4
BITMAP
3F00
3F00
0000
C180
4100
6300
6300
2200
3600
3600
1400
1C00
1C00
0800
1800
1800
7000
6000
ENDCHAR
STARTCHAR uni04F0
ENCODING 1264
SWIDTH 628 0
DWIDTH 13 0
BBX 11 17 1 0
BITMAP
3300
3380
0000
C060
60E0
60C0
30C0
3180
1980
1B00
0F00
0E00
0E00
0600
0C00
3C00
3800
ENDCHAR
STARTCHAR uni04F1
ENCODING 1265
SWIDTH 473 0
DWIDTH 9 0
BBX 9 19 0 -4
BITMAP
3300
3300
0000
0000
C180
4100
6300
6300
2200
3600
3600
1400
1C00
1C00
0800
1800
1800
7000
6000
ENDCHAR
STARTCHAR uni04F2
ENCODING 1266
SWIDTH 628 0
DWIDTH 13 0
BBX 11 18 1 0
BITMAP
0DC0
0980
1B00
0000
C060
60E0
60C0
30C0
3180
1980
1B00
0F00
0E00
0E00
0600
0C00
3C00
3800
ENDCHAR
STARTCHAR uni04F3
ENCODING 1267
SWIDTH 473 0
DWIDTH 9 0
BBX 10 20 0 -4
BITMAP
0DC0
1B00
1600
0000
0000
C180
4100
6300
6300
2200
3600
3600
1400
1C00
1C00
0800
1800
1800
7000
6000
ENDCHAR
STARTCHAR uni04F4
ENCODING 1268
SWIDTH 684 0
DWIDTH 14 0
BBX 10 17 2 0
BITMAP
3300
3300
0000
C0C0
C0C0
C0C0
C0C0
C0C0
C0C0
C0C0
FFC0
3FC0
00C0
00C0
00C0
00C0
00C0
ENDCHAR
STARTCHAR uni04F5
ENCODING 1269
SWIDTH 543 0
DWIDTH 11 0
BBX 8 15 1 0
BITMAP
66
66
00
00
C1
C1
C1
C1
C1
E1
7F
3F
01
01
01
ENDCHAR
STARTCHAR uni04F6
ENCODING 1270
SWIDTH 556 0
DWIDTH 11 0
BBX 8 17 2 -3
BITMAP
FF
FF
C0
C0
C0
C0
C0
C0
C0
C0
C0
C0
E0
E0
60
60
60
ENDCHAR
STARTCHAR uni04F7
ENCODING 1271
SWIDTH 419 0
DWIDTH 8 0
BBX 7 14 1 -3
BITMAP
FE
FE
C0
C0
C0
C0
C0
C0
C0
F0
F0
30
30
30
ENDCHAR
STARTCHAR uni04F8
ENCODING 1272
SWIDTH 864 0
DWIDTH 17 0
BBX 13 17 2 0
BITMAP
0CC0
0CC0
0000
C008
C008
C008
C008
C008
C008
FF08
FF88
C1C8
C0C8
C0C8
C1C8
FF88
FF08
ENDCHAR
STARTCHAR uni04F9
ENCODING 1273
SWIDTH 776 0
DWIDTH 16 0
BBX 12 15 2 0
BITMAP
1980
1980
0000
0000
8030
8030
8030
8030
FC30
FE30
8330
8330
8330
FE30
FC30
ENDCHAR
STARTCHAR uni04FA
ENCODING 1274
SWIDTH 589 0
DWIDTH 12 0
BBX 10 18 1 -4
BITMAP
7FC0
7FC0
6000
6000
6000
FC00
FC00
6000
6000
6000
6000
6000
6000
7800
1800
1800
7800
7000
ENDCHAR
STARTCHAR uni04FB
ENCODING 1275
SWIDTH 458 0
DWIDTH 9 0
BBX 8 15 1 -4
BITMAP
7F
7F
60
60
FC
FC
60
60
60
60
78
18
18
70
F0
ENDCHAR
STARTCHAR uni04FC
ENCODING 1276
SWIDTH 647 0
DWIDTH 13 0
BBX 12 18 1 -4
BITMAP
C0E0
60C0
6180
3180
1B00
1E00
0E00
0E00
1E00
3B00
3180
6180
60C0
C0F0
0030
0030
01E0
01C0
ENDCHAR
STARTCHAR uni04FD
ENCODING 1277
SWIDTH 531 0
DWIDTH 11 0
BBX 10 15 0 -4
BITMAP
6180
6300
3300
1E00
1E00
0C00
1E00
1E00
3300
6380
61C0
80C0
00C0
03C0
0380
ENDCHAR
STARTCHAR uni04FE
ENCODING 1278
SWIDTH 626 0
DWIDTH 13 0
BBX 11 14 1 0
BITMAP
C0E0
60C0
6180
3380
1B00
1E00
3F00
3F00
1E00
1B00
3180
6180
60C0
C0E0
ENDCHAR
STARTCHAR uni04FF
ENCODING 1279
SWIDTH 495 0
DWIDTH 10 0
BBX 9 11 0 0
BITMAP
6180
6300
3300
1E00
1E00
3F00
3F00
1E00
3300
2300
E180
ENDCHAR
STARTCHAR uni0500
ENCODING 1280
SWIDTH 620 0
DWIDTH 12 0
BBX 10 14 1 0
BITMAP
00C0
00C0
00C0
00C0
00C0
00C0
3FC0
7FC0
C0C0
C0C0
C0C0
C0C0
7FC0
3FC0
ENDCHAR
STARTCHAR uni0501
ENCODING 1281
SWIDTH 563 0
DWIDTH 11 0
BBX 9 15 1 0
BITMAP
0180
0180
0180
0180
3D80
7F80
E380
C180
C180
C180
C180
C180
E380
7F80
3D80
ENDCHAR
STARTCHAR uni0502
ENCODING 1282
SWIDTH 822 0
DWIDTH 16 0
BBX 15 14 1 0
BITMAP
00C0
00C0
00C0
00C0
00C0
00C0
3FC0
FFCC
C0C6
C0C6
C0C6
C0CC
7FFC
3FF8
ENDCHAR
STARTCHAR uni0503
ENCODING 1283
SWIDTH 861 0
DWIDTH 17 0
BBX 15 15 1 0
BITMAP
0180
0180
0180
0180
3D80
7F80
E386
C186
C186
C186
C186
C186
E38C
7FFC
3CF0
ENDCHAR
STARTCHAR uni0504
ENCODING 1284
SWIDTH 791 0
DWIDTH 16 0
BBX 14 14 1 0
BITMAP
FC00
FE00
0700
0300
0300
0718
3E08
3E0C
070C
030C
0318
0318
03F0
01E0
ENDCHAR
STARTCHAR uni0505
ENCODING 1285
SWIDTH 645 0
DWIDTH 13 0
BBX 11 11 1 0
BITMAP
F800
FC00
0C00
0C60
0C60
F860
FC60
0C60
0C60
07C0
0780
ENDCHAR
STARTCHAR uni0506
ENCODING 1286
SWIDTH 535 0
DWIDTH 11 0
BBX 9 17 1 -3
BITMAP
F800
FE00
0600
0200
0200
0600
7C00
7C00
0600
0600
0200
0200
0380
0380
0180
0180
0300
ENDCHAR
STARTCHAR uni0507
ENCODING 1287
SWIDTH 503 0
DWIDTH 10 0
BBX 9 14 1 -3
BITMAP
F800
FE00
0600
0600
0600
7C00
7C00
0600
0600
0780
0780
0100
0300
0200
ENDCHAR
STARTCHAR uni0508
ENCODING 1288
SWIDTH 969 0
DWIDTH 19 0
BBX 18 14 0 0
BITMAP
0FF000
0FF000
083000
183000
183000
1830C0
1830C0
1830C0
1830C0
1830C0
1830C0
3839C0
F01F80
E00F00
ENDCHAR
STARTCHAR uni0509
ENCODING 1289
SWIDTH 807 0
DWIDTH 16 0
BBX 14 11 1 0
BITMAP
3F80
3F80
318C
318C
3184
3184
2184
618C
618C
E1F8
C0F0
ENDCHAR
STARTCHAR uni050A
ENCODING 1290
SWIDTH 997 0
DWIDTH 20 0
BBX 17 14 2 0
BITMAP
C0C000
C0C000
C0C000
C0C000
C0C000
C0C300
FFC100
FFC180
C0C180
C0C180
C0C300
C06300
C07E00
C03C00
ENDCHAR
STARTCHAR uni050B
ENCODING 1291
SWIDTH 828 0
DWIDTH 17 0
BBX 14 11 2 0
BITMAP
8300
8300
8308
830C
FF0C
FF0C
830C
830C
8198
81F8
80F0
ENDCHAR
STARTCHAR uni050C
ENCODING 1292
SWIDTH 620 0
DWIDTH 12 0
BBX 10 14 1 0
BITMAP
1F00
3F80
7080
E000
C000
C000
C0C0
C0C0
C0C0
C0C0
E0C0
70C0
3F80
1F00
ENDCHAR
STARTCHAR uni050D
ENCODING 1293
SWIDTH 514 0
DWIDTH 10 0
BBX 8 11 1 0
BITMAP
3E
7E
E2
C0
C0
C0
C3
C3
E3
7F
3E
ENDCHAR
STARTCHAR uni050E
ENCODING 1294
SWIDTH 709 0
DWIDTH 14 0
BBX 13 14 0 0
BITMAP
FFF0
FFF0
0600
0600
0600
0618
0618
0618
0618
0618
0618
0638
07F0
03E0
ENDCHAR
STARTCHAR uni050F
ENCODING 1295
SWIDTH 640 0
DWIDTH 13 0
BBX 11 11 1 0
BITMAP
FF80
FF80
1800
18C0
1860
1860
1860
1860
1CE0
0FC0
0780
ENDCHAR
STARTCHAR uni0510
ENCODING 1296
SWIDTH 673 0
DWIDTH 13 0
BBX 11 14 1 0
BITMAP
1F00
7FC0
60E0
C060
C000
6000
3F00
3F00
6000
C000
C060
60E0
7FC0
1F80
ENDCHAR
STARTCHAR uni0511
ENCODING 1297
SWIDTH 539 0
DWIDTH 11 0
BBX 9 11 1 0
BITMAP
3E00
7F00
C180
C000
7C00
7C00
C000
C000
E180
7F00
3E00
ENDCHAR
STARTCHAR uni0512
ENCODING 1298
SWIDTH 750 0
DWIDTH 15 0
BBX 14 18 0 -4
BITMAP
0FF0
0FF0
1830
1830
1830
1830
1830
1830
1830
1830
1830
3030
F030
E03C
000C
000C
003C
0038
ENDCHAR
STARTCHAR uni0513
ENCODING 1299
SWIDTH 618 0
DWIDTH 12 0
BBX 11 15 1 -4
BITMAP
3F80
3F80
3180
3180
3180
3180
3180
2180
6180
E180
C1E0
0060
0060
01E0
01C0
ENDCHAR
STARTCHAR uni1E00
ENCODING 7680
SWIDTH 652 0
DWIDTH 13 0
BBX 13 18 0 -4
BITMAP
0700
0700
0500
0D80
0D80
0880
18C0
18C0
3060
3FE0
3FE0
6030
6030
C018
0000
0700
0500
0700
ENDCHAR
STARTCHAR uni1E01
ENCODING 7681
SWIDTH 543 0
DWIDTH 11 0
BBX 9 15 1 -4
BITMAP
3E00
7F00
C300
0100
3F00
7F00
E100
C100
C300
7F80
3D80
0000
1800
2400
1800
ENDCHAR
STARTCHAR uni1E3E
ENCODING 7742
SWIDTH 873 0
DWIDTH 17 0
BBX 14 18 2 0
BITMAP
01C0
0300
0300
0000
C01C
E01C
E03C
B03C
B02C
906C
986C
98CC
CCCC
CC8C
C58C
C70C
C70C
C30C
ENDCHAR
STARTCHAR uni1E3F
ENCODING 7743
SWIDTH 876 0
DWIDTH 18 0
BBX 14 16 2 0
BITMAP
01C0
0180
0300
0000
0000
BC78
FEFC
C78C
8304
8304
8304
8304
8304
8304
8304
8304
ENDCHAR
STARTCHAR Wgrave
ENCODING 7808
SWIDTH 887 0
DWIDTH 18 0
BBX 16 18 1 0
BITMAP
0700
0300
0180
0000
C183
C183
C383
C3C2
63C6
6246
6666
6664
242C
3C2C
3C3C
3838
1818
1818
ENDCHAR
STARTCHAR wgrave
ENCODING 7809
SWIDTH 751 0
DWIDTH 15 0
BBX 15 16 0 0
BITMAP
0E00
0300
0100
0000
0000
C106
638C
638C
628C
26C8
36D8
3458
3450
1C70
1830
1830
ENDCHAR
STARTCHAR Wacute
ENCODING 7810
SWIDTH 887 0
DWIDTH 18 0
BBX 16 18 1 0
BITMAP
0060
00C0
0180
0000
C183
C183
C383
C3C2
63C6
6246
6666
6664
242C
3C2C
3C3C
3838
1818
1818
ENDCHAR
STARTCHAR wacute
ENCODING 7811
SWIDTH 751 0
DWIDTH 15 0
BBX 15 16 0 0
BITMAP
00E0
0180
0300
0000
0000
C106
638C
638C
628C
26C8
36D8
3458
3450
1C70
1830
1830
ENDCHAR
STARTCHAR Wdieresis
ENCODING 7812
SWIDTH 887 0
DWIDTH 18 0
BBX 16 17 1 0
BITMAP
0660
0660
0000
C183
C183
C383
C3C2
63C6
6246
6666
6664
242C
3C2C
3C3C
3838
1818
1818
ENDCHAR
STARTCHAR wdieresis
ENCODING 7813
SWIDTH 751 0
DWIDTH 15 0
BBX 15 15 0 0
BITMAP
0C60
0C60
0000
0000
C106
638C
638C
628C
26C8
36D8
3458
3450
1C70
1830
1830
ENDCHAR
STARTCHAR uni1EA0
ENCODING 7840
SWIDTH 652 0
DWIDTH 13 0
BBX 13 17 0 -3
BITMAP
0700
0700
0500
0D80
0D80
0880
18C0
18C0
3060
3FE0
3FE0
6030
6030
C018
0000
0300
0300
ENDCHAR
STARTCHAR uni1EA1
ENCODING 7841
SWIDTH 543 0
DWIDTH 11 0
BBX 9 14 1 -3
BITMAP
3E00
7F00
C300
0100
3F00
7F00
E100
C100
C300
7F80
3D80
0000
1800
1800
ENDCHAR
STARTCHAR uni1EA2
ENCODING 7842
SWIDTH 652 0
DWIDTH 13 0
BBX 13 19 0 0
BITMAP
0300
0180
0380
0200
0000
0700
0700
0500
0D80
0D80
0880
18C0
18C0
3060
3FE0
3FE0
6030
6030
C018
ENDCHAR
STARTCHAR uni1EA3
ENCODING 7843
SWIDTH 543 0
DWIDTH 11 0
BBX 9 17 1 0
BITMAP
0C00
0600
0E00
0800
0000
0000
3E00
7F00
C300
0100
3F00
7F00
E100
C100
C300
7F80
3D80
ENDCHAR
STARTCHAR uni1EA4
ENCODING 7844
SWIDTH 652 0
DWIDTH 13 0
BBX 13 20 0 0
BITMAP
0018
0030
0760
0D80
18C0
0000
0700
0700
0500
0D80
0D80
0880
18C0
18C0
3060
3FE0
3FE0
6030
6030
C018
ENDCHAR
STARTCHAR uni1EA5
ENCODING 7845
SWIDTH 543 0
DWIDTH 11 0
BBX 11 17 1 0
BITMAP
0060
00C0
1C80
3600
6300
0000
3E00
7F00
C300
0100
3F00
7F00
E100
C100
C300
7F80
3D80
ENDCHAR
STARTCHAR uni1EA6
ENCODING 7846
SWIDTH 652 0
DWIDTH 13 0
BBX 13 20 0 0
BITMAP
E000
6000
3700
0D80
18C0
0000
0700
0700
0500
0D80
0D80
0880
18C0
18C0
3060
3FE0
3FE0
6030
6030
C018
ENDCHAR
STARTCHAR uni1EA7
ENCODING 7847
SWIDTH 543 0
DWIDTH 11 0
BBX 11 17 -1 0
BITMAP
E000
6000
3700
0D80
18C0
0000
0F80
1FC0
30C0
0040
0FC0
1FC0
3840
3040
30C0
1FE0
0F60
ENDCHAR
STARTCHAR uni1EA8
ENCODING 7848
SWIDTH 652 0
DWIDTH 13 0
BBX 13 20 0 0
BITMAP
0060
0010
0760
0D80
18C0
0000
0700
0700
0500
0D80
0D80
0880
18C0
18C0
3060
3FE0
3FE0
6030
6030
C018
ENDCHAR
STARTCHAR uni1EA9
ENCODING 7849
SWIDTH 543 0
DWIDTH 11 0
BBX 10 17 1 0
BITMAP
0180
0040
1D80
3600
6300
0000
3E00
7F00
C300
0100
3F00
7F00
E100
C100
C300
7F80
3D80
ENDCHAR
STARTCHAR uni1EAA
ENCODING 7850
SWIDTH 652 0
DWIDTH 13 0
BBX 13 20 0 0
BITMAP
0E80
0B80
0000
0700
18C0
0000
0700
0700
0500
0D80
0D80
0880
18C0
18C0
3060
3FE0
3FE0
6030
6030
C018
ENDCHAR
STARTCHAR uni1EAB
ENCODING 7851
SWIDTH 543 0
DWIDTH 11 0
BBX 9 17 1 0
BITMAP
1A00
2600
0000
1C00
6300
0000
3E00
7F00
C300
0100
3F00
7F00
E100
C100
C300
7F80
3D80
ENDCHAR
STARTCHAR uni1EAC
ENCODING 7852
SWIDTH 652 0
DWIDTH 13 0
BBX 13 21 0 -3
BITMAP
0300
0580
0CC0
0000
0700
0700
0500
0D80
0D80
0880
18C0
18C0
3060
3FE0
3FE0
6030
6030
C018
0000
0300
0300
ENDCHAR
STARTCHAR uni1EAD
ENCODING 7853
SWIDTH 543 0
DWIDTH 11 0
BBX 9 19 1 -3
BITMAP
0C00
1600
3300
0000
0000
3E00
7F00
C300
0100
3F00
7F00
E100
C100
C300
7F80
3D80
0000
1800
1800
ENDCHAR
STARTCHAR uni1EAE
ENCODING 7854
SWIDTH 652 0
DWIDTH 13 0
BBX 13 19 0 0
BITMAP
0180
0200
0880
0F80
0000
0700
0700
0500
0D80
0D80
0880
18C0
18C0
3060
3FE0
3FE0
6030
6030
C018
ENDCHAR
STARTCHAR uni1EAF
ENCODING 7855
SWIDTH 543 0
DWIDTH 11 0
BBX 9 16 1 0
BITMAP
0600
0800
2300
1E00
0000
3E00
7F00
C300
0100
3F00
7F00
E100
C100
C300
7F80
3D80
ENDCHAR
STARTCHAR uni1EB0
ENCODING 7856
SWIDTH 652 0
DWIDTH 13 0
BBX 13 19 0 0
BITMAP
0400
0200
0880
0F80
0000
0700
0700
0500
0D80
0D80
0880
18C0
18C0
3060
3FE0
3FE0
6030
6030
C018
ENDCHAR
STARTCHAR uni1EB1
ENCODING 7857
SWIDTH 543 0
DWIDTH 11 0
BBX 9 16 1 0
BITMAP
1800
0800
2300
1E00
0000
3E00
7F00
C300
0100
3F00
7F00
E100
C100
C300
7F80
3D80
ENDCHAR
STARTCHAR uni1EB2
ENCODING 7858
SWIDTH 652 0
DWIDTH 13 0
BBX 13 20 0 0
BITMAP
0300
0180
0200
0880
0F00
0000
0700
0700
0500
0D80
0D80
0880
18C0
18C0
3060
3FE0
3FE0
6030
6030
C018
ENDCHAR
STARTCHAR uni1EB3
ENCODING 7859
SWIDTH 543 0
DWIDTH 11 0
BBX 9 17 1 0
BITMAP
0C00
0600
0800
2200
1E00
0000
3E00
7F00
C300
0100
3F00
7F00
E100
C100
C300
7F80
3D80
ENDCHAR
STARTCHAR uni1EB4
ENCODING 7860
SWIDTH 652 0
DWIDTH 13 0
BBX 13 20 0 0
BITMAP
0E80
0980
0000
0880
0F80
0000
0700
0700
0500
0D80
0D80
0880
18C0
18C0
3060
3FE0
3FE0
6030
6030
C018
ENDCHAR
STARTCHAR uni1EB5
ENCODING 7861
SWIDTH 543 0
DWIDTH 11 0
BBX 9 17 1 0
BITMAP
1A00
2600
0000
2200
1E00
0000
3E00
7F00
C300
0100
3F00
7F00
E100
C100
C300
7F80
3D80
ENDCHAR
STARTCHAR uni1EB6
ENCODING 7862
SWIDTH 652 0
DWIDTH 13 0
BBX 13 20 0 -3
BITMAP
0CC0
0780
0000
0700
0700
0500
0D80
0D80
0880
18C0
18C0
3060
3FE0
3FE0
6030
6030
C018
0000
0300
0300
ENDCHAR
STARTCHAR uni1EB7
ENCODING 7863
SWIDTH 543 0
DWIDTH 11 0
BBX 9 17 1 -3
BITMAP
3300
1E00
0000
3E00
7F00
C300
0100
3F00
7F00
E100
C100
C300
7F80
3D80
0000
1800
1800
ENDCHAR
STARTCHAR uni1EB8
ENCODING 7864
SWIDTH 568 0
DWIDTH 11 0
BBX 9 17 2 -3
BITMAP
FF80
FF80
C000
C000
C000
C000
FF00
FF00
C000
C000
C000
C000
FF80
FF80
0000
1800
1800
ENDCHAR
STARTCHAR uni1EB9
ENCODING 7865
SWIDTH 529 0
DWIDTH 11 0
BBX 9 14 1 -3
BITMAP
1E00
7F00
6180
C180
FF80
FF80
C000
C000
6100
7F80
1E00
0000
0800
1C00
ENDCHAR
STARTCHAR uni1EBA
ENCODING 7866
SWIDTH 568 0
DWIDTH 11 0
BBX 9 19 2 0
BITMAP
1C00
0400
0C00
1800
0000
FF80
FF80
C000
C000
C000
C000
FF00
FF00
C000
C000
C000
C000
FF80
FF80
ENDCHAR
STARTCHAR uni1EBB
ENCODING 7867
SWIDTH 529 0
DWIDTH 11 0
BBX 9 17 1 0
BITMAP
0C00
0600
0E00
0800
0000
0000
1E00
7F00
6180
C180
FF80
FF80
C000
C000
6100
7F80
1E00
ENDCHAR
STARTCHAR uni1EBC
ENCODING 7868
SWIDTH 568 0
DWIDTH 11 0
BBX 9 17 2 0
BITMAP
7300
4E00
0000
FF80
FF80
C000
C000
C000
C000
FF00
FF00
C000
C000
C000
C000
FF80
FF80
ENDCHAR
STARTCHAR uni1EBD
ENCODING 7869
SWIDTH 529 0
DWIDTH 11 0
BBX 9 15 1 0
BITMAP
3900
4E00
0000
0000
1E00
7F00
6180
C180
FF80
FF80
C000
C000
6100
7F80
1E00
ENDCHAR
STARTCHAR uni1EBE
ENCODING 7870
SWIDTH 568 0
DWIDTH 11 0
BBX 10 20 2 0
BITMAP
00C0
0180
1980
3E00
E700
0000
FF80
FF80
C000
C000
C000
C000
FF00
FF00
C000
C000
C000
C000
FF80
FF80
ENDCHAR
STARTCHAR uni1EBF
ENCODING 7871
SWIDTH 529 0
DWIDTH 11 0
BBX 11 17 1 0
BITMAP
00E0
00C0
1D80
3600
6300
0000
1E00
7F00
6180
C180
FF80
FF80
C000
C000
6100
7F80
1E00
ENDCHAR
STARTCHAR uni1EC0
ENCODING 7872
SWIDTH 568 0
DWIDTH 11 0
BBX 11 20 0 0
BITMAP
C000
6000
6600
0F00
39C0
0000
3FE0
3FE0
3000
3000
3000
3000
3FC0
3FC0
3000
3000
3000
3000
3FE0
3FE0
ENDCHAR
STARTCHAR uni1EC1
ENCODING 7873
SWIDTH 529 0
DWIDTH 11 0
BBX 11 17 -1 0
BITMAP
E000
6000
3700
0D80
18C0
0000
0780
1FC0
1860
3060
3FE0
3FE0
3000
3000
1840
1FE0
0780
ENDCHAR
STARTCHAR uni1EC2
ENCODING 7874
SWIDTH 568 0
DWIDTH 11 0
BBX 9 20 2 0
BITMAP
0180
0080
1900
2600
E300
0000
FF80
FF80
C000
C000
C000
C000
FF00
FF00
C000
C000
C000
C000
FF80
FF80
ENDCHAR
STARTCHAR uni1EC3
ENCODING 7875
SWIDTH 529 0
DWIDTH 11 0
BBX 10 17 1 0
BITMAP
0180
00C0
1D00
3600
6300
0000
1E00
7F00
6180
C180
FF80
FF80
C000
C000
6100
7F80
1E00
ENDCHAR
STARTCHAR uni1EC4
ENCODING 7876
SWIDTH 568 0
DWIDTH 11 0
BBX 9 20 2 0
BITMAP
3200
4C00
0000
3C00
E700
0000
FF80
FF80
C000
C000
C000
C000
FF00
FF00
C000
C000
C000
C000
FF80
FF80
ENDCHAR
STARTCHAR uni1EC5
ENCODING 7877
SWIDTH 529 0
DWIDTH 11 0
BBX 9 17 1 0
BITMAP
3A00
2E00
0000
1C00
6300
0000
1E00
7F00
6180
C180
FF80
FF80
C000
C000
6100
7F80
1E00
ENDCHAR
STARTCHAR uni1EC6
ENCODING 7878
SWIDTH 568 0
DWIDTH 11 0
BBX 9 21 2 -3
BITMAP
1800
3C00
6600
0000
FF80
FF80
C000
C000
C000
C000
FF00
FF00
C000
C000
C000
C000
FF80
FF80
0000
1800
1800
ENDCHAR
STARTCHAR uni1EC7
ENCODING 7879
SWIDTH 529 0
DWIDTH 11 0
BBX 9 19 1 -3
BITMAP
1C00
3600
2200
0000
0000
1E00
7F00
6180
C180
FF80
FF80
C000
C000
6100
7F80
1E00
0000
0800
1C00
ENDCHAR
STARTCHAR uni1EC8
ENCODING 7880
SWIDTH 271 0
DWIDTH 5 0
BBX 3 19 2 0
BITMAP
C0
60
E0
80
00
C0
C0
C0
C0
C0
C0
C0
C0
C0
C0
C0
C0
C0
C0
ENDCHAR
STARTCHAR uni1EC9
ENCODING 7881
SWIDTH 247 0
DWIDTH 5 0
BBX 3 17 2 0
BITMAP
C0
60
E0
80
00
00
80
80
80
80
80
80
80
80
80
80
80
ENDCHAR
STARTCHAR uni1ECA
ENCODING 7882
SWIDTH 271 0
DWIDTH 5 0
BBX 2 17 2 -3
BITMAP
C0
C0
C0
C0
C0
C0
C0
C0
C0
C0
C0
C0
C0
C0
00
C0
C0
ENDCHAR
STARTCHAR uni1ECB
ENCODING 7883
SWIDTH 242 0
DWIDTH 5 0
BBX 3 18 1 -3
BITMAP
40
E0
00
00
40
40
40
40
40
40
40
40
40
40
40
00
C0
C0
ENDCHAR
STARTCHAR uni1ECC
ENCODING 7884
SWIDTH 687 0
DWIDTH 14 0
BBX 12 17 1 -3
BITMAP
1F00
3FC0
70E0
6060
C060
C030
C030
C030
C030
C060
6060
70E0
3FC0
1F00
0000
0600
0600
ENDCHAR
STARTCHAR uni1ECD
ENCODING 7885
SWIDTH 570 0
DWIDTH 11 0
BBX 9 14 1 -3
BITMAP
3E00
7F00
E380
C180
C180
C180
C180
C180
E380
7F00
3E00
0000
0C00
0C00
ENDCHAR
STARTCHAR uni1ECE
ENCODING 7886
SWIDTH 687 0
DWIDTH 14 0
BBX 12 19 1 0
BITMAP
0600
0100
0700
0600
0000
1F00
3FC0
70E0
6060
C060
C030
C030
C030
C030
C060
6060
70E0
3FC0
1F00
ENDCHAR
STARTCHAR uni1ECF
ENCODING 7887
SWIDTH 570 0
DWIDTH 11 0
BBX 9 17 1 0
BITMAP
0C00
0600
0E00
0800
0000
0000
3E00
7F00
E380
C180
C180
C180
C180
C180
E380
7F00
3E00
ENDCHAR
STARTCHAR uni1ED0
ENCODING 7888
SWIDTH 687 0
DWIDTH 14 0
BBX 12 20 1 0
BITMAP
0030
0060
0640
1F00
3980
0000
1F00
3FC0
70E0
6060
C060
C030
C030
C030
C030
C060
6060
70E0
3FC0
1F00
ENDCHAR
STARTCHAR uni1ED1
ENCODING 7889
SWIDTH 570 0
DWIDTH 11 0
BBX 11 17 1 0
BITMAP
0060
00C0
1D80
3600
6300
0000
3E00
7F00
E380
C180
C180
C180
C180
C180
E380
7F00
3E00
ENDCHAR
STARTCHAR uni1ED2
ENCODING 7890
SWIDTH 687 0
DWIDTH 14 0
BBX 12 20 1 0
BITMAP
C000
4000
6600
1F00
3980
0000
1F00
3FC0
70E0
6060
C060
C030
C030
C030
C030
C060
6060
70E0
3FC0
1F00
ENDCHAR
STARTCHAR uni1ED3
ENCODING 7891
SWIDTH 570 0
DWIDTH 11 0
BBX 11 17 -1 0
BITMAP
E000
6000
3700
0D80
18C0
0000
0F80
1FC0
38E0
3060
3060
3060
3060
3060
38E0
1FC0
0F80
ENDCHAR
STARTCHAR uni1ED4
ENCODING 7892
SWIDTH 687 0
DWIDTH 14 0
BBX 12 20 1 0
BITMAP
0060
00A0
0E40
1B00
3180
0000
1F00
3FC0
70E0
6060
C060
C030
C030
C030
C030
C060
6060
70E0
3FC0
1F00
ENDCHAR
STARTCHAR uni1ED5
ENCODING 7893
SWIDTH 570 0
DWIDTH 11 0
BBX 10 17 1 0
BITMAP
0180
0040
1D80
3600
6300
0000
3E00
7F00
E380
C180
C180
C180
C180
C180
E380
7F00
3E00
ENDCHAR
STARTCHAR uni1ED6
ENCODING 7894
SWIDTH 687 0
DWIDTH 14 0
BBX 12 20 1 0
BITMAP
0D00
1300
0000
0F00
3980
0000
1F00
3FC0
70E0
6060
C060
C030
C030
C030
C030
C060
6060
70E0
3FC0
1F00
ENDCHAR
STARTCHAR uni1ED7
ENCODING 7895
SWIDTH 570 0
DWIDTH 11 0
BBX 9 17 1 0
BITMAP
1A00
2600
0000
1C00
6300
0000
3E00
7F00
E380
C180
C180
C180
C180
C180
E380
7F00
3E00
ENDCHAR
STARTCHAR uni1ED8
ENCODING 7896
SWIDTH 687 0
DWIDTH 14 0
BBX 12 21 1 -3
BITMAP
0600
0F00
1980
0000
1F00
3FC0
70E0
6060
C060
C030
C030
C030
C030
C060
6060
70E0
3FC0
1F00
0000
0600
0600
ENDCHAR
STARTCHAR uni1ED9
ENCODING 7897
SWIDTH 570 0
DWIDTH 11 0
BBX 9 19 1 -3
BITMAP
0C00
1600
3300
0000
0000
3E00
7F00
E380
C180
C180
C180
C180
C180
E380
7F00
3E00
0000
0C00
0C00
ENDCHAR
STARTCHAR uni1EDA
ENCODING 7898
SWIDTH 686 0
DWIDTH 14 0
BBX 13 18 1 0
BITMAP
0380
0300
0600
0018
1F18
3FF0
70E0
6060
C060
C020
C030
C030
C020
C060
6060
70E0
3FC0
1F00
ENDCHAR
STARTCHAR uni1EDB
ENCODING 7899
SWIDTH 571 0
DWIDTH 11 0
BBX 11 16 1 0
BITMAP
0700
0C00
0C00
0000
0060
3E40
7FC0
E380
C180
C180
8180
C180
C180
E380
7F00
3E00
ENDCHAR
STARTCHAR uni1EDC
ENCODING 7900
SWIDTH 686 0
DWIDTH 14 0
BBX 13 18 1 0
BITMAP
1800
0C00
0600
0018
1F18
3FF0
70E0
6060
C060
C020
C030
C030
C020
C060
6060
70E0
3FC0
1F00
ENDCHAR
STARTCHAR uni1EDD
ENCODING 7901
SWIDTH 571 0
DWIDTH 11 0
BBX 11 16 1 0
BITMAP
3000
1800
0C00
0000
0060
3E40
7FC0
E380
C180
C180
8180
C180
C180
E380
7F00
3E00
ENDCHAR
STARTCHAR uni1EDE
ENCODING 7902
SWIDTH 686 0
DWIDTH 14 0
BBX 13 19 1 0
BITMAP
0600
0100
0700
0600
0018
1F18
3FF0
70E0
6060
C060
C020
C030
C030
C020
C060
6060
70E0
3FC0
1F00
ENDCHAR
STARTCHAR uni1EDF
ENCODING 7903
SWIDTH 571 0
DWIDTH 11 0
BBX 11 17 1 0
BITMAP
0C00
0600
0E00
0800
0000
0060
3E40
7FC0
E380
C180
C180
8180
C180
C180
E380
7F00
3E00
ENDCHAR
STARTCHAR uni1EE0
ENCODING 7904
SWIDTH 686 0
DWIDTH 14 0
BBX 13 17 1 0
BITMAP
1C80
3380
0018
1F18
3FF0
70E0
6060
C060
C020
C030
C030
C020
C060
6060
70E0
3FC0
1F00
ENDCHAR
STARTCHAR uni1EE1
ENCODING 7905
SWIDTH 571 0
DWIDTH 11 0
BBX 11 15 1 0
BITMAP
3900
6600
0000
0060
3E40
7FC0
E380
C180
C180
8180
C180
C180
E380
7F00
3E00
ENDCHAR
STARTCHAR uni1EE2
ENCODING 7906
SWIDTH 686 0
DWIDTH 14 0
BBX 13 18 1 -3
BITMAP
0018
1F18
3FF0
70E0
6060
C060
C020
C030
C030
C020
C060
6060
70E0
3FC0
1F00
0000
0600
0600
ENDCHAR
STARTCHAR uni1EE3
ENCODING 7907
SWIDTH 571 0
DWIDTH 11 0
BBX 11 15 1 -3
BITMAP
0060
3E40
7FC0
E380
C180
C180
8180
C180
C180
E380
7F00
3E00
0000
0C00
0C00
ENDCHAR
STARTCHAR uni1EE4
ENCODING 7908
SWIDTH 648 0
DWIDTH 13 0
BBX 11 17 1 -3
BITMAP
C060
C060
C060
C060
C060
C060
C060
C060
C060
C060
E0E0
60C0
3F80
1F00
0000
0C00
0E00
ENDCHAR
STARTCHAR uni1EE5
ENCODING 7909
SWIDTH 551 0
DWIDTH 11 0
BBX 9 14 1 -3
BITMAP
C180
C180
C180
C180
C180
C180
C180
C180
E380
7F80
3D80
0000
1800
1800
ENDCHAR
STARTCHAR uni1EE6
ENCODING 7910
SWIDTH 648 0
DWIDTH 13 0
BBX 11 19 1 0
BITMAP
0600
0300
0700
0400
0000
C060
C060
C060
C060
C060
C060
C060
C060
C060
C060
E0E0
60C0
3F80
1F00
ENDCHAR
STARTCHAR uni1EE7
ENCODING 7911
SWIDTH 551 0
DWIDTH 11 0
BBX 9 17 1 0
BITMAP
0C00
0600
0E00
0800
0000
0000
C180
C180
C180
C180
C180
C180
C180
C180
E380
7F80
3D80
ENDCHAR
STARTCHAR uni1EE8
ENCODING 7912
SWIDTH 695 0
DWIDTH 14 0
BBX 14 18 1 0
BITMAP
0380
0300
0600
0004
C064
C06C
C078
C060
C060
C060
C060
C060
C060
C060
6060
70C0
3FC0
1F00
ENDCHAR
STARTCHAR uni1EE9
ENCODING 7913
SWIDTH 618 0
DWIDTH 12 0
BBX 11 16 1 0
BITMAP
0700
0C00
0C00
0000
0020
C120
C1E0
C100
C100
C100
C100
C100
C100
C300
7F00
3D00
ENDCHAR
STARTCHAR uni1EEA
ENCODING 7914
SWIDTH 695 0
DWIDTH 14 0
BBX 14 18 1 0
BITMAP
1800
0C00
0600
0004
C064
C06C
C078
C060
C060
C060
C060
C060
C060
C060
6060
70C0
3FC0
1F00
ENDCHAR
STARTCHAR uni1EEB
ENCODING 7915
SWIDTH 618 0
DWIDTH 12 0
BBX 11 16 1 0
BITMAP
3000
1800
0C00
0000
0020
C120
C1E0
C100
C100
C100
C100
C100
C100
C300
7F00
3D00
ENDCHAR
STARTCHAR uni1EEC
ENCODING 7916
SWIDTH 695 0
DWIDTH 14 0
BBX 14 19 1 0
BITMAP
0600
0300
0700
0400
0004
C064
C06C
C078
C060
C060
C060
C060
C060
C060
C060
6060
70C0
3FC0
1F00
ENDCHAR
STARTCHAR uni1EED
ENCODING 7917
SWIDTH 618 0
DWIDTH 12 0
BBX 11 17 1 0
BITMAP
0C00
0600
0E00
0800
0000
0020
C120
C1E0
C100
C100
C100
C100
C100
C100
C300
7F00
3D00
ENDCHAR
STARTCHAR uni1EEE
ENCODING 7918
SWIDTH 695 0
DWIDTH 14 0
BBX 14 17 1 0
BITMAP
1C80
3380
0004
C064
C06C
C078
C060
C060
C060
C060
C060
C060
C060
6060
70C0
3FC0
1F00
ENDCHAR
STARTCHAR uni1EEF
ENCODING 7919
SWIDTH 618 0
DWIDTH 12 0
BBX 11 15 1 0
BITMAP
3900
6600
0000
0020
C120
C1E0
C100
C100
C100
C100
C100
C100
C300
7F00
3D00
ENDCHAR
STARTCHAR uni1EF0
ENCODING 7920
SWIDTH 695 0
DWIDTH 14 0
BBX 14 18 1 -3
BITMAP
0004
C064
C06C
C078
C060
C060
C060
C060
C060
C060
C060
6060
70C0
3FC0
1F00
0000
0600
0600
ENDCHAR
STARTCHAR uni1EF1
ENCODING 7921
SWIDTH 618 0
DWIDTH 12 0
BBX 11 15 1 -3
BITMAP
0020
C120
C1E0
C100
C100
C100
C100
C100
C100
C300
7F00
3D00
0000
1800
1C00
ENDCHAR
STARTCHAR Ygrave
ENCODING 7922
SWIDTH 600 0
DWIDTH 12 0
BBX 12 18 0 0
BITMAP
1C00
0C00
0600
0000
E070
6060
30C0
30C0
1980
1980
0F00
0F00
0600
0600
0600
0600
0600
0600
ENDCHAR
STARTCHAR ygrave
ENCODING 7923
SWIDTH 473 0
DWIDTH 9 0
BBX 9 20 0 -4
BITMAP
3000
1800
0C00
0000
0000
C180
4100
6300
6300
2200
3600
3600
1400
1C00
1C00
0800
1800
1800
7000
6000
ENDCHAR
STARTCHAR uni1EF4
ENCODING 7924
SWIDTH 600 0
DWIDTH 12 0
BBX 12 17 0 -3
BITMAP
E070
6060
30C0
30C0
1980
1980
0F00
0F00
0600
0600
0600
0600
0600
0600
0000
0600
0600
ENDCHAR
STARTCHAR uni1EF5
ENCODING 7925
SWIDTH 473 0
DWIDTH 9 0
BBX 9 16 0 -5
BITMAP
C180
4100
6300
6300
2200
3600
3600
1400
1C00
1C00
0800
1800
1800
7000
6300
0300
ENDCHAR
STARTCHAR uni1EF6
ENCODING 7926
SWIDTH 600 0
DWIDTH 12 0
BBX 12 19 0 0
BITMAP
0600
0100
0300
0600
0000
E070
6060
30C0
30C0
1980
1980
0F00
0F00
0600
0600
0600
0600
0600
0600
ENDCHAR
STARTCHAR uni1EF7
ENCODING 7927
SWIDTH 473 0
DWIDTH 9 0
BBX 9 21 0 -4
BITMAP
0C00
0200
0600
0C00
0000
0000
C180
4100
6300
6300
2200
3600
3600
1400
1C00
1C00
0800
1800
1800
7000
6000
ENDCHAR
STARTCHAR uni1EF8
ENCODING 7928
SWIDTH 600 0
DWIDTH 12 0
BBX 12 17 0 0
BITMAP
1CC0
1380
0000
E070
6060
30C0
30C0
1980
1980
0F00
0F00
0600
0600
0600
0600
0600
0600
ENDCHAR
STARTCHAR uni1EF9
ENCODING 7929
SWIDTH 473 0
DWIDTH 9 0
BBX 9 19 0 -4
BITMAP
3900
2700
0000
0000
C180
4100
6300
6300
2200
3600
3600
1400
1C00
1C00
0800
1800
1800
7000
6000
ENDCHAR
STARTCHAR uni1F4D
ENCODING 8013
SWIDTH 721 0
DWIDTH 14 0
BBX 18 15 -5 0
BITMAP
CC0000
4C3E00
487F00
30E180
01C0C0
0180C0
0180C0
0180C0
0180C0
0180C0
0180C0
01C0C0
00E180
007F00
003E00
ENDCHAR
STARTCHAR uni2000
ENCODING 8192
SWIDTH 509 0
DWIDTH 10 0
BBX 1 1 0 0
BITMAP
00
ENDCHAR
STARTCHAR uni2001
ENCODING 8193
SWIDTH 1020 0
DWIDTH 20 0
BBX 1 1 0 0
BITMAP
00
ENDCHAR
STARTCHAR uni2002
ENCODING 8194
SWIDTH 509 0
DWIDTH 10 0
BBX 1 1 0 0
BITMAP
00
ENDCHAR
STARTCHAR uni2003
ENCODING 8195
SWIDTH 1020 0
DWIDTH 20 0
BBX 1 1 0 0
BITMAP
00
ENDCHAR
STARTCHAR uni2004
ENCODING 8196
SWIDTH 340 0
DWIDTH 7 0
BBX 1 1 0 0
BITMAP
00
ENDCHAR
STARTCHAR uni2005
ENCODING 8197
SWIDTH 254 0
DWIDTH 5 0
BBX 1 1 0 0
BITMAP
00
ENDCHAR
STARTCHAR uni2006
ENCODING 8198
SWIDTH 169 0
DWIDTH 3 0
BBX 1 1 0 0
BITMAP
00
ENDCHAR
STARTCHAR uni2007
ENCODING 8199
SWIDTH 562 0
DWIDTH 11 0
BBX 1 1 0 0
BITMAP
00
ENDCHAR
STARTCHAR uni2008
ENCODING 8200
SWIDTH 273 0
DWIDTH 5 0
BBX 1 1 0 0
BITMAP
00
ENDCHAR
STARTCHAR uni2009
ENCODING 8201
SWIDTH 204 0
DWIDTH 4 0
BBX 1 1 0 0
BITMAP
00
ENDCHAR
STARTCHAR uni200A
ENCODING 8202
SWIDTH 102 0
DWIDTH 2 0
BBX 1 1 0 0
BITMAP
00
ENDCHAR
STARTCHAR uni200B
ENCODING 8203
SWIDTH 0 0
DWIDTH 0 0
BBX 1 1 0 0
BITMAP
00
ENDCHAR
STARTCHAR uni2010
ENCODING 8208
SWIDTH 275 0
DWIDTH 6 0
BBX 5 2 0 5
BITMAP
F8
F8
ENDCHAR
STARTCHAR uni2011
ENCODING 8209
SWIDTH 275 0
DWIDTH 6 0
BBX 5 2 0 5
BITMAP
F8
F8
ENDCHAR
STARTCHAR endash
ENCODING 8211
SWIDTH 656 0
DWIDTH 13 0
BBX 9 2 2 6
BITMAP
FF80
FF80
ENDCHAR
STARTCHAR emdash
ENCODING 8212
SWIDTH 780 0
DWIDTH 16 0
BBX 13 2 1 6
BITMAP
FFF8
FFF8
ENDCHAR
STARTCHAR uni2015
ENCODING 8213
SWIDTH 780 0
DWIDTH 16 0
BBX 13 2 1 6
BITMAP
FFF8
FFF8
ENDCHAR
STARTCHAR underscoredbl
ENCODING 8215
SWIDTH 455 0
DWIDTH 9 0
BBX 9 3 0 -3
BITMAP
FF80
0000
FF80
ENDCHAR
STARTCHAR quoteleft
ENCODING 8216
SWIDTH 199 0
DWIDTH 4 0
BBX 3 5 1 10
BITMAP
40
60
C0
C0
C0
ENDCHAR
STARTCHAR quoteright
ENCODING 8217
SWIDTH 199 0
DWIDTH 4 0
BBX 3 5 0 10
BITMAP
60
60
60
60
C0
ENDCHAR
STARTCHAR quotesinglbase
ENCODING 8218
SWIDTH 198 0
DWIDTH 4 0
BBX 3 5 0 -3
BITMAP
60
60
60
40
C0
ENDCHAR
STARTCHAR quotereversed
ENCODING 8219
SWIDTH 199 0
DWIDTH 4 0
BBX 3 5 1 10
BITMAP
C0
C0
C0
C0
60
ENDCHAR
STARTCHAR quotedblleft
ENCODING 8220
SWIDTH 353 0
DWIDTH 7 0
BBX 6 5 1 10
BITMAP
48
6C
D8
D8
D8
ENDCHAR
STARTCHAR quotedblright
ENCODING 8221
SWIDTH 356 0
DWIDTH 7 0
BBX 5 5 1 10
BITMAP
48
48
D8
D8
90
ENDCHAR
STARTCHAR quotedblbase
ENCODING 8222
SWIDTH 344 0
DWIDTH 7 0
BBX 6 5 0 -3
BITMAP
6C
6C
6C
6C
D8
ENDCHAR
STARTCHAR dagger
ENCODING 8224
SWIDTH 551 0
DWIDTH 11 0
BBX 9 14 1 0
BITMAP
0800
0800
0800
FF80
FF80
0800
0800
0800
0800
0800
0800
0800
0800
0800
ENDCHAR
STARTCHAR daggerdbl
ENCODING 8225
SWIDTH 569 0
DWIDTH 11 0
BBX 10 18 1 -4
BITMAP
0C00
0C00
0C00
FFC0
FFC0
0C00
0C00
0C00
0C00
0C00
0C00
0C00
FFC0
FFC0
0C00
0C00
0C00
0C00
ENDCHAR
STARTCHAR bullet
ENCODING 8226
SWIDTH 336 0
DWIDTH 7 0
BBX 4 4 1 5
BITMAP
70
F0
F0
70
ENDCHAR
STARTCHAR twodotenleader
ENCODING 8229
SWIDTH 470 0
DWIDTH 9 0
BBX 7 2 1 0
BITMAP
66
E6
ENDCHAR
STARTCHAR ellipsis
ENCODING 8230
SWIDTH 668 0
DWIDTH 13 0
BBX 11 2 1 0
BITMAP
6660
E660
ENDCHAR
STARTCHAR uni2027
ENCODING 8231
SWIDTH 186 0
DWIDTH 4 0
BBX 2 2 1 5
BITMAP
C0
C0
ENDCHAR
STARTCHAR perthousand
ENCODING 8240
SWIDTH 958 0
DWIDTH 19 0
BBX 17 14 1 0
BITMAP
700000
880000
884000
888000
898000
890000
720000
06E700
059980
091880
191880
111880
219980
00F700
ENDCHAR
STARTCHAR minute
ENCODING 8242
SWIDTH 174 0
DWIDTH 3 0
BBX 1 5 1 10
BITMAP
80
80
80
80
80
ENDCHAR
STARTCHAR second
ENCODING 8243
SWIDTH 319 0
DWIDTH 6 0
BBX 4 5 1 10
BITMAP
D0
D0
D0
D0
90
ENDCHAR
STARTCHAR guilsinglleft
ENCODING 8249
SWIDTH 299 0
DWIDTH 6 0
BBX 4 8 1 1
BITMAP
10
20
60
C0
C0
60
20
10
ENDCHAR
STARTCHAR guilsinglright
ENCODING 8250
SWIDTH 299 0
DWIDTH 6 0
BBX 4 8 1 1
BITMAP
C0
40
60
30
30
60
40
C0
ENDCHAR
STARTCHAR exclamdbl
ENCODING 8252
SWIDTH 514 0
DWIDTH 10 0
BBX 7 14 2 0
BITMAP
C6
C6
86
86
86
86
86
86
86
86
00
00
C6
C6
ENDCHAR
STARTCHAR fraction
ENCODING 8260
SWIDTH 454 0
DWIDTH 9 0
BBX 8 12 1 1
BITMAP
02
03
04
0C
08
18
10
20
60
40
C0
80
ENDCHAR
STARTCHAR uni2074
ENCODING 8308
SWIDTH 366 0
DWIDTH 7 0
BBX 6 8 1 6
BITMAP
18
38
38
58
98
FC
FC
18
ENDCHAR
STARTCHAR uni207F
ENCODING 8319
SWIDTH 421 0
DWIDTH 8 0
BBX 6 7 1 7
BITMAP
B8
CC
C4
C4
C4
C4
C4
ENDCHAR
STARTCHAR franc
ENCODING 8355
SWIDTH 552 0
DWIDTH 11 0
BBX 10 14 0 0
BITMAP
3FC0
3FC0
3000
3000
3000
3000
3FC0
3FC0
3000
3000
FC00
FC00
3000
3000
ENDCHAR
STARTCHAR lira
ENCODING 8356
SWIDTH 581 0
DWIDTH 12 0
BBX 10 14 1 0
BITMAP
1F00
3F80
31C0
20C0
2000
FE00
FE00
3000
FE00
FE00
3000
2000
FFC0
FFC0
ENDCHAR
STARTCHAR uni20A6
ENCODING 8358
SWIDTH 791 0
DWIDTH 16 0
BBX 16 14 0 0
BITMAP
3818
3818
3C18
3E18
3618
FFFF
FFFF
3198
FFFF
FFFF
3078
3038
3038
3018
ENDCHAR
STARTCHAR peseta
ENCODING 8359
SWIDTH 820 0
DWIDTH 16 0
BBX 14 14 1 0
BITMAP
FE30
FF30
C330
C1FC
C1FC
C1B0
C330
FF30
FC30
C030
C030
C030
C03C
C01C
ENDCHAR
STARTCHAR uni20A8
ENCODING 8360
SWIDTH 1057 0
DWIDTH 21 0
BBX 19 14 1 0
BITMAP
FF0000
FF8000
C1C000
C0C780
C0DFC0
C0D860
C1D800
FF9F00
FF07C0
C300E0
C18060
C19860
C0DFC0
C0E780
ENDCHAR
STARTCHAR uni20A9
ENCODING 8361
SWIDTH 739 0
DWIDTH 15 0
BBX 15 14 0 0
BITMAP
610C
638C
638C
628C
2288
FFFE
FFFE
36D8
FFFE
FFFE
1450
1C70
1C70
0C60
ENDCHAR
STARTCHAR uni20AA
ENCODING 8362
SWIDTH 770 0
DWIDTH 15 0
BBX 13 11 1 0
BITMAP
FF18
FF98
C198
C198
CD98
CD98
CD98
CC18
CC18
CFF8
CFF0
ENDCHAR
STARTCHAR dong
ENCODING 8363
SWIDTH 578 0
DWIDTH 12 0
BBX 11 19 1 -4
BITMAP
0180
0FE0
0FE0
0180
3D80
7F80
E380
C180
C180
C180
C180
C180
E380
7F80
3D80
0000
0000
7FC0
7FC0
ENDCHAR
STARTCHAR Euro
ENCODING 8364
SWIDTH 561 0
DWIDTH 11 0
BBX 9 14 1 0
BITMAP
0F80
1F80
3800
3000
2000
FE00
FE00
2000
FE00
FE00
3000
3000
1F80
0F80
ENDCHAR
STARTCHAR uni20B1
ENCODING 8369
SWIDTH 731 0
DWIDTH 15 0
BBX 14 14 0 0
BITMAP
3FC0
3FE0
3070
FFFC
FFFC
3010
FFFC
FFFC
3070
3FE0
3FC0
3000
3000
3000
ENDCHAR
STARTCHAR uni20B9
ENCODING 8377
SWIDTH 516 0
DWIDTH 10 0
BBX 10 14 0 0
BITMAP
7FC0
7FC0
8600
0300
7FC0
7FC0
8300
0700
7E00
7C00
3000
1800
0C00
0700
ENDCHAR
STARTCHAR uni20BA
ENCODING 8378
SWIDTH 556 0
DWIDTH 11 0
BBX 10 14 0 0
BITMAP
1800
1A00
1E00
3C00
FA00
DE00
3CC0
F8C0
D8C0
18C0
18C0
1980
1F00
1E00
ENDCHAR
STARTCHAR uni20BC
ENCODING 8380
SWIDTH 660 0
DWIDTH 13 0
BBX 11 11 1 0
BITMAP
0400
0400
1F00
3F80
64C0
C460
C460
C460
C460
C460
C460
ENDCHAR
STARTCHAR uni20BD
ENCODING 8381
SWIDTH 663 0
DWIDTH 13 0
BBX 13 14 0 0
BITMAP
3FC0
3FE0
3030
3030
3018
3010
3030
FFF0
FFC0
3000
FE00
FE00
3000
3000
ENDCHAR
STARTCHAR uni2105
ENCODING 8453
SWIDTH 737 0
DWIDTH 15 0
BBX 13 14 1 0
BITMAP
7800
4C00
CC40
C0C0
CC80
4D00
3B00
02F0
0598
0D08
0908
1118
3198
00F0
ENDCHAR
STARTCHAR uni2113
ENCODING 8467
SWIDTH 475 0
DWIDTH 10 0
BBX 8 15 1 0
BITMAP
0E
1E
33
33
33
32
36
3E
3C
F8
F0
30
18
1C
0C
ENDCHAR
STARTCHAR uni2116
ENCODING 8470
SWIDTH 1028 0
DWIDTH 21 0
BBX 18 14 2 0
BITMAP
C08F00
E09880
E098C0
F098C0
F098C0
D898C0
D88D80
CC8700
CC8000
C69F80
C28000
C38000
C18000
C18000
ENDCHAR
STARTCHAR trademark
ENCODING 8482
SWIDTH 625 0
DWIDTH 13 0
BBX 10 5 1 9
BITMAP
F4C0
44C0
4B40
4B40
4A40
ENDCHAR
STARTCHAR uni03A9.dup2
ENCODING 8486
SWIDTH 665 0
DWIDTH 13 0
BBX 11 14 1 0
BITMAP
1F00
3F80
61C0
E0C0
C060
C060
C060
C060
C060
C040
60C0
3180
FBE0
FBE0
ENDCHAR
STARTCHAR estimated
ENCODING 8494
SWIDTH 636 0
DWIDTH 13 0
BBX 10 11 2 0
BITMAP
1E00
6100
4180
C180
C1C0
FFC0
C000
C000
C000
6100
1E00
ENDCHAR
STARTCHAR oneeighth
ENCODING 8539
SWIDTH 768 0
DWIDTH 15 0
BBX 13 14 1 0
BITMAP
2000
E0C0
E080
2180
2100
2200
2670
24F8
0C88
08F8
10F8
3188
20F8
00F0
ENDCHAR
STARTCHAR threeeighths
ENCODING 8540
SWIDTH 854 0
DWIDTH 17 0
BBX 15 14 1 0
BITMAP
7800
FC20
0C30
3860
38C0
0C80
FDBC
797E
0266
063C
043C
0C66
087E
003C
ENDCHAR
STARTCHAR fiveeighths
ENCODING 8541
SWIDTH 851 0
DWIDTH 17 0
BBX 15 14 1 0
BITMAP
7800
F820
C060
F840
7CC0
0C80
FD3C
7B7C
0266
063C
0C7C
0846
187E
003C
ENDCHAR
STARTCHAR seveneighths
ENCODING 8542
SWIDTH 801 0
DWIDTH 16 0
BBX 14 14 1 0
BITMAP
FC00
FC40
08C0
1880
1180
3100
2278
66FC
04CC
0C78
0878
10CC
30FC
0078
ENDCHAR
STARTCHAR partialdiff
ENCODING 8706
SWIDTH 569 0
DWIDTH 11 0
BBX 9 15 1 0
BITMAP
3C00
7E00
8700
0380
0180
3D80
7F80
E180
C180
C180
C180
C180
E300
7F00
3E00
ENDCHAR
STARTCHAR uni0394.dup3
ENCODING 8710
SWIDTH 705 0
DWIDTH 14 0
BBX 14 14 0 0
BITMAP
0300
0380
0780
0680
0CC0
0CC0
0860
1860
1020
3030
3030
6018
7FF8
FFFC
ENDCHAR
STARTCHAR product
ENCODING 8719
SWIDTH 694 0
DWIDTH 14 0
BBX 10 16 2 -2
BITMAP
FFC0
FFC0
80C0
80C0
80C0
80C0
80C0
80C0
80C0
80C0
80C0
80C0
80C0
80C0
80C0
80C0
ENDCHAR
STARTCHAR summation
ENCODING 8721
SWIDTH 585 0
DWIDTH 12 0
BBX 11 17 1 -3
BITMAP
FFC0
FFC0
C000
6000
3000
1800
0C00
0600
0300
0600
0C00
1800
3000
6000
C000
FFE0
FFE0
ENDCHAR
STARTCHAR minus
ENCODING 8722
SWIDTH 571 0
DWIDTH 11 0
BBX 8 2 2 6
BITMAP
FF
FF
ENDCHAR
STARTCHAR radical
ENCODING 8730
SWIDTH 596 0
DWIDTH 12 0
BBX 11 14 1 0
BITMAP
0060
00C0
00C0
0180
0180
0100
E300
E300
3200
3600
3600
1C00
1C00
0800
ENDCHAR
STARTCHAR infinity
ENCODING 8734
SWIDTH 1028 0
DWIDTH 21 0
BBX 19 11 1 0
BITMAP
1E0F00
3F1F80
61B0C0
C0E0C0
C0E060
C0C060
C0E060
C0E0C0
61B0C0
3F1F80
1E0F00
ENDCHAR
STARTCHAR integral
ENCODING 8747
SWIDTH 255 0
DWIDTH 5 0
BBX 7 19 -1 -4
BITMAP
0E
1E
18
10
10
10
10
10
10
10
10
10
10
10
10
10
30
F0
E0
ENDCHAR
STARTCHAR approxequal
ENCODING 8776
SWIDTH 563 0
DWIDTH 11 0
BBX 9 7 1 3
BITMAP
7080
FF80
8F00
0000
7080
FF80
8F00
ENDCHAR
STARTCHAR notequal
ENCODING 8800
SWIDTH 548 0
DWIDTH 11 0
BBX 9 11 1 1
BITMAP
0200
0300
0200
FF80
FF80
0800
1800
FF80
FF80
2000
6000
ENDCHAR
STARTCHAR lessequal
ENCODING 8804
SWIDTH 508 0
DWIDTH 10 0
BBX 8 11 1 0
BITMAP
01
0F
3C
E0
E0
38
0F
03
00
FF
FF
ENDCHAR
STARTCHAR greaterequal
ENCODING 8805
SWIDTH 522 0
DWIDTH 10 0
BBX 9 11 1 0
BITMAP
C000
F000
1C00
0780
0780
1E00
F000
C000
0000
FF00
FF00
ENDCHAR
STARTCHAR lozenge
ENCODING 9674
SWIDTH 503 0
DWIDTH 10 0
BBX 10 14 0 0
BITMAP
0C00
1E00
1E00
3300
3300
6180
6180
E1C0
6180
3300
3300
1E00
1E00
0C00
ENDCHAR
STARTCHAR uniEE01
ENCODING 60929
SWIDTH 287 0
DWIDTH 6 0
BBX 2 10 2 2
BITMAP
C0
C0
00
00
00
00
00
00
C0
C0
ENDCHAR
STARTCHAR uniEE02
ENCODING 60930
SWIDTH 319 0
DWIDTH 6 0
BBX 5 4 1 7
BITMAP
98
98
98
98
ENDCHAR
STARTCHAR uniF6C3
ENCODING 63171
SWIDTH 251 0
DWIDTH 5 0
BBX 2 4 1 -2
BITMAP
40
40
C0
80
ENDCHAR
STARTCHAR uniFB01
ENCODING 64257
SWIDTH 553 0
DWIDTH 11 0
BBX 9 15 0 0
BITMAP
1F00
3F80
3000
3000
FC80
FC80
3080
3080
3080
3080
3080
3080
3080
3080
3080
ENDCHAR
STARTCHAR uniFB02
ENCODING 64258
SWIDTH 567 0
DWIDTH 11 0
BBX 9 15 1 0
BITMAP
1F00
3F80
6180
6180
F980
F980
6180
6180
6180
6180
6180
6180
6180
6180
6180
ENDCHAR
STARTCHAR uniFB03
ENCODING 64259
SWIDTH 853 0
DWIDTH 17 0
BBX 14 15 1 0
BITMAP
1CF8
3DFC
6188
6180
FFE4
FFE4
6184
6184
6184
6184
6184
6184
6184
6184
6184
ENDCHAR
STARTCHAR uniFB04
ENCODING 64260
SWIDTH 853 0
DWIDTH 17 0
BBX 14 15 1 0
BITMAP
1CFC
3DFC
6184
6184
FFE4
FFE4
6184
6184
6184
6184
6184
6184
6184
6184
6184
ENDCHAR
STARTCHAR uniFEFF
ENCODING 65279
SWIDTH 0 0
DWIDTH 0 0
BBX 1 1 0 0
BITMAP
00
ENDCHAR
STARTCHAR uniFFFC
ENCODING 65532
SWIDTH 1024 0
DWIDTH 21 0
BBX 19 18 1 -4
BITMAP
EEEEE0
800020
800020
000000
800020
800020
0EF080
9290A0
92E0A0
9294A0
0EF700
800020
800020
800020
000000
800020
800020
EEEEE0
ENDCHAR
STARTCHAR uniFFFD
ENCODING 65533
SWIDTH 1025 0
DWIDTH 21 0
BBX 19 19 1 -3
BITMAP
004000
00E000
01F000
03F800
07FC00
0E1E00
1C0F00
3CCF80
7FCFC0
FF8FE0
7F1FC0
3F3F80
1FFF00
0F3E00
073C00
03F800
01F000
00E000
004000
ENDCHAR
STARTCHAR .notdef
ENCODING -1
SWIDTH 443 0
DWIDTH 9 0
BBX 7 14 1 0
BITMAP
FE
82
C6
CA
AA
B2
92
92
B2
AA
CA
C6
82
FE
ENDCHAR
STARTCHAR glyph369
ENCODING -1
SWIDTH 390 0
DWIDTH 8 0
BBX 6 4 1 11
BITMAP
CC
C8
D8
70
ENDCHAR
STARTCHAR uni2009.locl
ENCODING -1
SWIDTH 125 0
DWIDTH 3 0
BBX 1 1 0 0
BITMAP
00
ENDCHAR
STARTCHAR f_f.dlig
ENCODING -1
SWIDTH 618 0
DWIDTH 12 0
BBX 11 15 1 0
BITMAP
1CE0
3DE0
6180
6180
FFE0
FFE0
6180
6180
6180
6180
6180
6180
6180
6180
6180
ENDCHAR
STARTCHAR longs_t.dlig
ENCODING -1
SWIDTH 616 0
DWIDTH 12 0
BBX 11 15 1 0
BITMAP
1F00
3F80
7180
6180
E7C0
E7C0
6180
6180
6180
6180
6180
6180
6180
61E0
61E0
ENDCHAR
STARTCHAR s_t.dlig
ENCODING -1
SWIDTH 825 0
DWIDTH 17 0
BBX 15 15 1 0
BITMAP
01F0
03F8
0318
0318
3F7E
7F7E
6318
6018
7C18
3F18
0318
0198
E318
7F1E
3E0E
ENDCHAR
STARTCHAR two.dnom
ENCODING -1
SWIDTH 366 0
DWIDTH 7 0
BBX 7 8 0 0
BITMAP
38
7C
C4
0C
18
60
7E
7E
ENDCHAR
STARTCHAR one.dnom
ENCODING -1
SWIDTH 366 0
DWIDTH 7 0
BBX 4 8 1 0
BITMAP
30
F0
F0
30
30
30
30
30
ENDCHAR
STARTCHAR zero.dnom
ENCODING -1
SWIDTH 366 0
DWIDTH 7 0
BBX 5 8 1 0
BITMAP
70
F8
88
88
88
88
F8
70
ENDCHAR
STARTCHAR nine.c2sc
ENCODING -1
SWIDTH 507 0
DWIDTH 10 0
BBX 8 11 1 0
BITMAP
3C
FE
C3
C3
C3
FF
7B
03
06
3C
38
ENDCHAR
STARTCHAR eight.c2sc
ENCODING -1
SWIDTH 507 0
DWIDTH 10 0
BBX 8 11 1 0
BITMAP
3C
7F
C3
C3
7E
7E
C3
C3
C3
FF
3C
ENDCHAR
STARTCHAR seven.c2sc
ENCODING -1
SWIDTH 507 0
DWIDTH 10 0
BBX 8 11 1 0
BITMAP
FF
FF
03
02
06
0C
0C
18
10
30
60
ENDCHAR
STARTCHAR six.c2sc
ENCODING -1
SWIDTH 506 0
DWIDTH 10 0
BBX 8 11 1 0
BITMAP
1C
3C
70
C0
DE
FF
C3
C3
E3
7F
3C
ENDCHAR
STARTCHAR five.c2sc
ENCODING -1
SWIDTH 507 0
DWIDTH 10 0
BBX 8 11 1 0
BITMAP
7F
7F
60
60
5E
7F
03
01
C3
7F
3E
ENDCHAR
STARTCHAR four.c2sc
ENCODING -1
SWIDTH 507 0
DWIDTH 10 0
BBX 10 11 0 0
BITMAP
0300
0700
0F00
0B00
1300
3300
6300
7FC0
FFC0
0300
0300
ENDCHAR
STARTCHAR three.c2sc
ENCODING -1
SWIDTH 507 0
DWIDTH 10 0
BBX 8 11 1 0
BITMAP
3C
FE
C3
03
3E
3E
03
03
C3
FE
7C
ENDCHAR
STARTCHAR two.c2sc
ENCODING -1
SWIDTH 507 0
DWIDTH 10 0
BBX 8 11 1 0
BITMAP
3C
FE
C3
C3
02
06
1C
38
60
FF
FF
ENDCHAR
STARTCHAR one.c2sc
ENCODING -1
SWIDTH 507 0
DWIDTH 10 0
BBX 5 11 1 0
BITMAP
08
38
F8
C8
08
08
08
08
08
08
08
ENDCHAR
STARTCHAR zero.c2sc
ENCODING -1
SWIDTH 507 0
DWIDTH 10 0
BBX 8 11 1 0
BITMAP
3C
7E
C3
C3
C3
C3
C3
C3
C3
7E
3C
ENDCHAR
STARTCHAR Z.c2sc
ENCODING -1
SWIDTH 517 0
DWIDTH 10 0
BBX 9 11 1 0
BITMAP
FF00
FF00
0300
0600
0C00
1800
3000
6000
C000
FF80
FF80
ENDCHAR
STARTCHAR Y.c2sc
ENCODING -1
SWIDTH 520 0
DWIDTH 10 0
BBX 10 11 0 0
BITMAP
C0C0
6180
3180
3300
1B00
1E00
0C00
0C00
0C00
0C00
0C00
ENDCHAR
STARTCHAR X.c2sc
ENCODING -1
SWIDTH 541 0
DWIDTH 11 0
BBX 10 11 0 0
BITMAP
E0C0
3180
3380
1B00
0E00
0E00
0E00
1B00
3180
7180
E0C0
ENDCHAR
STARTCHAR W.c2sc
ENCODING -1
SWIDTH 760 0
DWIDTH 15 0
BBX 15 11 0 0
BITMAP
C186
6384
638C
628C
26CC
2648
3458
3478
1C70
1830
1830
ENDCHAR
STARTCHAR V.c2sc
ENCODING -1
SWIDTH 550 0
DWIDTH 11 0
BBX 11 11 0 0
BITMAP
C060
60C0
60C0
2080
3180
3180
1B00
1B00
0A00
0E00
0E00
ENDCHAR
STARTCHAR U.c2sc
ENCODING -1
SWIDTH 560 0
DWIDTH 11 0
BBX 9 11 1 0
BITMAP
C180
C180
C180
C180
C180
C180
C180
C180
E380
7F00
3E00
ENDCHAR
STARTCHAR T.c2sc
ENCODING -1
SWIDTH 518 0
DWIDTH 10 0
BBX 10 11 0 0
BITMAP
FFC0
FFC0
0C00
0C00
0C00
0C00
0C00
0C00
0C00
0C00
0C00
ENDCHAR
STARTCHAR S.c2sc
ENCODING -1
SWIDTH 515 0
DWIDTH 10 0
BBX 9 11 1 0
BITMAP
3E00
7F00
C300
C080
7800
3F00
0700
8180
C380
FF00
3E00
ENDCHAR
STARTCHAR R.c2sc
ENCODING -1
SWIDTH 536 0
DWIDTH 11 0
BBX 10 11 1 0
BITMAP
FE00
FF00
C180
C180
C180
FF00
FE00
C600
C300
C180
C1C0
ENDCHAR
STARTCHAR Q.c2sc
ENCODING -1
SWIDTH 591 0
DWIDTH 12 0
BBX 10 13 1 -2
BITMAP
1E00
7F80
6180
C0C0
C0C0
C0C0
C0C0
C0C0
6180
7F80
1F00
01C0
0080
ENDCHAR
STARTCHAR P.c2sc
ENCODING -1
SWIDTH 544 0
DWIDTH 11 0
BBX 9 11 1 0
BITMAP
FE00
FF80
C180
C180
C180
FF80
FF00
C000
C000
C000
C000
ENDCHAR
STARTCHAR O.c2sc
ENCODING -1
SWIDTH 591 0
DWIDTH 12 0
BBX 10 11 1 0
BITMAP
1E00
7F80
6180
C0C0
C0C0
C0C0
C0C0
C0C0
6180
7F80
1E00
ENDCHAR
STARTCHAR N.c2sc
ENCODING -1
SWIDTH 610 0
DWIDTH 12 0
BBX 10 11 1 0
BITMAP
E0C0
E0C0
F0C0
D8C0
D8C0
CCC0
C6C0
C3C0
C3C0
C1C0
C0C0
ENDCHAR
STARTCHAR M.c2sc
ENCODING -1
SWIDTH 750 0
DWIDTH 15 0
BBX 13 11 1 0
BITMAP
E038
E038
F078
D058
D8D8
D8D8
CD98
CD98
C518
C718
C218
ENDCHAR
STARTCHAR L.c2sc
ENCODING -1
SWIDTH 462 0
DWIDTH 9 0
BBX 8 11 1 0
BITMAP
C0
C0
C0
C0
C0
C0
C0
C0
C0
FF
FF
ENDCHAR
STARTCHAR K.c2sc
ENCODING -1
SWIDTH 541 0
DWIDTH 11 0
BBX 10 11 1 0
BITMAP
C1C0
C300
C600
CC00
D800
F800
EC00
C600
C300
C380
C1C0
ENDCHAR
STARTCHAR J.c2sc
ENCODING -1
SWIDTH 476 0
DWIDTH 10 0
BBX 7 11 1 0
BITMAP
02
02
02
02
02
02
02
02
C6
FE
7C
ENDCHAR
STARTCHAR I.c2sc
ENCODING -1
SWIDTH 238 0
DWIDTH 5 0
BBX 2 11 1 0
BITMAP
C0
C0
C0
C0
C0
C0
C0
C0
C0
C0
C0
ENDCHAR
STARTCHAR H.c2sc
ENCODING -1
SWIDTH 610 0
DWIDTH 12 0
BBX 10 11 1 0
BITMAP
C0C0
C0C0
C0C0
C0C0
FFC0
FFC0
C0C0
C0C0
C0C0
C0C0
C0C0
ENDCHAR
STARTCHAR G.c2sc
ENCODING -1
SWIDTH 583 0
DWIDTH 12 0
BBX 10 11 1 0
BITMAP
1F00
7F80
61C0
C000
C000
C7C0
C0C0
C0C0
60C0
7FC0
1F00
ENDCHAR
STARTCHAR F.c2sc
ENCODING -1
SWIDTH 474 0
DWIDTH 9 0
BBX 8 11 1 0
BITMAP
FF
FF
C0
C0
C0
FE
FE
C0
C0
C0
C0
ENDCHAR
STARTCHAR dollar.c2sc
ENCODING -1
SWIDTH 515 0
DWIDTH 10 0
BBX 9 15 1 -2
BITMAP
0800
0800
3E00
FF00
C300
C080
7800
3F00
0700
8180
C380
FF00
3E00
0800
0800
ENDCHAR
STARTCHAR sterling.c2sc
ENCODING -1
SWIDTH 524 0
DWIDTH 11 0
BBX 10 11 0 0
BITMAP
0F00
1F80
3180
3080
3000
FF00
3000
3000
3000
7FC0
7FC0
ENDCHAR
STARTCHAR yen.c2sc
ENCODING -1
SWIDTH 453 0
DWIDTH 9 0
BBX 9 11 0 0
BITMAP
C180
6300
6300
3600
3600
1C00
7F00
0800
7F00
0800
0800
ENDCHAR
STARTCHAR Gamma.c2sc
ENCODING -1
SWIDTH 460 0
DWIDTH 9 0
BBX 8 11 1 0
BITMAP
FF
FF
C0
C0
C0
C0
C0
C0
C0
C0
C0
ENDCHAR
STARTCHAR uni0394.c2sc
ENCODING -1
SWIDTH 550 0
DWIDTH 11 0
BBX 11 11 0 0
BITMAP
0E00
0E00
0A00
1B00
1B00
3180
3180
2080
60C0
7FC0
FFE0
ENDCHAR
STARTCHAR Theta.c2sc
ENCODING -1
SWIDTH 591 0
DWIDTH 12 0
BBX 10 11 1 0
BITMAP
1E00
7F80
6180
C0C0
DEC0
DEC0
C0C0
C0C0
6180
7F80
1E00
ENDCHAR
STARTCHAR Lambda.c2sc
ENCODING -1
SWIDTH 550 0
DWIDTH 11 0
BBX 11 11 0 0
BITMAP
0E00
0E00
0A00
1B00
1B00
3180
3180
2080
60C0
60C0
C060
ENDCHAR
STARTCHAR Xi.c2sc
ENCODING -1
SWIDTH 441 0
DWIDTH 9 0
BBX 7 11 1 0
BITMAP
FE
FE
00
00
FE
FE
00
00
00
FE
FE
ENDCHAR
STARTCHAR Pi.c2sc
ENCODING -1
SWIDTH 600 0
DWIDTH 12 0
BBX 10 11 1 0
BITMAP
FFC0
FFC0
C0C0
C0C0
C0C0
C0C0
C0C0
C0C0
C0C0
C0C0
C0C0
ENDCHAR
STARTCHAR Sigma.c2sc
ENCODING -1
SWIDTH 491 0
DWIDTH 10 0
BBX 9 11 1 0
BITMAP
FF00
FF00
C000
6000
3000
1800
3000
6000
C000
FF80
FF80
ENDCHAR
STARTCHAR Phi.c2sc
ENCODING -1
SWIDTH 675 0
DWIDTH 14 0
BBX 12 11 1 0
BITMAP
0600
1F80
7FC0
E660
C620
C630
C620
E660
7FC0
1F80
0600
ENDCHAR
STARTCHAR Psi.c2sc
ENCODING -1
SWIDTH 636 0
DWIDTH 13 0
BBX 11 11 1 0
BITMAP
C460
C460
C460
C460
C460
C460
64C0
7FC0
1F00
0400
0400
ENDCHAR
STARTCHAR uni03A9.c2sc
ENCODING -1
SWIDTH 618 0
DWIDTH 12 0
BBX 10 11 1 0
BITMAP
1E00
7F80
E1C0
C0C0
C0C0
C0C0
C0C0
40C0
6180
F3C0
F3C0
ENDCHAR
STARTCHAR uni0402.c2sc
ENCODING -1
SWIDTH 680 0
DWIDTH 14 0
BBX 12 11 1 0
BITMAP
FF00
FF00
1800
1800
1FC0
1FF0
1830
1830
1830
18F0
18C0
ENDCHAR
STARTCHAR uni0404.c2sc
ENCODING -1
SWIDTH 560 0
DWIDTH 11 0
BBX 9 11 1 0
BITMAP
3E00
7F80
E180
C080
FC00
FC00
C000
C080
E180
7F80
3E00
ENDCHAR
STARTCHAR uni0409.c2sc
ENCODING -1
SWIDTH 906 0
DWIDTH 18 0
BBX 17 11 0 0
BITMAP
1FC000
1FC000
184000
184000
107F00
107F80
104180
304080
304180
F07F80
E07F00
ENDCHAR
STARTCHAR uni040A.c2sc
ENCODING -1
SWIDTH 913 0
DWIDTH 18 0
BBX 16 11 1 0
BITMAP
C0C0
C0C0
C0C0
C0C0
FFFE
FFFF
C0C3
C0C1
C0C3
C0FF
C0FE
ENDCHAR
STARTCHAR uni040B.c2sc
ENCODING -1
SWIDTH 681 0
DWIDTH 14 0
BBX 12 11 1 0
BITMAP
FF00
FF00
1800
1800
1FC0
1FF0
1830
1830
1830
1830
1830
ENDCHAR
STARTCHAR uni040F.c2sc
ENCODING -1
SWIDTH 600 0
DWIDTH 12 0
BBX 10 14 1 -3
BITMAP
C0C0
C0C0
C0C0
C0C0
C0C0
C0C0
C0C0
C0C0
C0C0
FFC0
FFC0
0C00
0C00
0C00
ENDCHAR
STARTCHAR uni0411.c2sc
ENCODING -1
SWIDTH 543 0
DWIDTH 11 0
BBX 9 11 1 0
BITMAP
FF00
FF00
C000
C000
FE00
FF80
C180
C180
C180
FF80
FE00
ENDCHAR
STARTCHAR uni0414.c2sc
ENCODING -1
SWIDTH 642 0
DWIDTH 13 0
BBX 11 14 1 -3
BITMAP
3FC0
3FC0
30C0
30C0
30C0
30C0
30C0
60C0
60C0
FFE0
FFE0
8020
8020
8020
ENDCHAR
STARTCHAR uni0416.c2sc
ENCODING -1
SWIDTH 755 0
DWIDTH 15 0
BBX 15 11 0 0
BITMAP
610C
3118
3938
1930
0FE0
0FE0
1930
3938
3118
610C
E10E
ENDCHAR
STARTCHAR uni0417.c2sc
ENCODING -1
SWIDTH 530 0
DWIDTH 11 0
BBX 9 11 1 0
BITMAP
3E00
7F00
C180
0100
1F00
1F00
0300
0180
C380
FF00
3E00
ENDCHAR
STARTCHAR uni0418.c2sc
ENCODING -1
SWIDTH 615 0
DWIDTH 12 0
BBX 10 11 1 0
BITMAP
C0C0
C1C0
C3C0
C6C0
C6C0
CCC0
D8C0
D0C0
F0C0
E0C0
C0C0
ENDCHAR
STARTCHAR uni041A.c2sc
ENCODING -1
SWIDTH 538 0
DWIDTH 11 0
BBX 10 11 1 0
BITMAP
C180
C300
C600
CC00
F800
F800
CC00
CE00
C700
C300
C1C0
ENDCHAR
STARTCHAR uni041B.c2sc
ENCODING -1
SWIDTH 594 0
DWIDTH 12 0
BBX 11 11 0 0
BITMAP
1FE0
1FE0
1860
1860
1860
1860
1060
3060
3060
F060
E060
ENDCHAR
STARTCHAR uni0423.c2sc
ENCODING -1
SWIDTH 515 0
DWIDTH 10 0
BBX 10 11 0 0
BITMAP
C0C0
6180
6180
3300
3300
1A00
1E00
0E00
0C00
3C00
3800
ENDCHAR
STARTCHAR uni0426.c2sc
ENCODING -1
SWIDTH 644 0
DWIDTH 13 0
BBX 11 14 1 -3
BITMAP
C0C0
C0C0
C0C0
C0C0
C0C0
C0C0
C0C0
C0C0
C0C0
FFE0
FFE0
0020
0020
0020
ENDCHAR
STARTCHAR uni0427.c2sc
ENCODING -1
SWIDTH 551 0
DWIDTH 11 0
BBX 9 11 1 0
BITMAP
8180
8180
8180
8180
C180
C180
FF80
7F80
0180
0180
0180
ENDCHAR
STARTCHAR uni0428.c2sc
ENCODING -1
SWIDTH 789 0
DWIDTH 16 0
BBX 14 11 1 0
BITMAP
C30C
C30C
C30C
C30C
C30C
C30C
C30C
C30C
C30C
FFFC
FFFC
ENDCHAR
STARTCHAR uni0429.c2sc
ENCODING -1
SWIDTH 833 0
DWIDTH 17 0
BBX 14 14 2 -3
BITMAP
8618
8618
8618
8618
8618
8618
8618
8618
8618
FFFC
FFFC
0004
0004
0004
ENDCHAR
STARTCHAR uni042A.c2sc
ENCODING -1
SWIDTH 639 0
DWIDTH 13 0
BBX 12 11 0 0
BITMAP
F800
F800
1800
1800
1FC0
1FF0
1830
1830
1830
1FF0
1FC0
ENDCHAR
STARTCHAR uni042B.c2sc
ENCODING -1
SWIDTH 742 0
DWIDTH 15 0
BBX 13 11 1 0
BITMAP
C018
C018
C018
C018
FE18
FF98
C198
C198
C198
FF98
FE18
ENDCHAR
STARTCHAR uni042C.c2sc
ENCODING -1
SWIDTH 538 0
DWIDTH 11 0
BBX 9 11 1 0
BITMAP
C000
C000
C000
C000
FE00
FF80
C180
C180
C180
FF80
FE00
ENDCHAR
STARTCHAR uni042D.c2sc
ENCODING -1
SWIDTH 560 0
DWIDTH 11 0
BBX 9 11 1 0
BITMAP
3E00
FF00
C380
8180
1F80
1F80
0180
8180
C380
FF00
3E00
ENDCHAR
STARTCHAR uni042E.c2sc
ENCODING -1
SWIDTH 807 0
DWIDTH 16 0
BBX 14 11 1 0
BITMAP
C1F0
C7F8
C61C
CC0C
FC0C
FC0C
CC0C
CC0C
C61C
C3F8
C1F0
ENDCHAR
STARTCHAR uni042F.c2sc
ENCODING -1
SWIDTH 565 0
DWIDTH 11 0
BBX 9 11 1 0
BITMAP
3F80
7F80
C180
C180
C180
7F80
3F80
3180
6180
4180
C180
ENDCHAR
STARTCHAR uni0492.c2sc
ENCODING -1
SWIDTH 508 0
DWIDTH 10 0
BBX 10 11 0 0
BITMAP
3FC0
3FC0
3000
3000
3000
FC00
FC00
3000
3000
3000
3000
ENDCHAR
STARTCHAR uni0496.c2sc
ENCODING -1
SWIDTH 784 0
DWIDTH 16 0
BBX 16 14 0 -3
BITMAP
618E
319C
1998
1DB0
0FE0
0FF0
1DB0
1998
319C
718F
618F
8003
0003
0003
ENDCHAR
STARTCHAR uni049A.c2sc
ENCODING -1
SWIDTH 559 0
DWIDTH 11 0
BBX 10 14 1 -3
BITMAP
C380
C700
CE00
CC00
F800
F800
DC00
CE00
C700
C3C0
C1C0
00C0
00C0
00C0
ENDCHAR
STARTCHAR uni049C.c2sc
ENCODING -1
SWIDTH 629 0
DWIDTH 13 0
BBX 10 11 2 0
BITMAP
81C0
8180
B300
B600
FC00
FC00
B600
B700
8380
8180
80C0
ENDCHAR
STARTCHAR uni04A0.c2sc
ENCODING -1
SWIDTH 651 0
DWIDTH 13 0
BBX 13 11 0 0
BITMAP
F830
F860
08C0
0980
0F00
0F00
0980
08C0
08E0
0870
0838
ENDCHAR
STARTCHAR uni04A8.c2sc
ENCODING -1
SWIDTH 719 0
DWIDTH 14 0
BBX 12 11 1 0
BITMAP
33C0
77E0
E630
CC30
CC30
CC30
C630
C660
E3C0
7FF0
1F70
ENDCHAR
STARTCHAR uni04B0.c2sc
ENCODING -1
SWIDTH 546 0
DWIDTH 11 0
BBX 10 11 0 0
BITMAP
C0C0
6180
3180
3300
1B00
1E00
3F00
3F00
0C00
0C00
0C00
ENDCHAR
STARTCHAR uni04B2.c2sc
ENCODING -1
SWIDTH 582 0
DWIDTH 12 0
BBX 10 14 1 -3
BITMAP
C1C0
6300
6300
3600
1C00
1C00
1E00
3600
6300
63C0
C1C0
0040
0040
0040
ENDCHAR
STARTCHAR uni04B4.c2sc
ENCODING -1
SWIDTH 797 0
DWIDTH 16 0
BBX 15 14 0 -3
BITMAP
FF98
FF98
0C18
0C18
0C18
0C18
0C18
0C18
0C18
0FFE
0FFE
0006
0006
0006
ENDCHAR
STARTCHAR uni04B8.c2sc
ENCODING -1
SWIDTH 551 0
DWIDTH 11 0
BBX 9 11 1 0
BITMAP
8180
8180
8180
8180
D980
D980
FF80
7F80
1980
1980
0180
ENDCHAR
STARTCHAR uni04BA.c2sc
ENCODING -1
SWIDTH 551 0
DWIDTH 11 0
BBX 9 11 1 0
BITMAP
C000
C000
C000
C000
FF00
FF80
C180
C080
C080
C080
C080
ENDCHAR
STARTCHAR uni04BC.c2sc
ENCODING -1
SWIDTH 720 0
DWIDTH 14 0
BBX 13 11 0 0
BITMAP
03E0
0FF0
8C18
D818
7FF8
3FF8
1800
1800
0C10
07F0
03E0
ENDCHAR
STARTCHAR uni04D8.c2sc
ENCODING -1
SWIDTH 598 0
DWIDTH 12 0
BBX 10 11 1 0
BITMAP
3E00
7F80
4180
00C0
00C0
FFC0
FFC0
C0C0
E180
7F80
3E00
ENDCHAR
STARTCHAR uni04E0.c2sc
ENCODING -1
SWIDTH 530 0
DWIDTH 11 0
BBX 9 11 1 0
BITMAP
FF00
FF00
0600
1C00
1E00
1F00
0380
0180
C380
FF00
3E00
ENDCHAR
STARTCHAR uni04E8.c2sc
ENCODING -1
SWIDTH 591 0
DWIDTH 12 0
BBX 10 11 1 0
BITMAP
1E00
7F80
6180
C0C0
FFC0
FFC0
C0C0
C0C0
6180
7F80
1E00
ENDCHAR
STARTCHAR lira.c2sc
ENCODING -1
SWIDTH 524 0
DWIDTH 11 0
BBX 9 11 1 0
BITMAP
1E00
3F00
7380
6180
6000
FE00
6000
FE00
6000
FF80
FF80
ENDCHAR
STARTCHAR Euro.c2sc
ENCODING -1
SWIDTH 485 0
DWIDTH 10 0
BBX 8 11 1 0
BITMAP
0F
3F
30
60
FE
60
FE
60
30
3F
0F
ENDCHAR
STARTCHAR uni2116.c2sc
ENCODING -1
SWIDTH 1016 0
DWIDTH 20 0
BBX 18 11 1 0
BITMAP
C0C780
E0C8C0
F0D8C0
D0D8C0
D8D8C0
CCC8C0
C6C780
C6C000
C3CF80
C1C000
C0C000
ENDCHAR
STARTCHAR uni20BD.c2sc
ENCODING -1
SWIDTH 583 0
DWIDTH 12 0
BBX 10 11 1 0
BITMAP
7F00
7FC0
60C0
60C0
60C0
FFC0
FF00
6000
FC00
FC00
6000
ENDCHAR
STARTCHAR three.dnom
ENCODING -1
SWIDTH 366 0
DWIDTH 7 0
BBX 6 8 1 0
BITMAP
70
F8
08
38
38
08
FC
78
ENDCHAR
STARTCHAR four.dnom
ENCODING -1
SWIDTH 366 0
DWIDTH 7 0
BBX 6 8 1 0
BITMAP
18
38
38
58
98
FC
FC
18
ENDCHAR
STARTCHAR five.dnom
ENCODING -1
SWIDTH 366 0
DWIDTH 7 0
BBX 6 8 1 0
BITMAP
78
F8
C0
F8
78
0C
F8
78
ENDCHAR
STARTCHAR six.dnom
ENCODING -1
SWIDTH 366 0
DWIDTH 7 0
BBX 6 8 1 0
BITMAP
30
70
C0
B8
FC
8C
F8
78
ENDCHAR
STARTCHAR seven.dnom
ENCODING -1
SWIDTH 366 0
DWIDTH 7 0
BBX 6 8 1 0
BITMAP
FC
FC
08
18
10
20
60
40
ENDCHAR
STARTCHAR eight.dnom
ENCODING -1
SWIDTH 366 0
DWIDTH 7 0
BBX 6 8 1 0
BITMAP
78
F8
C8
F8
F8
8C
F8
78
ENDCHAR
STARTCHAR nine.dnom
ENCODING -1
SWIDTH 366 0
DWIDTH 7 0
BBX 5 8 1 0
BITMAP
70
F8
88
F8
78
18
78
70
ENDCHAR
STARTCHAR glyph550
ENCODING -1
SWIDTH 448 0
DWIDTH 9 0
BBX 7 2 1 6
BITMAP
FE
FE
ENDCHAR
STARTCHAR glyph551
ENCODING -1
SWIDTH 338 0
DWIDTH 7 0
BBX 4 5 2 11
BITMAP
30
40
C0
A0
C0
ENDCHAR
STARTCHAR E.c2sc
ENCODING -1
SWIDTH 487 0
DWIDTH 10 0
BBX 8 11 1 0
BITMAP
FF
FF
C0
C0
FE
FE
C0
C0
C0
FF
FF
ENDCHAR
STARTCHAR g.ss01
ENCODING -1
SWIDTH 528 0
DWIDTH 11 0
BBX 10 15 0 -4
BITMAP
1FC0
3F80
6180
6180
6180
3F00
3E00
2000
6000
3F80
3FC0
40C0
C0C0
7F80
3F00
ENDCHAR
STARTCHAR alpha.ss02
ENCODING -1
SWIDTH 595 0
DWIDTH 12 0
BBX 10 11 1 0
BITMAP
3CC0
7EC0
6380
C180
C180
C180
C180
C180
E380
7EC0
3CC0
ENDCHAR
STARTCHAR R.ss03
ENCODING -1
SWIDTH 662 0
DWIDTH 13 0
BBX 10 14 2 0
BITMAP
FF00
FF80
8180
80C0
8080
8180
FF00
FF00
C180
C180
C080
C080
C0C0
C0C0
ENDCHAR
STARTCHAR K.ss04
ENCODING -1
SWIDTH 642 0
DWIDTH 13 0
BBX 11 14 2 0
BITMAP
C0C0
C180
C300
C700
CE00
DC00
F800
FC00
CC00
C600
C700
C380
C1C0
C0E0
ENDCHAR
STARTCHAR k.ss04
ENCODING -1
SWIDTH 509 0
DWIDTH 10 0
BBX 9 15 1 0
BITMAP
C000
C000
C000
C000
C380
C700
C600
CC00
F800
F800
CC00
C600
C600
C300
C180
ENDCHAR
STARTCHAR K.ss05
ENCODING -1
SWIDTH 654 0
DWIDTH 13 0
BBX 10 14 2 0
BITMAP
C1C0
C380
C700
CE00
DC00
F800
F000
F000
D800
CC00
C600
C300
C180
C0C0
ENDCHAR
STARTCHAR k.ss05
ENCODING -1
SWIDTH 507 0
DWIDTH 10 0
BBX 9 15 1 0
BITMAP
C000
C000
C000
C000
C300
C600
CC00
D800
F000
F000
D800
CC00
CE00
C700
C380
ENDCHAR
STARTCHAR D.c2sc
ENCODING -1
SWIDTH 562 0
DWIDTH 11 0
BBX 9 11 1 0
BITMAP
FC00
FF00
C380
C180
C180
C180
C180
C180
C380
FF00
FC00
ENDCHAR
STARTCHAR C.c2sc
ENCODING -1
SWIDTH 560 0
DWIDTH 11 0
BBX 9 11 1 0
BITMAP
3E00
7F00
E180
C180
C000
C000
C000
C180
E180
7F00
3E00
ENDCHAR
STARTCHAR B.c2sc
ENCODING -1
SWIDTH 539 0
DWIDTH 11 0
BBX 9 11 1 0
BITMAP
FE00
FF00
C380
C300
FF00
FF00
C180
C180
C180
FF00
FE00
ENDCHAR
STARTCHAR A.c2sc
ENCODING -1
SWIDTH 564 0
DWIDTH 11 0
BBX 11 11 0 0
BITMAP
0600
0E00
0F00
1B00
1900
1180
3180
3FC0
7FC0
60C0
C060
ENDCHAR
STARTCHAR glyph564
ENCODING -1
SWIDTH 248 0
DWIDTH 5 0
BBX 2 4 2 12
BITMAP
C0
C0
80
80
ENDCHAR
STARTCHAR glyph565
ENCODING -1
SWIDTH 455 0
DWIDTH 9 0
BBX 6 4 1 12
BITMAP
60
10
C4
78
ENDCHAR
STARTCHAR glyph566
ENCODING -1
SWIDTH 0 0
DWIDTH 0 0
BBX 5 5 -8 12
BITMAP
30
20
00
C8
B0
ENDCHAR
STARTCHAR glyph567
ENCODING -1
SWIDTH 491 0
DWIDTH 10 0
BBX 10 5 1 12
BITMAP
00C0
0180
3900
6C00
C600
ENDCHAR
STARTCHAR glyph568
ENCODING -1
SWIDTH 493 0
DWIDTH 10 0
BBX 10 5 -2 12
BITMAP
E000
6000
3700
0D80
18C0
ENDCHAR
STARTCHAR glyph569
ENCODING -1
SWIDTH 506 0
DWIDTH 10 0
BBX 9 5 1 12
BITMAP
0300
0080
3B00
6C00
C600
ENDCHAR
STARTCHAR glyph570
ENCODING -1
SWIDTH 494 0
DWIDTH 10 0
BBX 7 5 1 12
BITMAP
34
4C
00
38
C6
ENDCHAR
STARTCHAR uni0490.c2sc
ENCODING -1
SWIDTH 460 0
DWIDTH 9 0
BBX 8 14 1 0
BITMAP
03
03
03
FF
FF
C0
C0
C0
C0
C0
C0
C0
C0
C0
ENDCHAR
STARTCHAR glyph572
ENCODING -1
SWIDTH 452 0
DWIDTH 9 0
BBX 6 4 1 12
BITMAP
18
10
C4
78
ENDCHAR
STARTCHAR glyph573
ENCODING -1
SWIDTH 452 0
DWIDTH 9 0
BBX 6 5 1 12
BITMAP
38
08
10
CC
78
ENDCHAR
STARTCHAR zero.numr
ENCODING -1
SWIDTH 366 0
DWIDTH 7 0
BBX 5 8 1 6
BITMAP
70
F8
88
88
88
88
F8
70
ENDCHAR
STARTCHAR four.numr
ENCODING -1
SWIDTH 366 0
DWIDTH 7 0
BBX 6 8 1 6
BITMAP
18
38
38
58
98
FC
FC
18
ENDCHAR
STARTCHAR five.numr
ENCODING -1
SWIDTH 366 0
DWIDTH 7 0
BBX 6 8 1 6
BITMAP
78
F8
C0
F8
78
0C
F8
78
ENDCHAR
STARTCHAR six.numr
ENCODING -1
SWIDTH 366 0
DWIDTH 7 0
BBX 6 8 1 6
BITMAP
30
70
C0
B8
FC
8C
F8
78
ENDCHAR
STARTCHAR seven.numr
ENCODING -1
SWIDTH 366 0
DWIDTH 7 0
BBX 6 8 1 6
BITMAP
FC
FC
08
18
10
20
60
40
ENDCHAR
STARTCHAR eight.numr
ENCODING -1
SWIDTH 366 0
DWIDTH 7 0
BBX 6 8 1 6
BITMAP
78
F8
C8
F8
F8
8C
F8
78
ENDCHAR
STARTCHAR nine.numr
ENCODING -1
SWIDTH 366 0
DWIDTH 7 0
BBX 5 8 1 6
BITMAP
70
F8
88
F8
78
18
78
70
ENDCHAR
STARTCHAR C.ss06
ENCODING -1
SWIDTH 687 0
DWIDTH 14 0
BBX 12 14 1 0
BITMAP
0F80
3FC0
3060
6030
6030
C000
C000
C000
C000
6030
6030
3060
3FC0
0F80
ENDCHAR
STARTCHAR G.ss06
ENCODING -1
SWIDTH 709 0
DWIDTH 14 0
BBX 12 14 1 0
BITMAP
0F80
3FE0
7060
6030
C000
C000
C000
C1F0
C1F0
E030
6030
7070
3FE0
0FC0
ENDCHAR
STARTCHAR D.ss06
ENCODING -1
SWIDTH 696 0
DWIDTH 14 0
BBX 11 14 2 0
BITMAP
FE00
FF00
C380
C0C0
C0C0
C060
C060
C060
C060
C0C0
C0C0
C380
FF00
FE00
ENDCHAR
STARTCHAR O.ss06
ENCODING -1
SWIDTH 734 0
DWIDTH 15 0
BBX 13 14 1 0
BITMAP
0F80
1FC0
38E0
6030
6030
C010
C018
C018
C010
6030
6030
3860
1FC0
0F80
ENDCHAR
STARTCHAR Q.ss06
ENCODING -1
SWIDTH 735 0
DWIDTH 15 0
BBX 13 16 1 -2
BITMAP
0F80
1FC0
38E0
6030
6030
C010
C018
C018
C010
6030
6030
3860
1FC0
0FC0
00E0
0030
ENDCHAR
STARTCHAR one.oldstyle.pnum
ENCODING -1
SWIDTH 479 0
DWIDTH 10 0
BBX 5 11 2 0
BITMAP
18
78
F8
98
18
18
18
18
18
18
18
ENDCHAR
STARTCHAR two.oldstyle.pnum
ENCODING -1
SWIDTH 563 0
DWIDTH 11 0
BBX 9 11 1 0
BITMAP
3E00
7F00
E380
C180
0300
0600
0C00
1800
7000
FF80
FF80
ENDCHAR
STARTCHAR three.oldstyle.pnum
ENCODING -1
SWIDTH 542 0
DWIDTH 11 0
BBX 10 14 0 -3
BITMAP
7F80
7F80
0180
0200
0400
0E00
0F80
0180
00C0
00C0
0080
8380
FF00
3E00
ENDCHAR
STARTCHAR four.oldstyle.pnum
ENCODING -1
SWIDTH 601 0
DWIDTH 12 0
BBX 11 14 1 -3
BITMAP
0380
0380
0780
0D80
0980
1180
3180
6180
4180
FFE0
FFE0
0180
0180
0180
ENDCHAR
STARTCHAR five.oldstyle.pnum
ENCODING -1
SWIDTH 552 0
DWIDTH 11 0
BBX 9 14 1 -3
BITMAP
7F80
7F80
6000
6000
4000
5E00
FF00
C380
0180
0180
0180
8380
FF00
3C00
ENDCHAR
STARTCHAR seven.oldstyle.pnum
ENCODING -1
SWIDTH 522 0
DWIDTH 10 0
BBX 9 14 1 -3
BITMAP
FF80
FF80
0100
0300
0200
0600
0400
0C00
0C00
1800
1800
3000
3000
6000
ENDCHAR
STARTCHAR glyph592
ENCODING -1
SWIDTH 455 0
DWIDTH 9 0
BBX 6 5 1 12
BITMAP
64
98
00
CC
78
ENDCHAR
STARTCHAR glyph593
ENCODING -1
SWIDTH 195 0
DWIDTH 4 0
BBX 2 5 1 -3
BITMAP
C0
C0
C0
C0
C0
ENDCHAR
STARTCHAR OE.c2sc
ENCODING -1
SWIDTH 830 0
DWIDTH 17 0
BBX 15 11 1 0
BITMAP
1FFE
7FFE
6180
C180
C1FC
C1FC
C180
C180
6180
7FFE
1FFE
ENDCHAR
STARTCHAR nine.oldstyle.pnum
ENCODING -1
SWIDTH 590 0
DWIDTH 12 0
BBX 10 14 1 -3
BITMAP
1E00
7F00
6180
C080
C0C0
C0C0
61C0
7FC0
1EC0
0180
0180
0380
7F00
3C00
ENDCHAR
STARTCHAR glyph596
ENCODING -1
SWIDTH 248 0
DWIDTH 5 0
BBX 5 5 -1 -4
BITMAP
18
18
30
F0
E0
ENDCHAR
STARTCHAR three.oldstyle
ENCODING -1
SWIDTH 562 0
DWIDTH 11 0
BBX 9 14 1 -3
BITMAP
FF80
FF80
0300
0600
0C00
1E00
1F00
0380
0180
0180
0180
8380
FF00
7C00
ENDCHAR
STARTCHAR five.oldstyle
ENCODING -1
SWIDTH 562 0
DWIDTH 11 0
BBX 9 14 1 -3
BITMAP
7F80
7F80
6000
6000
6000
5E00
7F00
C380
0180
0180
0180
8380
FF00
3E00
ENDCHAR
STARTCHAR four.oldstyle
ENCODING -1
SWIDTH 562 0
DWIDTH 11 0
BBX 11 14 0 -3
BITMAP
0180
0380
0280
0680
0C80
0880
1080
3080
6080
7FE0
FFE0
0080
0080
0080
ENDCHAR
STARTCHAR two.oldstyle
ENCODING -1
SWIDTH 562 0
DWIDTH 11 0
BBX 9 11 1 0
BITMAP
3E00
7F00
E300
C100
0300
0600
0C00
3800
6000
FF80
FF80
ENDCHAR
STARTCHAR seven.oldstyle
ENCODING -1
SWIDTH 562 0
DWIDTH 11 0
BBX 9 14 1 -3
BITMAP
FF80
FF80
0180
0100
0300
0200
0600
0400
0C00
0800
1800
1800
3000
3000
ENDCHAR
STARTCHAR zero.oldstyle
ENCODING -1
SWIDTH 562 0
DWIDTH 11 0
BBX 10 11 1 0
BITMAP
3E00
7F00
E180
C180
80C0
80C0
80C0
C180
E180
7F00
3E00
ENDCHAR
STARTCHAR six.oldstyle
ENCODING -1
SWIDTH 562 0
DWIDTH 11 0
BBX 9 14 1 0
BITMAP
0E00
3E00
3000
6000
6000
DE00
FF00
E380
C180
C180
C180
6180
3F00
1E00
ENDCHAR
STARTCHAR nine.oldstyle
ENCODING -1
SWIDTH 562 0
DWIDTH 11 0
BBX 9 14 1 -3
BITMAP
3E00
7F00
E380
C180
C180
C180
E180
7F80
3F80
0180
0180
0700
7E00
7C00
ENDCHAR
STARTCHAR eight.oldstyle
ENCODING -1
SWIDTH 562 0
DWIDTH 11 0
BBX 9 14 1 0
BITMAP
3E00
7F00
6380
C180
C180
6300
3F00
3F00
6380
C180
C180
E180
7F00
3E00
ENDCHAR
STARTCHAR one.oldstyle
ENCODING -1
SWIDTH 562 0
DWIDTH 11 0
BBX 6 11 2 0
BITMAP
0C
3C
FC
CC
0C
0C
0C
0C
0C
0C
0C
ENDCHAR
STARTCHAR glyph607
ENCODING -1
SWIDTH 252 0
DWIDTH 5 0
BBX 4 15 -1 -4
BITMAP
10
10
10
10
10
10
10
10
10
10
10
10
30
F0
E0
ENDCHAR
STARTCHAR glyph608
ENCODING -1
SWIDTH 251 0
DWIDTH 5 0
BBX 4 15 -1 -4
BITMAP
10
10
10
10
10
10
10
10
10
10
10
10
30
F0
E0
ENDCHAR
STARTCHAR glyph609
ENCODING -1
SWIDTH 247 0
DWIDTH 5 0
BBX 1 11 2 0
BITMAP
80
80
80
80
80
80
80
80
80
80
80
ENDCHAR
STARTCHAR glyph610
ENCODING -1
SWIDTH 247 0
DWIDTH 5 0
BBX 3 15 0 -4
BITMAP
20
20
20
20
20
20
20
20
20
20
60
C0
80
80
E0
ENDCHAR
STARTCHAR glyph611
ENCODING -1
SWIDTH 247 0
DWIDTH 5 0
BBX 1 11 2 0
BITMAP
80
80
80
80
80
80
80
80
80
80
80
ENDCHAR
STARTCHAR germandbls.sc
ENCODING -1
SWIDTH 539 0
DWIDTH 11 0
BBX 9 11 1 0
BITMAP
3C00
7F00
6300
C600
CC00
CF00
C180
C180
E180
DF00
DE00
ENDCHAR
STARTCHAR zero.oldstyle.pnum
ENCODING -1
SWIDTH 625 0
DWIDTH 13 0
BBX 10 11 1 0
BITMAP
1F00
3F80
61C0
C0C0
C0C0
C040
C0C0
C0C0
61C0
3F80
1F00
ENDCHAR
STARTCHAR seven.pnum
ENCODING -1
SWIDTH 515 0
DWIDTH 10 0
BBX 9 14 1 0
BITMAP
FF80
FF00
0300
0300
0200
0600
0400
0C00
0800
1800
1000
3000
3000
6000
ENDCHAR
STARTCHAR b.ss06
ENCODING -1
SWIDTH 561 0
DWIDTH 11 0
BBX 9 15 1 0
BITMAP
C000
C000
C000
C000
DE00
FF00
E380
C180
C080
C080
C180
C180
E380
FF00
DE00
ENDCHAR
STARTCHAR c.ss06
ENCODING -1
SWIDTH 524 0
DWIDTH 10 0
BBX 9 11 1 0
BITMAP
3E00
7F00
E300
C180
C000
8000
C000
C180
E300
7F00
3C00
ENDCHAR
STARTCHAR d.ss06
ENCODING -1
SWIDTH 571 0
DWIDTH 11 0
BBX 9 15 1 0
BITMAP
0180
0180
0180
0180
3D80
7F80
E380
C180
C180
8180
C180
C180
E380
7F80
3D80
ENDCHAR
STARTCHAR g.ss06
ENCODING -1
SWIDTH 568 0
DWIDTH 11 0
BBX 9 15 1 -4
BITMAP
3D80
7F80
E380
C180
C180
C180
C180
C180
E380
7F80
3D80
0180
4300
7F00
3E00
ENDCHAR
STARTCHAR o.ss06
ENCODING -1
SWIDTH 577 0
DWIDTH 12 0
BBX 10 11 1 0
BITMAP
1E00
7F00
6380
C180
C0C0
C0C0
C0C0
C180
6380
7F00
1E00
ENDCHAR
STARTCHAR p.ss06
ENCODING -1
SWIDTH 568 0
DWIDTH 11 0
BBX 9 15 1 -4
BITMAP
DE00
FF00
E380
C180
C180
C180
C180
C180
E380
FF00
DE00
C000
C000
C000
C000
ENDCHAR
STARTCHAR q.ss06
ENCODING -1
SWIDTH 576 0
DWIDTH 12 0
BBX 9 15 1 -4
BITMAP
3E80
7F80
6180
C180
C180
C180
C180
C180
6180
7F80
1F80
0180
0180
0180
0180
ENDCHAR
STARTCHAR e.ss07
ENCODING -1
SWIDTH 529 0
DWIDTH 11 0
BBX 9 11 1 0
BITMAP
1E00
7F00
6180
C180
FF80
FF80
C000
C000
6100
3F80
1E00
ENDCHAR
STARTCHAR g.ss07
ENCODING -1
SWIDTH 561 0
DWIDTH 11 0
BBX 9 15 1 -4
BITMAP
3D80
7F80
E380
C180
C180
C180
C180
C180
E380
7F80
3D80
0180
4300
7F00
3E00
ENDCHAR
STARTCHAR one.pnum
ENCODING -1
SWIDTH 434 0
DWIDTH 9 0
BBX 5 14 1 0
BITMAP
08
78
F8
98
18
18
18
18
18
18
18
18
18
18
ENDCHAR
STARTCHAR ampersand.c2sc
ENCODING -1
SWIDTH 604 0
DWIDTH 12 0
BBX 10 11 1 0
BITMAP
3C00
7E00
6600
6600
3C00
38C0
6CC0
C780
C380
FF80
7CC0
ENDCHAR
STARTCHAR Lslash.c2sc
ENCODING -1
SWIDTH 462 0
DWIDTH 9 0
BBX 9 11 0 0
BITMAP
6000
6000
6000
6000
6C00
7C00
F000
E000
6000
7F80
7F80
ENDCHAR
STARTCHAR AE.c2sc
ENCODING -1
SWIDTH 777 0
DWIDTH 16 0
BBX 15 11 0 0
BITMAP
03FE
03FE
0680
0480
0C80
08FC
18FC
3FC0
3FC0
60FE
E0FE
ENDCHAR
STARTCHAR Thorn.c2sc
ENCODING -1
SWIDTH 496 0
DWIDTH 10 0
BBX 8 11 1 0
BITMAP
C0
C0
FC
FF
C3
C3
C3
FF
FE
C0
C0
ENDCHAR
STARTCHAR Oslash.c2sc
ENCODING -1
SWIDTH 591 0
DWIDTH 12 0
BBX 10 11 1 0
BITMAP
1EC0
7F80
6380
C2C0
C6C0
CCC0
C8C0
D0C0
7180
7F80
DE00
ENDCHAR
STARTCHAR Hbar.c2sc
ENCODING -1
SWIDTH 610 0
DWIDTH 12 0
BBX 12 11 0 0
BITMAP
6060
6060
FFF0
FFF0
6060
7FE0
7FE0
6060
6060
6060
6060
ENDCHAR
STARTCHAR Eng.c2sc
ENCODING -1
SWIDTH 610 0
DWIDTH 12 0
BBX 10 15 1 -4
BITMAP
C0C0
E0C0
F0C0
D8C0
D8C0
CCC0
C6C0
C2C0
C3C0
C1C0
C0C0
00C0
00C0
0380
0380
ENDCHAR
STARTCHAR Dcroat.c2sc
ENCODING -1
SWIDTH 562 0
DWIDTH 11 0
BBX 11 11 -1 0
BITMAP
3F00
3FC0
30E0
3060
FE60
FE60
3060
3060
30E0
3FC0
3F00
ENDCHAR
STARTCHAR Eth.c2sc
ENCODING -1
SWIDTH 562 0
DWIDTH 11 0
BBX 11 11 -1 0
BITMAP
3F00
3FC0
30E0
3060
FE60
FE60
3060
3060
30E0
3FC0
3F00
ENDCHAR
STARTCHAR Tbar.c2sc
ENCODING -1
SWIDTH 518 0
DWIDTH 10 0
BBX 10 11 0 0
BITMAP
FFC0
FFC0
0C00
0C00
3F00
3F00
0C00
0C00
0C00
0C00
0C00
ENDCHAR
STARTCHAR Agrave.c2sc
ENCODING -1
SWIDTH 564 0
DWIDTH 11 0
BBX 11 15 0 0
BITMAP
1800
0C00
0600
0000
0600
0E00
0F00
1B00
1900
1180
3180
3FC0
7FC0
60C0
C060
ENDCHAR
STARTCHAR Aacute.c2sc
ENCODING -1
SWIDTH 564 0
DWIDTH 11 0
BBX 11 15 0 0
BITMAP
0380
0600
0600
0000
0600
0E00
0F00
1B00
1900
1180
3180
3FC0
7FC0
60C0
C060
ENDCHAR
STARTCHAR Acircumflex.c2sc
ENCODING -1
SWIDTH 564 0
DWIDTH 11 0
BBX 11 15 0 0
BITMAP
0600
0B00
1980
0000
0600
0E00
0F00
1B00
1900
1180
3180
3FC0
7FC0
60C0
C060
ENDCHAR
STARTCHAR Atilde.c2sc
ENCODING -1
SWIDTH 564 0
DWIDTH 11 0
BBX 11 15 0 0
BITMAP
1C80
3300
0000
0000
0600
0E00
0F00
1B00
1900
1180
3180
3FC0
7FC0
60C0
C060
ENDCHAR
STARTCHAR Adieresis.c2sc
ENCODING -1
SWIDTH 564 0
DWIDTH 11 0
BBX 11 15 0 0
BITMAP
1980
1980
0000
0000
0600
0E00
0F00
1B00
1900
1180
3180
3FC0
7FC0
60C0
C060
ENDCHAR
STARTCHAR Aring.c2sc
ENCODING -1
SWIDTH 564 0
DWIDTH 11 0
BBX 11 16 0 0
BITMAP
0E00
0900
0900
0E00
0000
0600
0E00
0F00
1B00
1900
1180
3180
3FC0
7FC0
60C0
C060
ENDCHAR
STARTCHAR Aringacute.c2sc
ENCODING -1
SWIDTH 564 0
DWIDTH 11 0
BBX 11 16 0 0
BITMAP
0380
0600
0E00
0A00
0E00
0600
0E00
0F00
1B00
1900
1180
3180
3FC0
7FC0
60C0
C060
ENDCHAR
STARTCHAR Ccedilla.c2sc
ENCODING -1
SWIDTH 560 0
DWIDTH 11 0
BBX 9 15 1 -4
BITMAP
3E00
7F00
E180
C180
C000
C000
C000
C180
E180
7F00
3E00
0800
0600
0600
0C00
ENDCHAR
STARTCHAR Egrave.c2sc
ENCODING -1
SWIDTH 487 0
DWIDTH 10 0
BBX 8 15 1 0
BITMAP
70
38
18
00
FF
FF
C0
C0
FE
FE
C0
C0
C0
FF
FF
ENDCHAR
STARTCHAR Eacute.c2sc
ENCODING -1
SWIDTH 487 0
DWIDTH 10 0
BBX 8 15 1 0
BITMAP
06
0C
18
00
FF
FF
C0
C0
FE
FE
C0
C0
C0
FF
FF
ENDCHAR
STARTCHAR Ecircumflex.c2sc
ENCODING -1
SWIDTH 487 0
DWIDTH 10 0
BBX 8 15 1 0
BITMAP
18
3C
66
00
FF
FF
C0
C0
FE
FE
C0
C0
C0
FF
FF
ENDCHAR
STARTCHAR Edieresis.c2sc
ENCODING -1
SWIDTH 487 0
DWIDTH 10 0
BBX 8 15 1 0
BITMAP
66
66
00
00
FF
FF
C0
C0
FE
FE
C0
C0
C0
FF
FF
ENDCHAR
STARTCHAR Igrave.c2sc
ENCODING -1
SWIDTH 238 0
DWIDTH 5 0
BBX 4 15 -1 0
BITMAP
E0
30
30
00
30
30
30
30
30
30
30
30
30
30
30
ENDCHAR
STARTCHAR Iacute.c2sc
ENCODING -1
SWIDTH 238 0
DWIDTH 5 0
BBX 4 15 1 0
BITMAP
30
60
C0
00
C0
C0
C0
C0
C0
C0
C0
C0
C0
C0
C0
ENDCHAR
STARTCHAR Icircumflex.c2sc
ENCODING -1
SWIDTH 238 0
DWIDTH 5 0
BBX 6 15 -1 0
BITMAP
30
68
CC
00
30
30
30
30
30
30
30
30
30
30
30
ENDCHAR
STARTCHAR Idieresis.c2sc
ENCODING -1
SWIDTH 238 0
DWIDTH 5 0
BBX 7 15 -1 0
BITMAP
C4
CE
00
00
30
30
30
30
30
30
30
30
30
30
30
ENDCHAR
STARTCHAR Ntilde.c2sc
ENCODING -1
SWIDTH 610 0
DWIDTH 12 0
BBX 10 15 1 0
BITMAP
3980
2700
0000
0000
E0C0
E0C0
F0C0
D8C0
D8C0
CCC0
C6C0
C3C0
C3C0
C1C0
C0C0
ENDCHAR
STARTCHAR Ograve.c2sc
ENCODING -1
SWIDTH 591 0
DWIDTH 12 0
BBX 10 15 1 0
BITMAP
3000
1800
0C00
0000
1E00
7F80
6180
C0C0
C0C0
C0C0
C0C0
C0C0
6180
7F80
1E00
ENDCHAR
STARTCHAR Oacute.c2sc
ENCODING -1
SWIDTH 591 0
DWIDTH 12 0
BBX 10 15 1 0
BITMAP
0700
0600
0C00
0000
1E00
7F80
6180
C0C0
C0C0
C0C0
C0C0
C0C0
6180
7F80
1E00
ENDCHAR
STARTCHAR Ocircumflex.c2sc
ENCODING -1
SWIDTH 591 0
DWIDTH 12 0
BBX 10 15 1 0
BITMAP
0C00
1E00
3300
0000
1E00
7F80
6180
C0C0
C0C0
C0C0
C0C0
C0C0
6180
7F80
1E00
ENDCHAR
STARTCHAR Otilde.c2sc
ENCODING -1
SWIDTH 591 0
DWIDTH 12 0
BBX 10 15 1 0
BITMAP
3900
2700
4000
0000
1E00
7F80
6180
C0C0
C0C0
C0C0
C0C0
C0C0
6180
7F80
1E00
ENDCHAR
STARTCHAR Odieresis.c2sc
ENCODING -1
SWIDTH 591 0
DWIDTH 12 0
BBX 10 15 1 0
BITMAP
3300
3300
0000
0000
1E00
7F80
6180
C0C0
C0C0
C0C0
C0C0
C0C0
6180
7F80
1E00
ENDCHAR
STARTCHAR Ugrave.c2sc
ENCODING -1
SWIDTH 560 0
DWIDTH 11 0
BBX 9 15 1 0
BITMAP
3000
1800
0C00
0000
C180
C180
C180
C180
C180
C180
C180
C180
E380
7F00
3E00
ENDCHAR
STARTCHAR Uacute.c2sc
ENCODING -1
SWIDTH 560 0
DWIDTH 11 0
BBX 9 15 1 0
BITMAP
0700
0C00
0C00
0000
C180
C180
C180
C180
C180
C180
C180
C180
E380
7F00
3E00
ENDCHAR
STARTCHAR Ucircumflex.c2sc
ENCODING -1
SWIDTH 560 0
DWIDTH 11 0
BBX 9 15 1 0
BITMAP
0C00
1600
3300
0000
C180
C180
C180
C180
C180
C180
C180
C180
E380
7F00
3E00
ENDCHAR
STARTCHAR Udieresis.c2sc
ENCODING -1
SWIDTH 560 0
DWIDTH 11 0
BBX 9 15 1 0
BITMAP
2300
7300
0000
0000
C180
C180
C180
C180
C180
C180
C180
C180
E380
7F00
3E00
ENDCHAR
STARTCHAR Yacute.c2sc
ENCODING -1
SWIDTH 520 0
DWIDTH 10 0
BBX 10 15 0 0
BITMAP
0300
0600
0C00
0000
C0C0
6180
3180
3300
1B00
1E00
0C00
0C00
0C00
0C00
0C00
ENDCHAR
STARTCHAR Amacron.c2sc
ENCODING -1
SWIDTH 564 0
DWIDTH 11 0
BBX 11 14 0 0
BITMAP
3F80
3F80
0000
0600
0E00
0F00
1B00
1900
1180
3180
3FC0
7FC0
60C0
C060
ENDCHAR
STARTCHAR Abreve.c2sc
ENCODING -1
SWIDTH 564 0
DWIDTH 11 0
BBX 11 14 0 0
BITMAP
1980
0F00
0000
0600
0E00
0F00
1B00
1900
1180
3180
3FC0
7FC0
60C0
C060
ENDCHAR
STARTCHAR Aogonek.c2sc
ENCODING -1
SWIDTH 564 0
DWIDTH 11 0
BBX 11 15 0 -4
BITMAP
0600
0E00
0F00
1B00
1900
1180
3180
3FC0
7FC0
60C0
C060
00C0
0080
0180
00E0
ENDCHAR
STARTCHAR Cacute.c2sc
ENCODING -1
SWIDTH 560 0
DWIDTH 11 0
BBX 9 15 1 0
BITMAP
0700
0E00
0C00
0000
3E00
7F00
E180
C180
C000
C000
C000
C180
E180
7F00
3E00
ENDCHAR
STARTCHAR Ccircumflex.c2sc
ENCODING -1
SWIDTH 560 0
DWIDTH 11 0
BBX 9 15 1 0
BITMAP
0C00
1600
3300
0000
3E00
7F00
E180
C180
C000
C000
C000
C180
E180
7F00
3E00
ENDCHAR
STARTCHAR Cdotaccent.c2sc
ENCODING -1
SWIDTH 560 0
DWIDTH 11 0
BBX 9 15 1 0
BITMAP
0C00
0C00
0000
0000
3E00
7F00
E180
C180
C000
C000
C000
C180
E180
7F00
3E00
ENDCHAR
STARTCHAR Ccaron.c2sc
ENCODING -1
SWIDTH 560 0
DWIDTH 11 0
BBX 9 15 1 0
BITMAP
3300
1600
0C00
0000
3E00
7F00
E180
C180
C000
C000
C000
C180
E180
7F00
3E00
ENDCHAR
STARTCHAR Dcaron.c2sc
ENCODING -1
SWIDTH 562 0
DWIDTH 11 0
BBX 9 15 1 0
BITMAP
6600
3C00
1800
0000
FC00
FF00
C380
C180
C180
C180
C180
C180
C380
FF00
FC00
ENDCHAR
STARTCHAR Emacron.c2sc
ENCODING -1
SWIDTH 487 0
DWIDTH 10 0
BBX 8 14 1 0
BITMAP
7F
7F
00
FF
FF
C0
C0
FE
FE
C0
C0
C0
FF
FF
ENDCHAR
STARTCHAR Ebreve.c2sc
ENCODING -1
SWIDTH 487 0
DWIDTH 10 0
BBX 8 14 1 0
BITMAP
22
3E
00
FF
FF
C0
C0
FE
FE
C0
C0
C0
FF
FF
ENDCHAR
STARTCHAR Edotaccent.c2sc
ENCODING -1
SWIDTH 487 0
DWIDTH 10 0
BBX 8 15 1 0
BITMAP
18
18
00
00
FF
FF
C0
C0
FE
FE
C0
C0
C0
FF
FF
ENDCHAR
STARTCHAR Eogonek.c2sc
ENCODING -1
SWIDTH 487 0
DWIDTH 10 0
BBX 8 15 1 -4
BITMAP
FF
FF
C0
C0
FE
FE
C0
C0
C0
FF
FF
06
0C
0C
07
ENDCHAR
STARTCHAR Ecaron.c2sc
ENCODING -1
SWIDTH 487 0
DWIDTH 10 0
BBX 8 15 1 0
BITMAP
66
3C
18
00
FF
FF
C0
C0
FE
FE
C0
C0
C0
FF
FF
ENDCHAR
STARTCHAR Gcircumflex.c2sc
ENCODING -1
SWIDTH 583 0
DWIDTH 12 0
BBX 10 15 1 0
BITMAP
0C00
1600
3300
0000
1F00
7F80
61C0
C000
C000
C7C0
C0C0
C0C0
60C0
7FC0
1F00
ENDCHAR
STARTCHAR Gbreve.c2sc
ENCODING -1
SWIDTH 583 0
DWIDTH 12 0
BBX 10 14 1 0
BITMAP
3300
1E00
0000
1F00
7F80
61C0
C000
C000
C7C0
C0C0
C0C0
60C0
7FC0
1F00
ENDCHAR
STARTCHAR Gdotaccent.c2sc
ENCODING -1
SWIDTH 583 0
DWIDTH 12 0
BBX 10 15 1 0
BITMAP
0C00
0C00
0000
0000
1F00
7F80
61C0
C000
C000
C7C0
C0C0
C0C0
60C0
7FC0
1F00
ENDCHAR
STARTCHAR uni0122.c2sc
ENCODING -1
SWIDTH 583 0
DWIDTH 12 0
BBX 10 16 1 -5
BITMAP
1F00
7F80
61C0
C000
C000
C7C0
C0C0
C0C0
60C0
7FC0
1F00
0000
0C00
0C00
0800
1800
ENDCHAR
STARTCHAR Hcircumflex.c2sc
ENCODING -1
SWIDTH 610 0
DWIDTH 12 0
BBX 10 15 1 0
BITMAP
0C00
1E00
3300
0000
C0C0
C0C0
C0C0
C0C0
FFC0
FFC0
C0C0
C0C0
C0C0
C0C0
C0C0
ENDCHAR
STARTCHAR Itilde.c2sc
ENCODING -1
SWIDTH 238 0
DWIDTH 5 0
BBX 7 15 -1 0
BITMAP
66
9C
00
00
30
30
30
30
30
30
30
30
30
30
30
ENDCHAR
STARTCHAR Imacron.c2sc
ENCODING -1
SWIDTH 238 0
DWIDTH 5 0
BBX 7 14 -1 0
BITMAP
FE
FE
00
30
30
30
30
30
30
30
30
30
30
30
ENDCHAR
STARTCHAR Ibreve.c2sc
ENCODING -1
SWIDTH 238 0
DWIDTH 5 0
BBX 6 14 0 0
BITMAP
8C
78
00
60
60
60
60
60
60
60
60
60
60
60
ENDCHAR
STARTCHAR Iogonek.c2sc
ENCODING -1
SWIDTH 238 0
DWIDTH 5 0
BBX 3 15 0 -4
BITMAP
60
60
60
60
60
60
60
60
60
60
60
C0
C0
80
E0
ENDCHAR
STARTCHAR Idotaccent.c2sc
ENCODING -1
SWIDTH 238 0
DWIDTH 5 0
BBX 3 15 1 0
BITMAP
C0
E0
00
00
C0
C0
C0
C0
C0
C0
C0
C0
C0
C0
C0
ENDCHAR
STARTCHAR Jcircumflex.c2sc
ENCODING -1
SWIDTH 476 0
DWIDTH 10 0
BBX 9 15 1 0
BITMAP
0600
0F00
1980
0000
0200
0200
0200
0200
0200
0200
0200
0200
C600
FE00
7C00
ENDCHAR
STARTCHAR uni0136.c2sc
ENCODING -1
SWIDTH 541 0
DWIDTH 11 0
BBX 10 16 1 -5
BITMAP
C1C0
C300
C600
CC00
D800
F800
EC00
C600
C300
C380
C180
0040
1800
1800
1800
1000
ENDCHAR
STARTCHAR Lacute.c2sc
ENCODING -1
SWIDTH 462 0
DWIDTH 9 0
BBX 8 15 1 0
BITMAP
30
60
C0
00
C0
C0
C0
C0
C0
C0
C0
C0
C0
FF
FF
ENDCHAR
STARTCHAR uni013B.c2sc
ENCODING -1
SWIDTH 462 0
DWIDTH 9 0
BBX 8 16 1 -5
BITMAP
C0
C0
C0
C0
C0
C0
C0
C0
C0
FF
FF
00
18
18
18
10
ENDCHAR
STARTCHAR Lcaron.c2sc
ENCODING -1
SWIDTH 462 0
DWIDTH 9 0
BBX 8 11 1 0
BITMAP
CC
CC
CC
C8
C0
C0
C0
C0
C0
FF
FF
ENDCHAR
STARTCHAR Ldot.c2sc
ENCODING -1
SWIDTH 462 0
DWIDTH 9 0
BBX 8 11 1 0
BITMAP
C0
C0
C0
C0
CC
CC
C0
C0
C0
FF
FF
ENDCHAR
STARTCHAR Nacute.c2sc
ENCODING -1
SWIDTH 610 0
DWIDTH 12 0
BBX 10 15 1 0
BITMAP
0300
0600
0C00
0000
E0C0
E0C0
F0C0
D8C0
D8C0
CCC0
C6C0
C3C0
C3C0
C1C0
C0C0
ENDCHAR
STARTCHAR uni0145.c2sc
ENCODING -1
SWIDTH 610 0
DWIDTH 12 0
BBX 10 16 1 -5
BITMAP
E0C0
E0C0
F0C0
D8C0
D8C0
CCC0
C6C0
C3C0
C3C0
C1C0
C0C0
0000
0C00
0C00
0C00
1800
ENDCHAR
STARTCHAR Ncaron.c2sc
ENCODING -1
SWIDTH 610 0
DWIDTH 12 0
BBX 10 15 1 0
BITMAP
3300
1E00
0C00
0000
E0C0
E0C0
F0C0
D8C0
D8C0
CCC0
C6C0
C3C0
C3C0
C1C0
C0C0
ENDCHAR
STARTCHAR Omacron.c2sc
ENCODING -1
SWIDTH 591 0
DWIDTH 12 0
BBX 10 14 1 0
BITMAP
3F00
3F00
0000
1E00
7F80
6180
C0C0
C0C0
C0C0
C0C0
C0C0
6180
7F80
1E00
ENDCHAR
STARTCHAR Obreve.c2sc
ENCODING -1
SWIDTH 591 0
DWIDTH 12 0
BBX 10 14 1 0
BITMAP
3300
1E00
0000
1E00
7F80
6180
C0C0
C0C0
C0C0
C0C0
C0C0
6180
7F80
1E00
ENDCHAR
STARTCHAR Ohungarumlaut.c2sc
ENCODING -1
SWIDTH 591 0
DWIDTH 12 0
BBX 10 15 1 0
BITMAP
0DC0
1B00
3600
0000
1E00
7F80
6180
C0C0
C0C0
C0C0
C0C0
C0C0
6180
7F80
1E00
ENDCHAR
STARTCHAR Racute.c2sc
ENCODING -1
SWIDTH 536 0
DWIDTH 11 0
BBX 10 15 1 0
BITMAP
0600
0C00
1800
0000
FE00
FF00
C180
C180
C180
FF00
FE00
C600
C300
C180
C1C0
ENDCHAR
STARTCHAR uni0156.c2sc
ENCODING -1
SWIDTH 536 0
DWIDTH 11 0
BBX 10 16 1 -5
BITMAP
FE00
FF00
C180
C180
C180
FF00
FE00
C600
C300
C180
C180
0040
1800
1800
1800
1000
ENDCHAR
STARTCHAR Rcaron.c2sc
ENCODING -1
SWIDTH 536 0
DWIDTH 11 0
BBX 10 15 1 0
BITMAP
6600
3C00
1800
0000
FE00
FF00
C180
C180
C180
FF00
FE00
C600
C300
C180
C1C0
ENDCHAR
STARTCHAR Sacute.c2sc
ENCODING -1
SWIDTH 515 0
DWIDTH 10 0
BBX 9 15 1 0
BITMAP
0600
0C00
1800
0000
3E00
7F00
C300
C080
7800
3F00
0700
8180
C380
FF00
3E00
ENDCHAR
STARTCHAR Scircumflex.c2sc
ENCODING -1
SWIDTH 515 0
DWIDTH 10 0
BBX 9 15 1 0
BITMAP
1800
3400
6600
0000
3E00
7F00
C300
C080
7800
3F00
0700
8180
C380
FF00
3E00
ENDCHAR
STARTCHAR Scedilla.c2sc
ENCODING -1
SWIDTH 515 0
DWIDTH 10 0
BBX 9 15 1 -4
BITMAP
3E00
7F00
C300
C080
7800
3F00
0700
8180
C380
FF00
3E00
0800
0400
0600
1C00
ENDCHAR
STARTCHAR Scaron.c2sc
ENCODING -1
SWIDTH 515 0
DWIDTH 10 0
BBX 9 15 1 0
BITMAP
6600
3400
1800
0000
3E00
7F00
C300
C080
7800
3F00
0700
8180
C380
FF00
3E00
ENDCHAR
STARTCHAR uni021A.c2sc
ENCODING -1
SWIDTH 518 0
DWIDTH 10 0
BBX 10 16 0 -5
BITMAP
FFC0
FFC0
0C00
0C00
0C00
0C00
0C00
0C00
0C00
0C00
0C00
0000
0C00
0C00
0C00
0800
ENDCHAR
STARTCHAR Tcaron.c2sc
ENCODING -1
SWIDTH 518 0
DWIDTH 10 0
BBX 10 15 0 0
BITMAP
3300
1E00
0C00
0000
FFC0
FFC0
0C00
0C00
0C00
0C00
0C00
0C00
0C00
0C00
0C00
ENDCHAR
STARTCHAR uni0162.c2sc
ENCODING -1
SWIDTH 518 0
DWIDTH 10 0
BBX 10 15 0 -4
BITMAP
FFC0
FFC0
0C00
0C00
0C00
0C00
0C00
0C00
0C00
0C00
0C00
0400
0E00
0200
0C00
ENDCHAR
STARTCHAR Utilde.c2sc
ENCODING -1
SWIDTH 560 0
DWIDTH 11 0
BBX 9 15 1 0
BITMAP
3900
6600
0000
0000
C180
C180
C180
C180
C180
C180
C180
C180
E380
7F00
3E00
ENDCHAR
STARTCHAR Umacron.c2sc
ENCODING -1
SWIDTH 560 0
DWIDTH 11 0
BBX 9 14 1 0
BITMAP
7F00
7F00
0000
C180
C180
C180
C180
C180
C180
C180
C180
E380
7F00
3E00
ENDCHAR
STARTCHAR Ubreve.c2sc
ENCODING -1
SWIDTH 560 0
DWIDTH 11 0
BBX 9 14 1 0
BITMAP
3300
1E00
0000
C180
C180
C180
C180
C180
C180
C180
C180
E380
7F00
3E00
ENDCHAR
STARTCHAR Uring.c2sc
ENCODING -1
SWIDTH 560 0
DWIDTH 11 0
BBX 9 16 1 0
BITMAP
1C00
1200
1200
1C00
0000
C180
C180
C180
C180
C180
C180
C180
C180
E380
7F00
3E00
ENDCHAR
STARTCHAR Uhungarumlaut.c2sc
ENCODING -1
SWIDTH 560 0
DWIDTH 11 0
BBX 9 15 1 0
BITMAP
0D80
1B00
3600
0000
C180
C180
C180
C180
C180
C180
C180
C180
E380
7F00
3E00
ENDCHAR
STARTCHAR Uogonek.c2sc
ENCODING -1
SWIDTH 560 0
DWIDTH 11 0
BBX 9 15 1 -4
BITMAP
C180
C180
C180
C180
C180
C180
C180
C180
E180
7F00
3E00
0C00
0800
0800
0E00
ENDCHAR
STARTCHAR Wcircumflex.c2sc
ENCODING -1
SWIDTH 760 0
DWIDTH 15 0
BBX 15 15 0 0
BITMAP
0180
02C0
0660
0000
C186
6384
638C
628C
26CC
2648
3458
3478
1C70
1830
1830
ENDCHAR
STARTCHAR Ycircumflex.c2sc
ENCODING -1
SWIDTH 520 0
DWIDTH 10 0
BBX 10 15 0 0
BITMAP
0C00
1E00
3300
0000
C0C0
6180
3180
3300
1B00
1E00
0C00
0C00
0C00
0C00
0C00
ENDCHAR
STARTCHAR Ydieresis.c2sc
ENCODING -1
SWIDTH 520 0
DWIDTH 10 0
BBX 10 15 0 0
BITMAP
3300
3300
0000
0000
C0C0
6180
3180
3300
1B00
1E00
0C00
0C00
0C00
0C00
0C00
ENDCHAR
STARTCHAR Zacute.c2sc
ENCODING -1
SWIDTH 517 0
DWIDTH 10 0
BBX 9 15 1 0
BITMAP
0600
0C00
1800
0000
FF00
FF00
0300
0600
0C00
1800
3000
6000
C000
FF80
FF80
ENDCHAR
STARTCHAR Zdotaccent.c2sc
ENCODING -1
SWIDTH 517 0
DWIDTH 10 0
BBX 9 15 1 0
BITMAP
1800
1800
0000
0000
FF00
FF00
0300
0600
0C00
1800
3000
6000
C000
FF80
FF80
ENDCHAR
STARTCHAR Zcaron.c2sc
ENCODING -1
SWIDTH 517 0
DWIDTH 10 0
BBX 9 15 1 0
BITMAP
6600
3C00
1800
0000
FF00
FF00
0300
0600
0C00
1800
3000
6000
C000
FF80
FF80
ENDCHAR
STARTCHAR two.pnum
ENCODING -1
SWIDTH 561 0
DWIDTH 11 0
BBX 10 14 1 0
BITMAP
3E00
7F00
E380
C180
0180
0100
0300
0600
0C00
1800
3000
6000
FFC0
FFC0
ENDCHAR
STARTCHAR three.pnum
ENCODING -1
SWIDTH 561 0
DWIDTH 11 0
BBX 9 14 1 0
BITMAP
3E00
7F00
E380
C180
0180
0300
1E00
1F00
0380
0180
C180
E380
7F00
3E00
ENDCHAR
STARTCHAR four.pnum
ENCODING -1
SWIDTH 561 0
DWIDTH 11 0
BBX 10 14 1 0
BITMAP
0300
0700
0F00
0B00
1B00
3300
2300
6300
C300
FFC0
FFC0
0300
0300
0300
ENDCHAR
STARTCHAR five.pnum
ENCODING -1
SWIDTH 561 0
DWIDTH 11 0
BBX 9 14 1 0
BITMAP
3F80
3F80
6000
6000
6000
7E00
7F80
2180
0180
0080
C180
6180
7F80
1E00
ENDCHAR
STARTCHAR six.pnum
ENCODING -1
SWIDTH 571 0
DWIDTH 11 0
BBX 9 14 1 0
BITMAP
0E00
1E00
3800
6000
6000
5E00
7F80
6180
C080
4080
6080
6180
3F80
1E00
ENDCHAR
STARTCHAR eight.pnum
ENCODING -1
SWIDTH 581 0
DWIDTH 12 0
BBX 9 14 1 0
BITMAP
1E00
7F00
6380
4180
4180
6380
3F00
3F00
6180
C180
C180
E180
7F80
3E00
ENDCHAR
STARTCHAR nine.pnum
ENCODING -1
SWIDTH 571 0
DWIDTH 11 0
BBX 9 14 1 0
BITMAP
3C00
7F00
E300
C180
C180
C180
E380
7F80
3D80
0180
0300
0700
3E00
3800
ENDCHAR
STARTCHAR zero.pnum
ENCODING -1
SWIDTH 581 0
DWIDTH 12 0
BBX 9 14 1 0
BITMAP
1E00
7F00
6380
4180
C180
C180
C180
C180
C180
C180
6180
6380
7F00
1E00
ENDCHAR
STARTCHAR G_acutecomb.ccmp
ENCODING -1
SWIDTH 681 0
DWIDTH 14 0
BBX 11 18 1 0
BITMAP
0380
0600
0400
0000
1F00
3FC0
70E0
6060
C000
C000
C3E0
C3E0
C060
C060
6060
7060
3FE0
0F80
ENDCHAR
STARTCHAR g_acutecomb.ccmp
ENCODING -1
SWIDTH 561 0
DWIDTH 11 0
BBX 9 20 1 -4
BITMAP
0700
0C00
1800
0000
0000
3D80
7F80
E380
C180
C180
C180
C180
C180
E380
7F80
3D80
0180
4300
FF00
3E00
ENDCHAR
STARTCHAR N_gravecomb.ccmp
ENCODING -1
SWIDTH 712 0
DWIDTH 14 0
BBX 11 18 1 0
BITMAP
1C00
0C00
0600
0000
E020
E020
F020
D820
D820
CC20
C620
C620
C320
C1A0
C1A0
C0E0
C060
C060
ENDCHAR
STARTCHAR n_gravecomb.ccmp
ENCODING -1
SWIDTH 551 0
DWIDTH 11 0
BBX 9 16 1 0
BITMAP
3000
1800
0C00
0000
0000
DE00
FF00
E380
C180
C180
C180
C180
C180
C180
C180
C180
ENDCHAR
STARTCHAR A_uni030F.ccmp
ENCODING -1
SWIDTH 652 0
DWIDTH 13 0
BBX 13 18 0 0
BITMAP
7600
1B00
0D80
0000
0700
0700
0500
0D80
0D80
0880
18C0
18C0
3060
3FE0
3FE0
6030
6030
C018
ENDCHAR
STARTCHAR a_uni030F.ccmp
ENCODING -1
SWIDTH 543 0
DWIDTH 11 0
BBX 9 16 1 0
BITMAP
D800
6C00
3600
0000
0000
3E00
7F00
C300
0100
3F00
7F00
E100
C100
C300
7F80
3D80
ENDCHAR
STARTCHAR E_uni030F.ccmp
ENCODING -1
SWIDTH 568 0
DWIDTH 11 0
BBX 10 18 1 0
BITMAP
FC00
7C00
3E00
0000
7FC0
7FC0
6000
6000
6000
6000
7F80
7F80
6000
6000
6000
6000
7FC0
7FC0
ENDCHAR
STARTCHAR e_uni030F.ccmp
ENCODING -1
SWIDTH 529 0
DWIDTH 11 0
BBX 10 16 0 0
BITMAP
EC00
3600
1B00
0000
0000
0F00
3F80
30C0
60C0
7FC0
7FC0
6000
6000
3080
3FC0
0F00
ENDCHAR
STARTCHAR I_uni030F.ccmp
ENCODING -1
SWIDTH 271 0
DWIDTH 5 0
BBX 7 18 -2 0
BITMAP
D8
6C
36
00
0C
0C
0C
0C
0C
0C
0C
0C
0C
0C
0C
0C
0C
0C
ENDCHAR
STARTCHAR dotlessi_uni030F.ccmp
ENCODING -1
SWIDTH 247 0
DWIDTH 5 0
BBX 8 16 -3 0
BITMAP
EC
36
1B
00
00
04
04
04
04
04
04
04
04
04
04
04
ENDCHAR
STARTCHAR O_uni030F.ccmp
ENCODING -1
SWIDTH 687 0
DWIDTH 14 0
BBX 12 18 1 0
BITMAP
6C00
3600
1B00
0000
1F00
3FC0
70E0
6060
C060
C030
C030
C030
C030
C060
6060
70E0
3FC0
1F00
ENDCHAR
STARTCHAR o_uni030F.ccmp
ENCODING -1
SWIDTH 570 0
DWIDTH 11 0
BBX 10 16 0 0
BITMAP
EC00
3600
1B00
0000
0000
1F00
3F80
71C0
60C0
60C0
60C0
60C0
60C0
71C0
3F80
1F00
ENDCHAR
STARTCHAR R_uni030F.ccmp
ENCODING -1
SWIDTH 615 0
DWIDTH 12 0
BBX 11 18 1 0
BITMAP
FC00
6C00
3600
0000
FF00
FF80
C1C0
C0C0
C0C0
C0C0
C1C0
FF80
FF00
C300
C180
C180
C0C0
C0E0
ENDCHAR
STARTCHAR r_uni030F.ccmp
ENCODING -1
SWIDTH 338 0
DWIDTH 7 0
BBX 8 16 -1 0
BITMAP
FC
7C
3E
00
00
37
3F
38
30
30
30
30
30
30
30
30
ENDCHAR
STARTCHAR U_uni030F.ccmp
ENCODING -1
SWIDTH 648 0
DWIDTH 13 0
BBX 11 18 1 0
BITMAP
EC00
3600
1B00
0000
C060
C060
C060
C060
C060
C060
C060
C060
C060
C060
E0E0
60C0
3F80
1F00
ENDCHAR
STARTCHAR u_uni030F.ccmp
ENCODING -1
SWIDTH 551 0
DWIDTH 11 0
BBX 10 16 0 0
BITMAP
EC00
3600
1B00
0000
0000
60C0
60C0
60C0
60C0
60C0
60C0
60C0
60C0
71C0
3FC0
1EC0
ENDCHAR
STARTCHAR Upsilon1_acutecomb.ccmp
ENCODING -1
SWIDTH 581 0
DWIDTH 12 0
BBX 15 15 -3 0
BITMAP
4000
CC06
8E0E
0318
0318
01B0
01B0
00B0
00E0
00E0
0040
0040
0040
0040
0040
ENDCHAR
STARTCHAR B_dotbelowcomb.ccmp
ENCODING -1
SWIDTH 622 0
DWIDTH 12 0
BBX 9 17 2 -3
BITMAP
FE00
FF00
C380
C180
C180
C380
FF00
FF00
C180
C180
C180
C180
FF80
FE00
0000
1800
1800
ENDCHAR
STARTCHAR b_dotbelowcomb.ccmp
ENCODING -1
SWIDTH 561 0
DWIDTH 11 0
BBX 9 18 1 -3
BITMAP
C000
C000
C000
C000
DE00
FF00
E380
C180
C180
C180
C180
C180
E380
FF00
DE00
0000
0C00
0C00
ENDCHAR
STARTCHAR D_dotbelowcomb.ccmp
ENCODING -1
SWIDTH 655 0
DWIDTH 13 0
BBX 10 17 2 -3
BITMAP
FC00
FF00
C380
C180
C0C0
C0C0
C0C0
C0C0
C0C0
C0C0
C180
C380
FF00
FC00
0000
1800
1800
ENDCHAR
STARTCHAR d_dotbelowcomb.ccmp
ENCODING -1
SWIDTH 563 0
DWIDTH 11 0
BBX 9 18 1 -3
BITMAP
0180
0180
0180
0180
3D80
7F80
E380
C180
C180
C180
C180
C180
E380
7F80
3D80
0000
0C00
0C00
ENDCHAR
STARTCHAR D_uniF6C3.ccmp
ENCODING -1
SWIDTH 655 0
DWIDTH 13 0
BBX 10 19 2 -5
BITMAP
FC00
FF00
C380
C180
C0C0
C0C0
C0C0
C0C0
C0C0
C0C0
C180
C380
FF00
FC00
0000
1800
1800
1000
3000
ENDCHAR
STARTCHAR d_uniF6C3.ccmp
ENCODING -1
SWIDTH 563 0
DWIDTH 11 0
BBX 9 20 1 -5
BITMAP
0180
0180
0180
0180
3D80
7F80
E380
C180
C180
C180
C180
C180
E380
7F80
3D80
0000
0C00
0C00
0C00
1800
ENDCHAR
STARTCHAR H_dotbelowcomb.ccmp
ENCODING -1
SWIDTH 712 0
DWIDTH 14 0
BBX 11 17 2 -3
BITMAP
C060
C060
C060
C060
C060
C060
FFE0
FFE0
C060
C060
C060
C060
C060
C060
0000
0C00
0C00
ENDCHAR
STARTCHAR h_dotbelowcomb.ccmp
ENCODING -1
SWIDTH 550 0
DWIDTH 11 0
BBX 9 18 1 -3
BITMAP
C000
C000
C000
C000
DE00
FF00
E380
C180
C180
C180
C180
C180
C180
C180
C180
0000
0C00
0C00
ENDCHAR
STARTCHAR K_acutecomb.ccmp
ENCODING -1
SWIDTH 626 0
DWIDTH 13 0
BBX 11 18 2 0
BITMAP
0E00
0C00
1800
0000
C1C0
C180
C300
C600
CC00
D800
F800
EC00
CC00
C600
C300
C380
C180
C0E0
ENDCHAR
STARTCHAR k_acutecomb.ccmp
ENCODING -1
SWIDTH 506 0
DWIDTH 10 0
BBX 9 19 1 0
BITMAP
0600
0C00
1800
0000
C000
C000
C000
C000
C380
C600
CC00
DC00
D800
F800
CC00
C600
C600
C300
C180
ENDCHAR
STARTCHAR K_dotbelowcomb.ccmp
ENCODING -1
SWIDTH 626 0
DWIDTH 13 0
BBX 11 16 2 -2
BITMAP
C1C0
C180
C300
C600
CC00
D800
F800
EC00
CC00
C600
C300
C380
C180
C0C0
1820
1800
ENDCHAR
STARTCHAR k_dotbelowcomb.ccmp
ENCODING -1
SWIDTH 506 0
DWIDTH 10 0
BBX 9 17 1 -2
BITMAP
C000
C000
C000
C000
C380
C600
CC00
DC00
D800
F800
CC00
C600
C600
C300
C180
1800
1800
ENDCHAR
STARTCHAR L_dotbelowcomb.ccmp
ENCODING -1
SWIDTH 538 0
DWIDTH 11 0
BBX 8 17 2 -3
BITMAP
C0
C0
C0
C0
C0
C0
C0
C0
C0
C0
C0
C0
FF
FF
00
18
18
ENDCHAR
STARTCHAR l_dotbelowcomb.ccmp
ENCODING -1
SWIDTH 242 0
DWIDTH 5 0
BBX 2 18 1 -3
BITMAP
40
40
40
40
40
40
40
40
40
40
40
40
40
40
40
00
C0
C0
ENDCHAR
STARTCHAR M_dotbelowcomb.ccmp
ENCODING -1
SWIDTH 873 0
DWIDTH 17 0
BBX 14 17 2 -3
BITMAP
C01C
E01C
E03C
B03C
B02C
906C
986C
98CC
CCCC
CC8C
C58C
C70C
C70C
C30C
0000
0300
0300
ENDCHAR
STARTCHAR m_dotbelowcomb.ccmp
ENCODING -1
SWIDTH 876 0
DWIDTH 18 0
BBX 14 14 2 -3
BITMAP
BC78
FEFC
C78C
8304
8304
8304
8304
8304
8304
8304
8304
0000
0300
0300
ENDCHAR
STARTCHAR N_dotbelowcomb.ccmp
ENCODING -1
SWIDTH 712 0
DWIDTH 14 0
BBX 11 17 1 -3
BITMAP
E020
E020
F020
D820
D820
CC20
C620
C620
C320
C1A0
C1A0
C0E0
C060
C060
0000
0600
0600
ENDCHAR
STARTCHAR n_dotbelowcomb.ccmp
ENCODING -1
SWIDTH 551 0
DWIDTH 11 0
BBX 9 14 1 -3
BITMAP
DE00
FF00
E380
C180
C180
C180
C180
C180
C180
C180
C180
0000
1800
1C00
ENDCHAR
STARTCHAR O_tildecomb_acutecomb.ccmp
ENCODING -1
SWIDTH 687 0
DWIDTH 14 0
BBX 12 20 1 0
BITMAP
0300
0600
0000
0C80
1300
0000
1F00
3FC0
70E0
6060
C060
C030
C030
C030
C030
C060
6060
70E0
3FC0
1F00
ENDCHAR
STARTCHAR P_acutecomb.ccmp
ENCODING -1
SWIDTH 630 0
DWIDTH 13 0
BBX 10 18 2 0
BITMAP
0E00
0C00
1800
0000
FF00
FF80
C1C0
C0C0
C0C0
C0C0
C1C0
FF80
FF00
C000
C000
C000
C000
C000
ENDCHAR
STARTCHAR p_acutecomb.ccmp
ENCODING -1
SWIDTH 561 0
DWIDTH 11 0
BBX 9 20 1 -4
BITMAP
0300
0600
0C00
0000
0000
DE00
FF00
E380
C180
C180
C180
C180
C180
E380
FF00
DE00
C000
C000
C000
C000
ENDCHAR
STARTCHAR R_dotbelowcomb.ccmp
ENCODING -1
SWIDTH 615 0
DWIDTH 12 0
BBX 11 17 1 -3
BITMAP
FF00
FF80
C1C0
C0C0
C0C0
C0C0
C1C0
FF80
FF00
C300
C180
C180
C0C0
C0E0
0000
0C00
0C00
ENDCHAR
STARTCHAR r_dotbelowcomb.ccmp
ENCODING -1
SWIDTH 338 0
DWIDTH 7 0
BBX 6 14 1 -3
BITMAP
DC
FC
E0
C0
C0
C0
C0
C0
C0
C0
C0
00
C0
C0
ENDCHAR
STARTCHAR S_dotbelowcomb.ccmp
ENCODING -1
SWIDTH 593 0
DWIDTH 12 0
BBX 10 17 1 -3
BITMAP
1F00
7F80
61C0
C0C0
C000
7000
3E00
0F80
01C0
00C0
C0C0
E1C0
7F80
1F00
0000
0C00
0C00
ENDCHAR
STARTCHAR s_dotbelowcomb.ccmp
ENCODING -1
SWIDTH 515 0
DWIDTH 10 0
BBX 8 14 1 -3
BITMAP
3C
7E
C3
C0
78
3E
07
03
C3
FF
3C
00
18
1C
ENDCHAR
STARTCHAR T_dotbelowcomb.ccmp
ENCODING -1
SWIDTH 596 0
DWIDTH 12 0
BBX 11 17 0 -3
BITMAP
FFE0
FFE0
0600
0600
0600
0600
0600
0600
0600
0600
0600
0600
0600
0600
0000
0600
0600
ENDCHAR
STARTCHAR t_dotbelowcomb.ccmp
ENCODING -1
SWIDTH 326 0
DWIDTH 7 0
BBX 6 17 0 -3
BITMAP
30
30
30
FC
FC
30
30
30
30
30
30
30
3C
1C
00
18
18
ENDCHAR
STARTCHAR U_tildecomb_acutecomb.ccmp
ENCODING -1
SWIDTH 648 0
DWIDTH 13 0
BBX 11 20 1 0
BITMAP
0300
0400
0000
1D00
1700
0000
C060
C060
C060
C060
C060
C060
C060
C060
C060
C060
E0E0
60C0
3F80
1F00
ENDCHAR
STARTCHAR V_tildecomb.ccmp
ENCODING -1
SWIDTH 636 0
DWIDTH 13 0
BBX 13 17 0 0
BITMAP
0CC0
1380
0000
E038
6030
6030
3060
3060
3060
18C0
18C0
0880
0D80
0D80
0500
0700
0700
ENDCHAR
STARTCHAR v_tildecomb.ccmp
ENCODING -1
SWIDTH 484 0
DWIDTH 10 0
BBX 9 15 0 0
BITMAP
3900
2700
4000
0000
C180
6180
6180
2100
3300
3300
1200
1E00
1E00
0C00
0C00
ENDCHAR
STARTCHAR V_dotbelowcomb.ccmp
ENCODING -1
SWIDTH 636 0
DWIDTH 13 0
BBX 13 17 0 -3
BITMAP
E038
6030
6030
3060
3060
3060
18C0
18C0
0880
0D80
0D80
0500
0700
0700
0000
0600
0600
ENDCHAR
STARTCHAR v_dotbelowcomb.ccmp
ENCODING -1
SWIDTH 484 0
DWIDTH 10 0
BBX 9 14 0 -3
BITMAP
C180
6180
6180
2100
3300
3300
1200
1E00
1E00
0C00
0C00
0000
0C00
0C00
ENDCHAR
STARTCHAR W_dotbelowcomb.ccmp
ENCODING -1
SWIDTH 887 0
DWIDTH 18 0
BBX 16 17 1 -3
BITMAP
C183
C183
C383
C3C2
63C6
6246
6666
6664
242C
3C2C
3C3C
3838
1818
1818
0000
0180
0180
ENDCHAR
STARTCHAR w_dotbelowcomb.ccmp
ENCODING -1
SWIDTH 751 0
DWIDTH 15 0
BBX 15 14 0 -3
BITMAP
C106
638C
638C
628C
26C8
36D8
3458
3450
1C70
1830
1830
0000
0300
0380
ENDCHAR
STARTCHAR Z_dotbelowcomb.ccmp
ENCODING -1
SWIDTH 598 0
DWIDTH 12 0
BBX 10 17 1 -3
BITMAP
FFC0
FFC0
0180
0380
0300
0600
0C00
1C00
1800
3000
6000
C000
FFC0
FFC0
0000
0C00
0C00
ENDCHAR
STARTCHAR z_dotbelowcomb.ccmp
ENCODING -1
SWIDTH 495 0
DWIDTH 10 0
BBX 8 14 1 -3
BITMAP
FF
FF
06
0E
0C
18
30
60
C0
FF
FF
00
18
18
ENDCHAR
STARTCHAR Alphatonos.c2sc
ENCODING -1
SWIDTH 564 0
DWIDTH 11 0
BBX 11 12 0 0
BITMAP
3000
2600
6E00
0F00
1B00
1900
1180
3180
3FC0
7FC0
60C0
C060
ENDCHAR
STARTCHAR Epsilontonos.c2sc
ENCODING -1
SWIDTH 516 0
DWIDTH 10 0
BBX 12 12 -2 0
BITMAP
6000
4FF0
CFF0
0C00
0C00
0FE0
0FE0
0C00
0C00
0C00
0FF0
0FF0
ENDCHAR
STARTCHAR Etatonos.c2sc
ENCODING -1
SWIDTH 640 0
DWIDTH 13 0
BBX 12 12 -1 0
BITMAP
C000
9810
9810
1810
1810
1FF0
1FF0
1810
1810
1810
1810
1810
ENDCHAR
STARTCHAR Iotatonos.c2sc
ENCODING -1
SWIDTH 267 0
DWIDTH 5 0
BBX 5 12 -1 0
BITMAP
C0
98
98
18
18
18
18
18
18
18
18
18
ENDCHAR
STARTCHAR Omicrontonos.c2sc
ENCODING -1
SWIDTH 596 0
DWIDTH 12 0
BBX 11 12 0 0
BITMAP
C000
8F00
BFC0
30C0
6060
6060
6060
6060
6060
30C0
3FC0
0F00
ENDCHAR
STARTCHAR Upsilontonos.c2sc
ENCODING -1
SWIDTH 550 0
DWIDTH 11 0
BBX 13 12 -2 0
BITMAP
C000
9818
8C30
0C60
0660
06C0
03C0
0180
0180
0180
0180
0180
ENDCHAR
STARTCHAR Omegatonos.c2sc
ENCODING -1
SWIDTH 623 0
DWIDTH 12 0
BBX 11 12 0 0
BITMAP
C000
8F80
BFC0
30E0
6060
6060
6060
6060
2060
30C0
7DE0
7DE0
ENDCHAR
STARTCHAR Alpha.c2sc
ENCODING -1
SWIDTH 564 0
DWIDTH 11 0
BBX 11 11 0 0
BITMAP
0600
0E00
0F00
1B00
1900
1180
3180
3FC0
7FC0
60C0
C060
ENDCHAR
STARTCHAR Beta.c2sc
ENCODING -1
SWIDTH 539 0
DWIDTH 11 0
BBX 9 11 1 0
BITMAP
FE00
FF00
C380
C300
FF00
FF00
C180
C180
C180
FF00
FE00
ENDCHAR
STARTCHAR Epsilon.c2sc
ENCODING -1
SWIDTH 487 0
DWIDTH 10 0
BBX 8 11 1 0
BITMAP
FF
FF
C0
C0
FE
FE
C0
C0
C0
FF
FF
ENDCHAR
STARTCHAR Zeta.c2sc
ENCODING -1
SWIDTH 517 0
DWIDTH 10 0
BBX 9 11 1 0
BITMAP
FF00
FF00
0300
0600
0C00
1800
3000
6000
C000
FF80
FF80
ENDCHAR
STARTCHAR Eta.c2sc
ENCODING -1
SWIDTH 610 0
DWIDTH 12 0
BBX 10 11 1 0
BITMAP
C0C0
C0C0
C0C0
C0C0
FFC0
FFC0
C0C0
C0C0
C0C0
C0C0
C0C0
ENDCHAR
STARTCHAR Iota.c2sc
ENCODING -1
SWIDTH 238 0
DWIDTH 5 0
BBX 2 11 1 0
BITMAP
C0
C0
C0
C0
C0
C0
C0
C0
C0
C0
C0
ENDCHAR
STARTCHAR Kappa.c2sc
ENCODING -1
SWIDTH 541 0
DWIDTH 11 0
BBX 10 11 1 0
BITMAP
C1C0
C300
C600
CC00
D800
F800
EC00
C600
C300
C380
C1C0
ENDCHAR
STARTCHAR Mu.c2sc
ENCODING -1
SWIDTH 750 0
DWIDTH 15 0
BBX 13 11 1 0
BITMAP
E038
E038
F078
D058
D8D8
D8D8
CD98
CD98
C518
C718
C218
ENDCHAR
STARTCHAR Nu.c2sc
ENCODING -1
SWIDTH 610 0
DWIDTH 12 0
BBX 10 11 1 0
BITMAP
E0C0
E0C0
F0C0
D8C0
D8C0
CCC0
C6C0
C3C0
C3C0
C1C0
C0C0
ENDCHAR
STARTCHAR Omicron.c2sc
ENCODING -1
SWIDTH 591 0
DWIDTH 12 0
BBX 10 11 1 0
BITMAP
1E00
7F80
6180
C0C0
C0C0
C0C0
C0C0
C0C0
6180
7F80
1E00
ENDCHAR
STARTCHAR Rho.c2sc
ENCODING -1
SWIDTH 544 0
DWIDTH 11 0
BBX 9 11 1 0
BITMAP
FE00
FF80
C180
C180
C180
FF80
FF00
C000
C000
C000
C000
ENDCHAR
STARTCHAR Tau.c2sc
ENCODING -1
SWIDTH 518 0
DWIDTH 10 0
BBX 10 11 0 0
BITMAP
FFC0
FFC0
0C00
0C00
0C00
0C00
0C00
0C00
0C00
0C00
0C00
ENDCHAR
STARTCHAR Upsilon.c2sc
ENCODING -1
SWIDTH 520 0
DWIDTH 10 0
BBX 10 11 0 0
BITMAP
C0C0
6180
3180
3300
1B00
1E00
0C00
0C00
0C00
0C00
0C00
ENDCHAR
STARTCHAR Chi.c2sc
ENCODING -1
SWIDTH 541 0
DWIDTH 11 0
BBX 10 11 0 0
BITMAP
E0C0
3180
3380
1B00
0E00
0E00
0E00
1B00
3180
7180
E0C0
ENDCHAR
STARTCHAR Iotadieresis.c2sc
ENCODING -1
SWIDTH 238 0
DWIDTH 5 0
BBX 7 15 -1 0
BITMAP
C4
CE
00
00
30
30
30
30
30
30
30
30
30
30
30
ENDCHAR
STARTCHAR Upsilondieresis.c2sc
ENCODING -1
SWIDTH 520 0
DWIDTH 10 0
BBX 10 15 0 0
BITMAP
3300
3300
0000
0000
C0C0
6180
3180
3300
1B00
1E00
0C00
0C00
0C00
0C00
0C00
ENDCHAR
STARTCHAR uni0401.c2sc
ENCODING -1
SWIDTH 487 0
DWIDTH 10 0
BBX 8 15 1 0
BITMAP
66
66
00
00
FF
FF
C0
C0
FE
FE
C0
C0
C0
FF
FF
ENDCHAR
STARTCHAR uni0403.c2sc
ENCODING -1
SWIDTH 460 0
DWIDTH 9 0
BBX 8 15 1 0
BITMAP
06
0C
18
00
FF
FF
C0
C0
C0
C0
C0
C0
C0
C0
C0
ENDCHAR
STARTCHAR uni0405.c2sc
ENCODING -1
SWIDTH 515 0
DWIDTH 10 0
BBX 9 11 1 0
BITMAP
3E00
7F00
C300
C080
7800
3F00
0700
8180
C380
FF00
3E00
ENDCHAR
STARTCHAR uni0406.c2sc
ENCODING -1
SWIDTH 238 0
DWIDTH 5 0
BBX 2 11 1 0
BITMAP
C0
C0
C0
C0
C0
C0
C0
C0
C0
C0
C0
ENDCHAR
STARTCHAR uni0407.c2sc
ENCODING -1
SWIDTH 238 0
DWIDTH 5 0
BBX 7 15 -1 0
BITMAP
C4
CE
00
00
30
30
30
30
30
30
30
30
30
30
30
ENDCHAR
STARTCHAR uni0408.c2sc
ENCODING -1
SWIDTH 476 0
DWIDTH 10 0
BBX 7 11 1 0
BITMAP
02
02
02
02
02
02
02
02
C6
FE
7C
ENDCHAR
STARTCHAR uni040C.c2sc
ENCODING -1
SWIDTH 541 0
DWIDTH 11 0
BBX 10 15 1 0
BITMAP
0600
0C00
1800
0000
C1C0
C300
C600
CC00
D800
F800
EC00
C600
C300
C380
C1C0
ENDCHAR
STARTCHAR uni040E.c2sc
ENCODING -1
SWIDTH 515 0
DWIDTH 10 0
BBX 10 14 0 0
BITMAP
3100
1E00
0000
C0C0
6180
6180
3300
3300
1A00
1E00
0E00
0C00
3C00
3800
ENDCHAR
STARTCHAR uni0410.c2sc
ENCODING -1
SWIDTH 564 0
DWIDTH 11 0
BBX 11 11 0 0
BITMAP
0600
0E00
0F00
1B00
1900
1180
3180
3FC0
7FC0
60C0
C060
ENDCHAR
STARTCHAR uni0412.c2sc
ENCODING -1
SWIDTH 539 0
DWIDTH 11 0
BBX 9 11 1 0
BITMAP
FE00
FF00
C380
C300
FF00
FF00
C180
C180
C180
FF00
FE00
ENDCHAR
STARTCHAR uni0413.c2sc
ENCODING -1
SWIDTH 460 0
DWIDTH 9 0
BBX 8 11 1 0
BITMAP
FF
FF
C0
C0
C0
C0
C0
C0
C0
C0
C0
ENDCHAR
STARTCHAR uni0415.c2sc
ENCODING -1
SWIDTH 487 0
DWIDTH 10 0
BBX 8 11 1 0
BITMAP
FF
FF
C0
C0
FE
FE
C0
C0
C0
FF
FF
ENDCHAR
STARTCHAR uni0419.c2sc
ENCODING -1
SWIDTH 615 0
DWIDTH 12 0
BBX 10 14 1 0
BITMAP
3100
1E00
0000
C0C0
C1C0
C3C0
C6C0
C6C0
CCC0
D8C0
D0C0
F0C0
E0C0
C0C0
ENDCHAR
STARTCHAR uni041C.c2sc
ENCODING -1
SWIDTH 750 0
DWIDTH 15 0
BBX 13 11 1 0
BITMAP
E038
E038
F078
D058
D8D8
D8D8
CD98
CD98
C518
C718
C218
ENDCHAR
STARTCHAR uni041D.c2sc
ENCODING -1
SWIDTH 610 0
DWIDTH 12 0
BBX 10 11 1 0
BITMAP
C0C0
C0C0
C0C0
C0C0
FFC0
FFC0
C0C0
C0C0
C0C0
C0C0
C0C0
ENDCHAR
STARTCHAR uni041E.c2sc
ENCODING -1
SWIDTH 591 0
DWIDTH 12 0
BBX 10 11 1 0
BITMAP
1E00
7F80
6180
C0C0
C0C0
C0C0
C0C0
C0C0
6180
7F80
1E00
ENDCHAR
STARTCHAR uni041F.c2sc
ENCODING -1
SWIDTH 600 0
DWIDTH 12 0
BBX 10 11 1 0
BITMAP
FFC0
FFC0
C0C0
C0C0
C0C0
C0C0
C0C0
C0C0
C0C0
C0C0
C0C0
ENDCHAR
STARTCHAR uni0420.c2sc
ENCODING -1
SWIDTH 544 0
DWIDTH 11 0
BBX 9 11 1 0
BITMAP
FE00
FF80
C180
C180
C180
FF80
FF00
C000
C000
C000
C000
ENDCHAR
STARTCHAR uni0421.c2sc
ENCODING -1
SWIDTH 560 0
DWIDTH 11 0
BBX 9 11 1 0
BITMAP
3E00
7F00
E180
C180
C000
C000
C000
C180
E180
7F00
3E00
ENDCHAR
STARTCHAR uni0422.c2sc
ENCODING -1
SWIDTH 518 0
DWIDTH 10 0
BBX 10 11 0 0
BITMAP
FFC0
FFC0
0C00
0C00
0C00
0C00
0C00
0C00
0C00
0C00
0C00
ENDCHAR
STARTCHAR uni0425.c2sc
ENCODING -1
SWIDTH 541 0
DWIDTH 11 0
BBX 10 11 0 0
BITMAP
E0C0
3180
3380
1B00
0E00
0E00
0E00
1B00
3180
7180
E0C0
ENDCHAR
STARTCHAR uni0498.c2sc
ENCODING -1
SWIDTH 530 0
DWIDTH 11 0
BBX 9 15 1 -4
BITMAP
3E00
FF00
C300
0300
1E00
1E00
0300
0180
C300
FF00
7E00
1800
1800
1800
1800
ENDCHAR
STARTCHAR uni04A2.c2sc
ENCODING -1
SWIDTH 610 0
DWIDTH 12 0
BBX 11 15 1 -4
BITMAP
C0C0
C0C0
C0C0
C0C0
FFC0
FFC0
C0C0
C0C0
C0C0
C0E0
C0E0
0020
0020
0020
0020
ENDCHAR
STARTCHAR uni04AA.c2sc
ENCODING -1
SWIDTH 560 0
DWIDTH 11 0
BBX 9 15 1 -4
BITMAP
1E00
7F80
E180
C080
C000
C000
C000
C080
E180
7F80
3E00
0C00
0C00
0C00
0C00
ENDCHAR
STARTCHAR uni04AE.c2sc
ENCODING -1
SWIDTH 520 0
DWIDTH 10 0
BBX 10 11 0 0
BITMAP
C0C0
6180
3180
3300
1B00
1E00
0C00
0C00
0C00
0C00
0C00
ENDCHAR
STARTCHAR uni04BE.c2sc
ENCODING -1
SWIDTH 720 0
DWIDTH 14 0
BBX 13 15 0 -4
BITMAP
03E0
0FF0
8C18
D818
7FF8
3FF8
1800
1800
0C10
07F0
03E0
00C0
00C0
00C0
00C0
ENDCHAR
STARTCHAR uni04E2.c2sc
ENCODING -1
SWIDTH 615 0
DWIDTH 12 0
BBX 10 14 1 0
BITMAP
3F00
3F00
0000
C0C0
C1C0
C3C0
C6C0
C6C0
CCC0
D8C0
D0C0
F0C0
E0C0
C0C0
ENDCHAR
STARTCHAR uni04EE.c2sc
ENCODING -1
SWIDTH 515 0
DWIDTH 10 0
BBX 10 14 0 0
BITMAP
3F00
3F00
0000
C0C0
6180
6180
3300
3300
1A00
1E00
0E00
0C00
3C00
3800
ENDCHAR
STARTCHAR uni0424.c2sc
ENCODING -1
SWIDTH 675 0
DWIDTH 14 0
BBX 12 11 1 0
BITMAP
0600
1F80
7FC0
E660
C620
C630
C620
E660
7FC0
1F80
0600
ENDCHAR
STARTCHAR IJ.c2sc
ENCODING -1
SWIDTH 714 0
DWIDTH 14 0
BBX 12 11 1 0
BITMAP
C030
C030
C030
C030
C030
C030
C030
C030
CE30
C7F0
C3E0
ENDCHAR
STARTCHAR AEacute.c2sc
ENCODING -1
SWIDTH 777 0
DWIDTH 16 0
BBX 15 15 0 0
BITMAP
0070
0060
00C0
0000
03FE
03FE
0680
0480
0C80
08FC
18FC
3FC0
3FC0
60FE
E0FE
ENDCHAR
STARTCHAR Oslashacute.c2sc
ENCODING -1
SWIDTH 591 0
DWIDTH 12 0
BBX 10 15 1 0
BITMAP
0700
0600
0C00
0000
1EC0
7F80
6380
C2C0
C6C0
CCC0
C8C0
D0C0
7180
7F80
DE00
ENDCHAR
STARTCHAR uni0218.c2sc
ENCODING -1
SWIDTH 515 0
DWIDTH 10 0
BBX 9 16 1 -5
BITMAP
3E00
7F00
C300
C080
7800
3F00
0700
8180
C380
FF00
3E00
0000
0800
1800
1800
1000
ENDCHAR
STARTCHAR Wgrave.c2sc
ENCODING -1
SWIDTH 760 0
DWIDTH 15 0
BBX 15 15 0 0
BITMAP
0600
0300
0180
0000
C186
6384
638C
628C
26CC
2648
3458
3478
1C70
1830
1830
ENDCHAR
STARTCHAR Wacute.c2sc
ENCODING -1
SWIDTH 760 0
DWIDTH 15 0
BBX 15 15 0 0
BITMAP
00E0
0180
0180
0000
C186
6384
638C
628C
26CC
2648
3458
3478
1C70
1830
1830
ENDCHAR
STARTCHAR Wdieresis.c2sc
ENCODING -1
SWIDTH 760 0
DWIDTH 15 0
BBX 15 14 0 0
BITMAP
0660
0660
0000
C186
6384
638C
628C
26CC
2648
3458
3478
1C70
1830
1830
ENDCHAR
STARTCHAR Ygrave.c2sc
ENCODING -1
SWIDTH 520 0
DWIDTH 10 0
BBX 10 15 0 0
BITMAP
3800
1800
0C00
0000
C0C0
6180
3180
3300
1B00
1E00
0C00
0C00
0C00
0C00
0C00
ENDCHAR
STARTCHAR Aogonek.locl
ENCODING -1
SWIDTH 652 0
DWIDTH 13 0
BBX 13 18 0 -4
BITMAP
0700
0700
0500
0D80
0D80
0880
18C0
18C0
3060
3FE0
3FE0
6030
6030
C218
0400
0C00
0C00
0600
ENDCHAR
STARTCHAR aogonek.locl
ENCODING -1
SWIDTH 543 0
DWIDTH 11 0
BBX 9 15 1 -4
BITMAP
3E00
7F00
C300
0100
3F00
7F00
E100
C100
C300
7F80
3D80
3000
6000
6000
3800
ENDCHAR
STARTCHAR Eogonek.locl
ENCODING -1
SWIDTH 568 0
DWIDTH 11 0
BBX 9 18 2 -4
BITMAP
FF80
FF80
C000
C000
C000
C000
FF00
FF00
C000
C000
C000
C000
FF80
FF80
3000
6000
6000
3800
ENDCHAR
STARTCHAR eogonek.locl
ENCODING -1
SWIDTH 529 0
DWIDTH 11 0
BBX 9 15 1 -4
BITMAP
1E00
7F00
6180
C180
FF80
FF80
C000
C000
6100
7F80
1E00
3000
3000
2000
3800
ENDCHAR
STARTCHAR Aogonek.c2sc.locl
ENCODING -1
SWIDTH 564 0
DWIDTH 11 0
BBX 11 15 0 -4
BITMAP
0600
0E00
0F00
1B00
1900
1180
3180
3FC0
7FC0
60C0
C460
0800
1800
1800
0E00
ENDCHAR
STARTCHAR Eogonek.c2sc.locl
ENCODING -1
SWIDTH 487 0
DWIDTH 10 0
BBX 8 15 1 -4
BITMAP
FF
FF
C0
C0
FE
FE
C0
C0
C0
FF
FF
30
20
20
38
ENDCHAR
STARTCHAR glyph1293
ENCODING -1
SWIDTH 247 0
DWIDTH 5 0
BBX 2 14 1 -3
BITMAP
40
40
40
40
40
40
40
40
40
40
40
00
C0
C0
ENDCHAR
ENDFONT
